<svg width="20" height="24" viewBox="0 0 20 24" fill="none" xmlns="http://www.w3.org/2000/svg">
<path d="M11.358 23.109L19.8542 12.7997C20.012 12.6083 20.0455 12.3404 19.9403 12.1156C19.835 11.8908 19.6054 11.7472 19.3567 11.7472L14.8789 11.7472C14.6971 6.74328 12.9319 3.30365 9.62619 1.51447C6.77498 -0.0259464 3.39755 -0.0115947 1.16347 0.00275691C0.981678 0.00275691 0.809456 0.0027569 0.646803 0.00275689C0.354984 0.00275688 0.0966549 0.198897 0.020113 0.485931C0.00576208 0.538554 0.000976536 0.595961 0.000976534 0.648584C0.000976524 0.878211 0.120575 1.09349 0.326282 1.2083C6.48317 4.70055 6.77977 7.57568 6.79412 11.7425L2.33074 11.7425C2.08198 11.7425 1.85235 11.886 1.7471 12.1156C1.64185 12.3452 1.67534 12.6083 1.83321 12.8045L10.3581 23.109C10.4825 23.2573 10.6643 23.3434 10.8557 23.3434C11.047 23.3434 11.2336 23.2573 11.358 23.109Z" fill="#E37264"/>
</svg>
