<svg width="20" height="23" viewBox="0 0 20 23" fill="none" xmlns="http://www.w3.org/2000/svg">
<rect y="3" width="20" height="20" rx="5" fill="#CEBEAF"/>
<rect x="3.5" y="0.5" width="3" height="5" rx="1.5" fill="#CEBEAF" stroke="white"/>
<rect x="13.5" y="0.5" width="3" height="5" rx="1.5" fill="#CEBEAF" stroke="white"/>
<path d="M0.5 9.5H19.5V18C19.5 20.4853 17.4853 22.5 15 22.5H5C2.51472 22.5 0.5 20.4853 0.5 18V9.5Z" fill="white" stroke="#CEBEAF"/>
<path d="M11.872 18.256V19H7.804V18.256H9.508V13.12C9.444 13.216 9.332 13.32 9.172 13.432C9.02 13.544 8.848 13.648 8.656 13.744C8.472 13.84 8.28 13.92 8.08 13.984C7.88 14.048 7.704 14.08 7.552 14.08V13.288C7.736 13.288 7.936 13.236 8.152 13.132C8.376 13.028 8.584 12.908 8.776 12.772C8.976 12.636 9.144 12.508 9.28 12.388C9.416 12.268 9.492 12.188 9.508 12.148H10.348V18.256H11.872Z" fill="#575756"/>
</svg>
