<svg width="21" height="16" viewBox="0 0 21 16" fill="none" xmlns="http://www.w3.org/2000/svg">
<path d="M19.9635 0H0.321391C0.143919 0 0 0.143855 0 0.321391V15.6786C0 15.8561 0.143919 16 0.321391 16H19.9635C20.1411 16 20.2849 15.8561 20.2849 15.6786V0.321391C20.2849 0.143855 20.1411 0 19.9635 0ZM18.3566 13.4377L13.9364 8.86017C13.8876 8.80971 13.8077 8.80643 13.755 8.85284L10.6892 11.5512L6.77068 6.72639C6.74523 6.6949 6.70801 6.6769 6.66591 6.6778C6.62535 6.67863 6.58749 6.69811 6.56325 6.73064L1.92835 12.9499V1.92835H18.3566V13.4377Z" fill="#E37264"/>
<circle cx="5" cy="5" r="1" fill="#E37264"/>
</svg>
