<svg width="20" height="16" viewBox="0 0 20 16" fill="none" xmlns="http://www.w3.org/2000/svg">
<path d="M6.24523 15.7584C7.65534 15.7584 8.95369 15.2829 10 14.4916C11.0467 15.2832 12.3447 15.7584 13.7548 15.7584C17.1987 15.7584 20 12.9571 20 9.51352C20 6.06959 17.1987 3.26829 13.7548 3.26829C12.3447 3.26829 11.0463 3.74382 10 4.535C8.95337 3.74347 7.65534 3.26829 6.24523 3.26829C2.8013 3.26832 0 6.06959 0 9.51352C0 12.9568 2.8013 15.7584 6.24523 15.7584ZM9.99998 6.99006C10.4865 7.71144 10.7708 8.57999 10.7708 9.51352C10.7708 10.447 10.4865 11.3156 9.99998 12.037C9.51344 11.3156 9.22909 10.447 9.22909 9.51352C9.22909 8.57999 9.5138 7.71144 9.99998 6.99006ZM13.7551 4.98752C16.2507 4.98752 18.2811 7.01789 18.2811 9.51352C18.2811 12.0091 16.2507 14.0392 13.7551 14.0392C12.8192 14.0392 11.9486 13.7534 11.2261 13.2649C12.0159 12.2189 12.4904 10.9223 12.4904 9.51352C12.4904 8.10478 12.0159 6.80779 11.2261 5.76186C11.9486 5.27324 12.8192 4.98752 13.7551 4.98752ZM6.24523 4.98752C7.18117 4.98752 8.05177 5.27324 8.77419 5.76186C7.98439 6.80783 7.50989 8.10482 7.50989 9.51352C7.50989 10.9222 7.98439 12.2189 8.77419 13.2649C8.05177 13.7534 7.18117 14.0392 6.24523 14.0392C3.74964 14.0392 1.71923 12.0091 1.71923 9.51352C1.7192 7.01789 3.74961 4.98752 6.24523 4.98752Z" fill="#E37264"/>
<path d="M9.87928 0.799984H9.87241C9.87241 0.799984 8.92201 -0.240838 8.09265 0.519409C7.26329 1.27966 7.98881 3.03117 9.87241 3.79142L9.87928 3.79797C11.7625 3.03772 12.4884 1.27966 11.659 0.519445C10.8297 -0.240838 9.87928 0.799984 9.87928 0.799984Z" fill="#E37264"/>
</svg>
