<svg width="24" height="20" viewBox="0 0 24 20" fill="none" xmlns="http://www.w3.org/2000/svg">
<path d="M23.6635 5.86724C23.6584 4.84554 22.8231 4.01436 21.8013 4.01436C21.4384 4.01436 18.2432 4.01436 17.8619 4.01436C17.0712 4.01436 16.3459 4.44624 15.9692 5.14137L15.6955 5.64632C15.8007 5.89602 15.859 6.1702 15.859 6.4577C15.859 6.91628 15.7106 7.34066 15.4597 7.6861C15.7442 7.71017 16.0128 7.79152 16.254 7.91882L17.3529 5.89116C17.3806 5.83994 17.4396 5.81407 17.4961 5.82841C17.5526 5.84271 17.5922 5.89357 17.5922 5.95183L17.5925 19.052C17.5925 19.5735 18.0153 19.9963 18.5368 19.9963C19.0583 19.9963 19.4811 19.5735 19.4811 19.052V11.5043H19.8887V19.0521C19.8887 19.5737 20.3115 19.9964 20.833 19.9964C21.3545 19.9964 21.7773 19.5737 21.7773 19.0521C21.7773 6.85793 21.7605 13.3177 21.7602 5.87945C21.7602 5.78936 21.8326 5.71597 21.9227 5.71476C22.0128 5.71356 22.0872 5.78501 22.0895 5.8751L22.1186 11.6563C22.1208 12.0895 22.4726 12.4392 22.9054 12.4392C22.9067 12.4392 22.9081 12.4392 22.9095 12.4392C23.344 12.4371 23.6946 12.083 23.6924 11.6484L23.6635 5.86724Z" fill="#E37264"/>
<path d="M16.6268 9.76246C16.6231 9.02512 16.0201 8.42522 15.2828 8.42522H12.2339C11.4966 8.42522 10.8937 9.02512 10.89 9.76242C10.8889 9.99189 10.8899 9.79652 10.8835 10.8777L10.2573 10.749C10.2573 10.749 8.85601 6.89228 8.35449 5.43297C7.986 4.36065 7.3681 3.81697 6.51799 3.81697C5.33924 3.81697 4.97029 3.81697 3.76604 3.81697C2.91598 3.81697 2.29807 4.36065 1.92954 5.43297C1.35847 7.09487 0.0615337 10.6431 0.0485305 10.6788C-0.102139 11.0907 0.109752 11.5468 0.521734 11.6975C0.933809 11.8481 1.38989 11.6361 1.54042 11.2243C1.55144 11.1941 2.4828 8.646 3.11885 6.84518C3.07614 7.19413 3.21093 6.45971 1.99067 12.7599C1.93778 13.0331 2.14838 13.2855 2.42385 13.2855C2.59474 13.2855 2.80048 13.2855 3.02991 13.2855V19.0469C3.02991 19.5733 3.4566 20 3.98302 20C4.50944 20 4.93614 19.5733 4.93614 19.0469V13.2855C5.07316 13.2855 5.21064 13.2855 5.34771 13.2855V19.0469C5.34771 19.5733 5.7744 20 6.30082 20C6.82724 20 7.25394 19.5733 7.25394 19.0469V13.2855C7.48341 13.2855 7.6892 13.2855 7.86 13.2855C8.13695 13.2855 8.34606 13.0327 8.29317 12.7599C7.07282 6.45906 7.20771 7.19423 7.165 6.84522C7.80114 8.64604 8.73241 11.1941 8.74347 11.2243C8.85763 11.5365 9.14726 11.7332 9.46017 11.7449C10.0965 11.8756 10.5634 11.9716 11.3329 12.1297C11.6837 12.2017 12.013 11.9347 12.015 11.5767C12.015 11.5767 12.0245 9.98167 12.0256 9.7924C12.0259 9.73192 12.0751 9.6831 12.1355 9.68324C12.1959 9.68338 12.2448 9.73243 12.2448 9.79291C12.2449 11.3236 12.2451 18.6783 12.2451 19.3151C12.2451 19.6915 12.5502 19.9965 12.9266 19.9965C13.303 19.9965 13.6082 19.6914 13.6082 19.3151C13.6082 18.6407 13.6082 14.553 13.6082 13.8678H13.9024C13.9024 14.553 13.9024 18.6407 13.9024 19.3151C13.9024 19.6915 14.2076 19.9965 14.584 19.9965C14.9604 19.9965 15.2655 19.6914 15.2655 19.3151C15.2655 15.398 15.2559 10.7919 15.2536 9.76903C15.2535 9.7036 15.3064 9.65038 15.3718 9.65015C15.4372 9.64992 15.4905 9.70268 15.4909 9.76815L15.5118 13.9404C15.5133 14.2531 15.7673 14.5054 16.0796 14.5054C16.0806 14.5054 16.0815 14.5054 16.0825 14.5054C16.3954 14.5038 16.6478 14.2495 16.6475 13.9368C16.6475 13.9361 16.6476 13.9353 16.6476 13.9346C16.6433 13.0675 16.6306 10.542 16.6268 9.76246Z" fill="#E37264"/>
<path d="M19.6956 3.3033C20.5963 3.3033 21.3265 2.57313 21.3265 1.6724C21.3265 0.771683 20.5963 0.0415039 19.6956 0.0415039C18.7949 0.0415039 18.0647 0.771683 18.0647 1.6724C18.0647 2.57313 18.7949 3.3033 19.6956 3.3033Z" fill="#E37264"/>
<path d="M13.7631 7.93873C14.5809 7.93873 15.2438 7.27578 15.2438 6.45799C15.2438 5.6402 14.5809 4.97725 13.7631 4.97725C12.9453 4.97725 12.2823 5.6402 12.2823 6.45799C12.2823 7.27578 12.9453 7.93873 13.7631 7.93873Z" fill="#E37264"/>
<path d="M5.1421 0C4.23294 0 3.49597 0.73683 3.49597 1.64612C3.49597 2.55167 4.22965 3.29225 5.1421 3.29225C6.05417 3.29225 6.78822 2.55079 6.78822 1.64612C6.78822 0.739699 6.05227 0 5.1421 0Z" fill="#E37264"/>
</svg>
