<svg width="24" height="21" viewBox="0 0 24 21" fill="none" xmlns="http://www.w3.org/2000/svg">
<path d="M21.7712 4.30201C20.7296 2.97392 19.3146 1.92477 17.5264 1.15484C15.7383 0.384916 13.785 0 11.6669 0C9.54881 0 7.59559 0.384916 5.80738 1.15484C4.01917 1.92477 2.60426 2.97373 1.56255 4.30201C0.520788 5.6302 0 7.07765 0 8.64452C0 9.99518 0.392677 11.2607 1.17835 12.4403C1.96402 13.6199 3.03812 14.6106 4.40113 15.412C4.30554 15.7721 4.19271 16.1142 4.06245 16.4386C3.93225 16.7628 3.81508 17.0284 3.71091 17.2357C3.60666 17.4426 3.46573 17.6723 3.28763 17.9243C3.10981 18.1765 2.97527 18.3545 2.8841 18.4581C2.79303 18.5617 2.6433 18.7325 2.43483 18.9713C2.22663 19.2098 2.092 19.3654 2.0313 19.4374C2.02249 19.442 1.98783 19.4823 1.92708 19.5592C1.86638 19.6356 1.83591 19.6737 1.83591 19.6737L1.75779 19.7952C1.71433 19.8624 1.69481 19.9053 1.69909 19.9231C1.70347 19.9413 1.69481 19.9863 1.6731 20.0581C1.65134 20.1303 1.65358 20.1844 1.67957 20.2204V20.2339C1.71433 20.3869 1.78369 20.5109 1.88786 20.6054C1.99203 20.6996 2.10942 20.7469 2.23949 20.7469H2.30466C2.86905 20.6747 3.3638 20.576 3.78908 20.4498C6.06351 19.8466 8.06014 18.757 9.77885 17.181C10.4298 17.253 11.0592 17.289 11.6668 17.289C13.7849 17.289 15.7382 16.9041 17.5264 16.134C19.3145 15.3639 20.7295 14.3152 21.7711 12.987C22.8129 11.6589 23.3337 10.2113 23.3337 8.64447C23.3338 7.07784 22.813 5.6302 21.7712 4.30201Z" fill="white"/>
</svg>
