<svg width="23" height="21" viewBox="0 0 23 21" fill="none" xmlns="http://www.w3.org/2000/svg">
<path d="M20.9115 1.9261C19.7203 0.690396 18.1433 0.0150087 16.4601 0.0150087C14.777 0.0150087 13.1951 0.695398 12.0039 1.93111L11.3817 2.57648L10.75 1.9211C9.55874 0.685393 7.97205 0 6.28891 0C4.61059 0 3.02872 0.68039 1.84232 1.91109C0.651099 3.1468 -0.00479636 4.78774 2.64081e-05 6.53374C2.64081e-05 8.27975 0.660745 9.91568 1.85197 11.1514L10.9091 20.5468C11.0345 20.6768 11.2033 20.7469 11.3673 20.7469C11.5313 20.7469 11.7001 20.6819 11.8254 20.5518L20.9019 11.1714C22.0931 9.93569 22.749 8.29475 22.749 6.54875C22.7538 4.80275 22.1028 3.16181 20.9115 1.9261Z" fill="#E37264"/>
</svg>
