<svg width="23" height="21" viewBox="0 0 23 21" fill="none" xmlns="http://www.w3.org/2000/svg">
<path d="M11.0218 2.92349L11.3817 3.29691L11.7417 2.92349L12.3639 2.27812C13.463 1.13794 14.9158 0.515009 16.4601 0.515009C18.005 0.515009 19.4528 1.13337 20.5516 2.27312C21.6506 3.41325 22.2535 4.92841 22.249 6.54737V6.54875C22.249 8.16759 21.6417 9.68331 20.5422 10.8241C20.5421 10.8242 20.542 10.8243 20.5419 10.8244L11.4661 20.2041L11.4655 20.2048C11.4386 20.2327 11.4017 20.2469 11.3673 20.2469C11.3427 20.2469 11.3028 20.2347 11.2691 20.1998L2.21194 10.8044C1.11129 9.66262 0.500026 8.15138 0.500028 6.53374L0.500024 6.53236C0.495555 4.91437 1.10255 3.39892 2.2023 2.25811C3.29654 1.123 4.74935 0.5 6.28891 0.5C7.83262 0.5 9.29045 1.12751 10.39 2.26812L11.0218 2.92349Z" stroke="#E37264"/>
</svg>
