<svg width="17" height="16" viewBox="0 0 17 16" fill="none" xmlns="http://www.w3.org/2000/svg">
<path d="M16.2567 14.5735L12.3125 10.6129C13.3266 9.44901 13.8823 7.98455 13.8823 6.45999C13.8823 2.89801 10.8806 0 7.19113 0C3.5017 0 0.5 2.89801 0.5 6.45999C0.5 10.022 3.5017 12.92 7.19113 12.92C8.57619 12.92 9.89609 12.5167 11.0246 11.751L14.9988 15.7416C15.1649 15.9082 15.3883 16 15.6278 16C15.8544 16 16.0694 15.9166 16.2326 15.7649C16.5794 15.4428 16.5904 14.9085 16.2567 14.5735ZM7.19113 1.68522C9.9182 1.68522 12.1367 3.82713 12.1367 6.45999C12.1367 9.09286 9.9182 11.2348 7.19113 11.2348C4.46406 11.2348 2.24551 9.09286 2.24551 6.45999C2.24551 3.82713 4.46406 1.68522 7.19113 1.68522Z" fill="#E37264"/>
</svg>
