<svg width="72" height="70" viewBox="0 0 72 70" fill="none" xmlns="http://www.w3.org/2000/svg">
<path d="M25.7204 50.1326C26.8346 57.2634 24.5171 70.7227 6.33362 67.5138L18.4134 42.779M18.4134 42.779C18.4134 42.779 29.5086 15.8158 33.7425 10.022C37.9764 4.22827 54.0209 -2.01106 59.8144 10.022C68.5049 28.0721 45.2004 55.4807 18.4134 42.779Z" stroke="#CEBEAF" stroke-width="3" stroke-linecap="round" stroke-linejoin="round"/>
<path d="M27.7259 10.0221L13.6872 2C11.4588 9.35361 15.3574 28.1363 27.7259 32.7514C33.7425 34.9965 38.5558 34.8907 44.4387 32.7514L2.99106 7.34808C0.762696 15.3702 0.85183 33.6874 19.0353 42.7791" stroke="#CEBEAF" stroke-width="3" stroke-linecap="round" stroke-linejoin="round"/>
<circle cx="51.7923" cy="13.3647" r="2.67404" fill="#CEBEAF"/>
<path d="M69.6517 10.6907H61.1514L62.4884 17.0637L69.9474 11.5939C70.3371 11.3081 70.135 10.6907 69.6517 10.6907Z" fill="#CEBEAF"/>
</svg>
