<svg width="161" height="79" viewBox="0 0 161 79" fill="none" xmlns="http://www.w3.org/2000/svg">
<path d="M73.7204 55.1326C74.8346 62.2634 72.5171 75.7227 54.3336 72.5138L66.4134 47.779M66.4134 47.779C66.4134 47.779 77.5086 20.8158 81.7425 15.022C85.9764 9.22827 102.021 2.98894 107.814 15.022C116.505 33.0721 93.2004 60.4807 66.4134 47.779Z" stroke="#E37264" stroke-width="3" stroke-linecap="round" stroke-linejoin="round"/>
<path d="M75.7259 15.0221L61.6872 7C59.4588 14.3536 63.3574 33.1363 75.7259 37.7514C81.7425 39.9965 86.5558 39.8907 92.4387 37.7514L50.9911 12.3481C48.7627 20.3702 48.8518 38.6874 67.0353 47.7791" stroke="#E37264" stroke-width="3" stroke-linecap="round" stroke-linejoin="round"/>
<circle cx="99.7923" cy="18.3647" r="2.67404" fill="#E37264"/>
<path d="M117.652 15.6907H109.151L110.488 22.0637L117.947 16.5939C118.337 16.3081 118.135 15.6907 117.652 15.6907Z" fill="#E37264"/>
</svg>
