<svg width="28" height="27" viewBox="0 0 28 27" fill="none" xmlns="http://www.w3.org/2000/svg">
<path d="M13.0446 1.09181C13.335 0.152134 14.665 0.152134 14.9554 1.09181L17.3232 8.75422C17.4527 9.17323 17.8401 9.45898 18.2787 9.45898H26.0437C27.0002 9.45898 27.4109 10.673 26.6508 11.2536L20.2838 16.1176C19.9508 16.372 19.8117 16.8071 19.9354 17.2075L22.3468 25.0108C22.6343 25.941 21.558 26.6918 20.7843 26.1007L14.6071 21.3817C14.2487 21.1079 13.7513 21.1079 13.3929 21.3817L7.21568 26.1007C6.442 26.6918 5.36575 25.941 5.6532 25.0108L8.06457 17.2075C8.1883 16.8071 8.04923 16.372 7.71621 16.1176L1.34924 11.2536C0.589122 10.673 0.999762 9.45898 1.9563 9.45898H9.72134C10.1599 9.45898 10.5473 9.17323 10.6768 8.75422L13.0446 1.09181Z" fill="white"/>
</svg>
