<svg width="20" height="21" viewBox="0 0 20 21" fill="none" xmlns="http://www.w3.org/2000/svg">
<path d="M18.8582 14.1046C19.2681 13.5623 19.4647 12.9809 19.4396 12.3822C19.4145 11.7227 19.1301 11.2064 18.8959 10.8897C19.1677 10.1869 19.2723 9.08056 18.3647 8.22153C17.6997 7.59244 16.5705 7.31044 15.0063 7.38853C13.9063 7.44059 12.9862 7.65318 12.9486 7.66186H12.9444C12.7353 7.7009 12.5136 7.74863 12.2877 7.80069C12.271 7.52302 12.317 6.8332 12.8105 5.28C13.3961 3.43178 13.3626 2.01742 12.7018 1.07162C12.0075 0.0780937 10.8992 0 10.573 0C10.2593 0 9.97072 0.134495 9.76579 0.381791C9.30155 0.941463 9.35592 1.97403 9.41447 2.45127C8.8624 3.98712 7.31493 7.75297 6.00585 8.79855C5.98076 8.81591 5.95985 8.8376 5.93894 8.85929C5.55416 9.28013 5.29486 9.73568 5.1192 10.1348C4.87244 9.99599 4.59222 9.9179 4.29109 9.9179H1.73986C0.777917 9.9179 0 10.7292 0 11.7227V18.7729C0 19.7707 0.7821 20.5777 1.73986 20.5777H4.29109C4.66332 20.5777 5.01046 20.4562 5.29486 20.248L6.27771 20.3694C6.42827 20.3911 9.10498 20.7425 11.8528 20.6861C12.3505 20.7252 12.8189 20.7469 13.2539 20.7469C14.0025 20.7469 14.655 20.6861 15.1987 20.5647C16.4785 20.2827 17.3526 19.7187 17.7959 18.89C18.1347 18.2566 18.1347 17.6275 18.0803 17.2283C18.9126 16.4474 19.059 15.584 19.0297 14.9766C19.013 14.6252 18.9377 14.3259 18.8582 14.1046ZM1.73986 19.4063C1.40109 19.4063 1.12923 19.1199 1.12923 18.7729V11.7184C1.12923 11.367 1.40527 11.085 1.73986 11.085H4.29109C4.62986 11.085 4.90171 11.3713 4.90171 11.7184V18.7685C4.90171 19.1199 4.62568 19.4019 4.29109 19.4019H1.73986V19.4063Z" fill="#575756"/>
</svg>
