<svg width="11" height="22" viewBox="0 0 11 22" fill="none" xmlns="http://www.w3.org/2000/svg">
<path d="M10.4058 0.055154L7.81228 0.0507812C4.89851 0.0507812 3.01551 2.08081 3.01551 5.22282V7.60747H0.407811C0.182475 7.60747 0 7.79943 0 8.03621V11.4913C0 11.7281 0.182683 11.9198 0.407811 11.9198H3.01551V20.6381C3.01551 20.8749 3.19799 21.0667 3.42332 21.0667H6.82563C7.05096 21.0667 7.23344 20.8747 7.23344 20.6381V11.9198H10.2824C10.5078 11.9198 10.6903 11.7281 10.6903 11.4913L10.6915 8.03621C10.6915 7.92252 10.6484 7.81364 10.5721 7.73318C10.4957 7.65273 10.3917 7.60747 10.2835 7.60747H7.23344V5.58597C7.23344 4.61435 7.45378 4.12111 8.65828 4.12111L10.4054 4.12046C10.6305 4.12046 10.813 3.92849 10.813 3.69193V0.483679C10.813 0.247334 10.6308 0.0555912 10.4058 0.055154Z" fill="white"/>
</svg>
