<svg width="22" height="24" viewBox="0 0 22 24" fill="none" xmlns="http://www.w3.org/2000/svg">
<path d="M15.9287 0H6.07107C2.72349 0 0 2.86195 0 6.37958V16.7379C0 20.2556 2.72349 23.1174 6.07107 23.1174H15.9287C19.2765 23.1174 22 20.2555 22 16.7379V6.37958C22.0001 2.86195 19.2765 0 15.9287 0ZM20.0482 16.7379C20.0482 19.1246 18.2002 21.0663 15.9288 21.0663H6.07107C3.79979 21.0665 1.95195 19.1246 1.95195 16.7379V6.37958C1.95195 3.99293 3.79979 2.05109 6.07107 2.05109H15.9287C18.2001 2.05109 20.0481 3.99293 20.0481 6.37958V16.7379H20.0482Z" fill="white"/>
<path d="M11 5.60205C7.87415 5.60205 5.33115 8.27417 5.33115 11.5587C5.33115 14.8432 7.87415 17.5151 11 17.5151C14.1259 17.5151 16.6689 14.8432 16.6689 11.5587C16.6689 8.27417 14.1259 5.60205 11 5.60205ZM11 15.4639C8.95058 15.4639 7.2831 13.7121 7.2831 11.5586C7.2831 9.40498 8.95045 7.65297 11 7.65297C13.0495 7.65297 14.7169 9.40498 14.7169 11.5586C14.7169 13.7121 13.0494 15.4639 11 15.4639Z" fill="white"/>
<path d="M16.9066 3.86328C16.5305 3.86328 16.161 4.02326 15.8955 4.30355C15.6286 4.58248 15.4751 4.97079 15.4751 5.36731C15.4751 5.7626 15.6287 6.15077 15.8955 6.43107C16.1609 6.71 16.5305 6.87134 16.9066 6.87134C17.284 6.87134 17.6522 6.71 17.919 6.43107C18.1858 6.15077 18.338 5.76246 18.338 5.36731C18.338 4.97079 18.1858 4.58248 17.919 4.30355C17.6535 4.02326 17.284 3.86328 16.9066 3.86328Z" fill="white"/>
</svg>
