<svg width="24" height="15" viewBox="0 0 24 15" fill="none" xmlns="http://www.w3.org/2000/svg">
<path fill-rule="evenodd" clip-rule="evenodd" d="M20.6554 9.55701C21.4515 10.3989 22.2918 11.191 23.0058 12.1178C23.3212 12.5296 23.6199 12.9546 23.8483 13.4326C24.172 14.112 23.8788 14.8597 23.3163 14.9002L19.82 14.8985C18.9182 14.9796 18.1988 14.5864 17.5939 13.9185C17.1098 13.3845 16.6615 12.8161 16.1961 12.264C16.0052 12.0383 15.8055 11.826 15.5669 11.6582C15.0896 11.3226 14.6753 11.4253 14.4025 11.9645C14.1247 12.5129 14.0617 13.1202 14.0344 13.7314C13.997 14.6232 13.7481 14.8576 12.9211 14.8984C11.1537 14.9887 9.47629 14.6991 7.91806 13.7334C6.54426 12.882 5.47894 11.6801 4.5517 10.3195C2.74634 7.66997 1.36379 4.75861 0.121208 1.76569C-0.158487 1.09138 0.0460603 0.729419 0.732957 0.716607C1.87358 0.692607 3.01405 0.694316 4.15601 0.714899C4.61959 0.722245 4.92649 1.01025 5.10549 1.48461C5.7226 3.12815 6.47771 4.69182 7.42553 6.14122C7.67794 6.5271 7.93532 6.91299 8.30184 7.18459C8.7073 7.48531 9.01602 7.38564 9.20677 6.89642C9.32781 6.58621 9.3808 6.25209 9.40808 5.91984C9.49845 4.77681 9.51035 3.63574 9.35186 2.49671C9.25455 1.78585 8.88488 1.32566 8.23 1.19114C7.89582 1.12256 7.94558 0.987868 8.10738 0.781263C8.38842 0.424934 8.65274 0.203125 9.17964 0.203125H13.1311C13.7532 0.336108 13.8913 0.638799 13.9765 1.31678L13.9799 6.07093C13.9731 6.3334 14.1009 7.11225 14.5374 7.28597C14.8867 7.40964 15.117 7.10695 15.3265 6.86703C16.2726 5.77943 16.9479 4.4941 17.5511 3.16316C17.8188 2.57794 18.049 1.97016 18.2721 1.3629C18.4373 0.912281 18.6967 0.690557 19.1653 0.700379L22.9684 0.704052C23.0811 0.704052 23.1952 0.705846 23.3044 0.726088C23.9453 0.84438 24.1209 1.14297 23.923 1.82078C23.6111 2.88422 23.0043 3.77043 22.411 4.66074C21.7768 5.61126 21.0985 6.52924 20.4696 7.4854C19.8917 8.35854 19.9376 8.79866 20.6554 9.55701Z" fill="white"/>
</svg>
