<svg width="59" height="63" viewBox="0 0 59 63" fill="none" xmlns="http://www.w3.org/2000/svg"><path d="M51.465 12.511h-2.271a.936.936 0 1 0 0 1.872h2.27a4.93 4.93 0 0 1 4.926 4.924v27.125a4.93 4.93 0 0 1-4.925 4.924H6.795a4.93 4.93 0 0 1-4.923-4.924V25.194a.936.936 0 0 0-1.872 0v21.238a6.803 6.803 0 0 0 6.795 6.795h13.631v3.366a5.496 5.496 0 0 0-5.063 5.471c0 .517.419.936.936.936h25.664a.936.936 0 0 0 .935-.936 5.496 5.496 0 0 0-5.063-5.471v-3.366h13.63a6.804 6.804 0 0 0 6.796-6.795V19.307a6.804 6.804 0 0 0-6.796-6.796zM22.298 53.227h13.666v3.347H22.298v-3.347zm18.606 7.901H17.357a3.625 3.625 0 0 1 3.496-2.682h16.556a3.625 3.625 0 0 1 3.495 2.682z" fill="#333"/><path d="M26.018 30.992c-5.437 0-9.86 4.423-9.86 9.859 0 1.71.444 3.392 1.284 4.867a.936.936 0 0 0 1.626-.926 7.974 7.974 0 0 1-1.039-3.941c0-4.404 3.584-7.988 7.989-7.988 4.404 0 7.987 3.584 7.987 7.988a7.986 7.986 0 0 1-1.038 3.941.936.936 0 1 0 1.627.926 9.859 9.859 0 0 0 1.282-4.867c0-5.436-4.422-9.859-9.858-9.859z" fill="#333"/><path d="M41.843 46.936H6.795a.505.505 0 0 1-.504-.504V19.308c0-.278.226-.504.504-.504h3.597a.936.936 0 0 0 0-1.872H6.795a2.378 2.378 0 0 0-2.375 2.376V46.43a2.378 2.378 0 0 0 2.375 2.376h35.048a.936.936 0 1 0 0-1.871zM52.39 17.12a.936.936 0 1 0-.73 1.723c.188.08.31.262.31.465V46.43a.505.505 0 0 1-.506.504h-6.502a.936.936 0 1 0 0 1.872h6.502a2.379 2.379 0 0 0 2.377-2.376V19.308c0-.956-.57-1.815-1.451-2.188z" fill="#333"/><path d="M40.913 11.387c-5.437 0-9.86 4.422-9.86 9.859 0 5.436 4.423 9.859 9.86 9.859 5.436 0 9.858-4.423 9.858-9.86 0-5.436-4.422-9.858-9.858-9.858zm0 17.846c-4.405 0-7.988-3.583-7.988-7.987 0-4.405 3.583-7.988 7.988-7.988 4.404 0 7.987 3.583 7.987 7.988 0 4.404-3.583 7.987-7.987 7.987zM28.405 6.021a.936.936 0 1 0-1.724.729 7.94 7.94 0 0 1 .627 3.109c0 4.404-3.583 7.987-7.987 7.987-4.405 0-7.988-3.583-7.988-7.987s3.583-7.988 7.988-7.988c2.392 0 4.64 1.06 6.164 2.908a.936.936 0 0 0 1.443-1.192A9.832 9.832 0 0 0 19.321 0c-5.436 0-9.86 4.423-9.86 9.859s4.424 9.859 9.86 9.859c5.436 0 9.859-4.423 9.859-9.86 0-1.33-.26-2.62-.775-3.837z" fill="#333"/><path d="M29.793 16.932h-2.62a.936.936 0 0 0 0 1.872h2.62a.936.936 0 1 0 0-1.872zm2.62-4.421H30.48a.936.936 0 1 0 0 1.872h1.934a.936.936 0 1 0 0-1.872zm-24.218 0h-1.4A6.803 6.803 0 0 0 0 19.307v1.871a.936.936 0 1 0 1.871 0v-1.871a4.93 4.93 0 0 1 4.924-4.924h1.4a.936.936 0 0 0 0-1.872zM33.78 46.177H18.256a.923.923 0 0 1-.802-.466 9.835 9.835 0 0 1-1.282-4.86c0-5.43 4.417-9.847 9.847-9.847s9.846 4.417 9.846 9.846a9.847 9.847 0 0 1-1.28 4.86.923.923 0 0 1-.803.467zm-14.968-1.845h14.412a8.014 8.014 0 0 0 .794-3.482c0-4.411-3.589-8-8-8a8.001 8.001 0 0 0-7.206 11.482z" fill="#333"/><path d="M25.212 38.851c0-.349.327-.675 1.126-.675.923 0 1.137.428 1.542.428.495 0 .698-.62.698-.923 0-.567-.684-.814-1.33-.918v-.65a.613.613 0 0 0-.613-.613h-.754a.613.613 0 0 0-.613.613v.711c-.996.265-1.812.94-1.812 2.196 0 2.634 3.568 2.398 3.568 3.76 0 .54-.574.743-1.092.743-1.046 0-1.384-.833-1.913-.833-.428 0-.766.563-.766.945 0 .622.868 1.226 2.015 1.407v.547c0 .339.275.613.613.613h.753a.613.613 0 0 0 .614-.613v-.709c.932-.352 1.532-1.127 1.532-2.28 0-2.837-3.568-2.623-3.568-3.749zm14.895-19.605c0-.35.327-.676 1.126-.676.923 0 1.137.428 1.542.428.495 0 .698-.619.698-.923 0-.567-.684-.814-1.33-.918v-.65a.613.613 0 0 0-.613-.613h-.754a.613.613 0 0 0-.613.613v.712c-.996.264-1.812.94-1.812 2.196 0 2.633 3.568 2.397 3.568 3.76 0 .54-.574.742-1.092.742-1.046 0-1.384-.833-1.913-.833-.428 0-.766.563-.766.946 0 .621.868 1.225 2.015 1.407v.547c0 .338.275.613.613.613h.753a.613.613 0 0 0 .614-.613v-.71c.932-.352 1.532-1.127 1.532-2.28 0-2.836-3.568-2.623-3.568-3.748zM18.516 7.859c0-.349.327-.675 1.126-.675.923 0 1.137.427 1.542.427.495 0 .698-.619.698-.923 0-.566-.685-.813-1.33-.918v-.65a.613.613 0 0 0-.614-.612h-.753a.613.613 0 0 0-.613.613v.71c-.997.265-1.812.941-1.812 2.197 0 2.634 3.568 2.397 3.568 3.76 0 .54-.574.742-1.092.742-1.047 0-1.384-.833-1.913-.833-.428 0-.766.563-.766.946 0 .622.868 1.226 2.015 1.407v.547c0 .339.274.613.613.613h.753a.613.613 0 0 0 .613-.613v-.71c.933-.352 1.533-1.127 1.533-2.28 0-2.836-3.568-2.622-3.568-3.748z" fill="#333"/></svg>