<svg width="220" height="51" viewBox="0 0 220 51" fill="none" xmlns="http://www.w3.org/2000/svg"><path d="M64 14.688h4.568v4.743h5.737v4.131h-5.737v6.222c0 2.04.69 3.06 2.125 3.06.903 0 1.806-.357 2.762-.969l1.381 3.366c-1.434 1.123-3.187 1.684-5.259 1.684-3.93 0-5.577-2.346-5.577-6.885V14.688zm28.312 20.196c-1.753 1.428-3.984 2.142-6.799 2.142-2.922 0-5.206-.816-6.958-2.499-1.753-1.632-2.603-3.825-2.603-6.528 0-2.55.85-4.692 2.603-6.375 1.7-1.734 3.983-2.6 6.852-2.6 2.337 0 4.356.764 6.002 2.243 1.647 1.48 2.444 3.366 2.444 5.712 0 .97-.053 1.734-.266 2.346H80.679c.372 2.55 2.497 3.978 5.365 3.978 2.019 0 3.665-.51 5.046-1.58l1.222 3.161zm-11.845-8.466h8.764c.053-2.142-1.54-3.723-4.09-3.723-2.603 0-4.196 1.275-4.674 3.723zM96.456 9.945h4.568V30.09c0 1.887.531 2.805 1.54 2.805.585 0 1.169-.204 1.86-.663l.955 3.366c-1.221.97-2.815 1.428-4.727 1.428-2.815 0-4.196-1.734-4.196-5.1V9.946zm26.186 24.939c-1.752 1.428-3.983 2.142-6.799 2.142-2.921 0-5.205-.816-6.958-2.499-1.753-1.632-2.603-3.825-2.603-6.528 0-2.55.85-4.692 2.603-6.375 1.7-1.734 3.984-2.6 6.852-2.6 2.337 0 4.356.764 6.002 2.243 1.647 1.48 2.444 3.366 2.444 5.712 0 .97-.053 1.734-.266 2.346H111.01c.371 2.55 2.496 3.978 5.365 3.978 2.018 0 3.665-.51 5.046-1.58l1.221 3.161zm-11.845-8.466h8.765c.053-2.142-1.54-3.723-4.09-3.723-2.603 0-4.144 1.275-4.675 3.723zm16.042 17.799V19.482h4.568v1.632c1.169-1.173 3.294-2.04 5.524-2.04 2.444 0 4.41.816 5.897 2.448 1.487 1.632 2.23 3.723 2.23 6.273 0 2.652-.85 4.896-2.602 6.63-1.753 1.734-3.984 2.652-6.8 2.652-1.805 0-3.186-.255-4.143-.816v8.058h-4.674v-.102zm4.515-19.176v6.936c1.062.663 2.284.97 3.771.97 3.081 0 4.994-2.143 4.994-5.05 0-2.805-1.7-4.743-4.675-4.743-1.54 0-2.921.612-4.09 1.887zm16.839-4.335c1.965-1.122 4.037-1.632 6.321-1.632 5.1 0 7.118 2.397 7.118 7.14V36.67h-3.984v-1.99c-1.062 1.48-2.868 2.193-5.259 2.193-3.346 0-5.577-2.04-5.577-5.253 0-3.62 2.709-5.559 6.48-5.559 1.647 0 2.975.357 4.037 1.122.107-3.009-.796-4.437-3.346-4.437-1.328 0-2.922.357-4.674 1.173l-1.116-3.213zm9.19 10.863v-1.734c-.744-.56-1.806-.816-3.134-.816-1.647 0-2.869.765-2.869 2.142 0 1.275 1.063 2.04 2.55 2.04 1.54-.05 2.656-.612 3.452-1.632zm25.177-12.087l-7.011 17.136c-1.275 2.958-2.444 4.998-3.4 6.018-1.009 1.071-2.124 1.581-3.506 1.581-1.328 0-2.602-.459-3.824-1.326l1.487-3.315c.69.408 1.328.612 1.86.612 1.062 0 1.965-.867 2.762-2.652l.371-.918-8.233-17.136h5.471l4.143 9.384c.16.357.425 1.224.85 2.5.213-1.123.425-1.939.638-2.5l3.187-9.333h5.205v-.05zm2.762 11.424c1.647 0 2.922 1.428 2.922 2.805 0 1.632-1.275 3.06-2.922 3.06-1.912 0-3.187-1.428-3.187-3.06 0-1.377 1.275-2.805 3.187-2.805zm9.296-20.145c1.381 0 2.603 1.02 2.603 2.55 0 1.683-1.222 2.754-2.603 2.754-1.646 0-2.868-1.07-2.868-2.754 0-1.53 1.275-2.55 2.868-2.55zm-2.39 25.857V19.482h4.568v17.136h-4.568zm8.233-8.568c0-2.652.85-4.743 2.656-6.426 1.806-1.734 4.143-2.55 7.065-2.55 2.921 0 5.258.816 7.011 2.55 1.806 1.683 2.71 3.825 2.71 6.426 0 2.652-.904 4.743-2.71 6.477-1.806 1.683-4.143 2.5-7.011 2.5-2.869 0-5.26-.817-7.065-2.5-1.806-1.734-2.656-3.876-2.656-6.477zm9.72 4.896c2.869 0 4.888-1.989 4.888-4.896 0-2.856-2.072-4.896-4.887-4.896-2.762 0-4.834 1.99-4.834 4.896-.053 2.856 2.018 4.896 4.834 4.896z" fill="#333"/><path d="M26.56 51c14.667 0 26.558-11.417 26.558-25.5S41.228 0 26.56 0C11.891 0 0 11.417 0 25.5S11.89 51 26.56 51z" fill="#FFDD05"/><path d="M26.559 45.9c11.734 0 21.247-9.133 21.247-20.4S38.293 5.1 26.56 5.1c-11.735 0-21.247 9.133-21.247 20.4s9.512 20.4 21.247 20.4z" fill="#FFC000"/><path d="M26.559 6.12c11.58 0 20.928 8.874 21.247 19.89v-.51c0-11.27-9.508-20.4-21.247-20.4-11.74 0-21.247 9.13-21.247 20.4v.51C5.63 14.994 14.979 6.12 26.559 6.12z" fill="#EBA700"/><path d="M35.802 16.881l-23.107 8.721s-1.115.357-1.01 1.02c.107.663.957.97.957.97l5.843 1.886s1.753 5.56 2.125 6.58c.372 1.07.637 1.07.637 1.07.319.153.638-.102.638-.102l3.771-3.315 5.843 4.335c1.593.663 2.178-.714 2.178-.714l4.037-19.94c0-1.327-1.912-.51-1.912-.51z" fill="#EBA700"/><path d="M37.714 16.371L33.57 36.312s-.585 1.377-2.178.714l-9.455-6.987-3.453-1.58-5.843-1.888s-.903-.306-.956-.969c-.106-.663 1.01-1.02 1.01-1.02l23.159-8.72c-.053 0 1.859-.817 1.859.51z" fill="#FEDC00"/><path d="M21.194 36.108s-.265 0-.637-1.071-2.125-6.58-2.125-6.58l13.97-8.516s.797-.46.797 0c0 0 .16.102-.266.459-.425.408-10.995 9.486-10.995 9.486" fill="#EBA700"/><path d="M25.55 32.742l-3.771 3.315s-.32.204-.638.102l.744-6.12" fill="#FFC000"/></svg>