<svg width="70" height="70" viewBox="0 0 70 70" fill="none" xmlns="http://www.w3.org/2000/svg"><path d="M30.334 22.167c-1.93 0-3.5 1.57-3.5 3.5h2.333a1.168 1.168 0 0 1 2.333 0h2.334c0-1.93-1.57-3.5-3.5-3.5zm9.332 0c-1.93 0-3.5 1.57-3.5 3.5H38.5a1.168 1.168 0 0 1 2.333 0h2.333c0-1.93-1.57-3.5-3.5-3.5zM35 53.667a4.671 4.671 0 0 0-4.667 4.666A4.671 4.671 0 0 0 35 63a4.671 4.671 0 0 0 4.667-4.667A4.671 4.671 0 0 0 35 53.667zm0 7a2.336 2.336 0 0 1-2.333-2.334A2.336 2.336 0 0 1 35 56a2.336 2.336 0 0 1 2.333 2.333A2.336 2.336 0 0 1 35 60.667z" fill="#333"/><path d="M63 67.667V52.5C63 42.85 55.15 35 45.5 35h-1.27c.415-.365.806-.755 1.176-1.167h1.26A5.84 5.84 0 0 0 52.5 28v-2.056a5.247 5.247 0 0 0 2.333-4.36 5.246 5.246 0 0 0-2.347-4.37C52.331 7.698 44.554 0 35 0S17.67 7.698 17.514 17.214a5.246 5.246 0 0 0-2.347 4.37 5.256 5.256 0 0 0 5.25 5.25h.794A13.976 13.976 0 0 0 25.771 35H24.5C14.85 35 7 42.85 7 52.5v15.167H0V70h70v-2.333h-7zM50.167 28c0 1.77-1.326 3.221-3.032 3.452a13.875 13.875 0 0 0 1.654-4.619h.794c.2 0 .39-.037.584-.06V28zm2.333-6.417a2.92 2.92 0 0 1-2.917 2.917H49v-5.833h.583a2.92 2.92 0 0 1 2.917 2.916zM21 24.5h-.583a2.92 2.92 0 0 1-2.917-2.917 2.92 2.92 0 0 1 2.917-2.916H21V24.5zm-.583-8.167c-.181 0-.352.035-.528.054C20.463 8.543 27.013 2.333 35 2.333c7.987 0 14.537 6.21 15.11 14.054-.175-.019-.346-.054-.527-.054h-.794C47.673 9.723 41.923 4.667 35 4.667S22.326 9.723 21.211 16.333h-.794zm26.248 2.305c-8.42-.297-13.998-3.74-13.998-6.971a1.166 1.166 0 1 0-2.334 0c0 2.915-3.014 5.331-6.932 5.76C24.023 11.575 28.987 7 35 7c6.422 0 11.65 5.219 11.666 11.637zM23.334 24.5v-4.732c3.644-.316 6.736-2.073 8.279-4.534 2.44 3.234 8.145 5.51 15.055 5.743V24.5c0 2.628-.885 5.047-2.356 7H35v2.333h6.97a11.609 11.609 0 0 1-11.78 1.283c-4.037-1.836-6.857-5.898-6.857-10.616zm8.06 13.512c1.154.308 2.359.488 3.607.488 1.248 0 2.453-.18 3.606-.488L35 45.225l-3.606-7.213zm1.72 8.655h-2.059l-4.666-9.334h2.058l4.666 9.334zm8.441-9.334h2.058l-4.666 9.334h-2.058l4.666-9.334zM12.834 52.5v15.167h-3.5V52.5c0-8.126 6.428-14.76 14.463-15.13l4.649 9.297h-9.78a5.84 5.84 0 0 0-5.833 5.833zm42 15.167H15.166V52.5c0-1.93 1.57-3.5 3.5-3.5h32.666c1.93 0 3.5 1.57 3.5 3.5v15.167zm5.833 0h-3.5V52.5a5.84 5.84 0 0 0-5.834-5.833h-9.779l4.65-9.297c8.034.37 14.463 7.004 14.463 15.13v15.167z" fill="#333"/><path d="M52.5 64.167v-5.834a1.167 1.167 0 1 0-2.334 0v5.834a1.167 1.167 0 0 0 2.334 0z" fill="#333"/><path d="M51.333 54.333a.667.667 0 1 1 0-1.333.667.667 0 0 1 0 1.333z" fill="#333" stroke="#333"/></svg>