<svg id="Слой_1" xmlns="http://www.w3.org/2000/svg" viewBox="0 0 57.9 58"><style>.st0{fill:#686868}</style><path class="st0" d="M20 29l-8-8L2 11C0 9-.5 6.4.6 4 1.7 1.6 4.2 0 6.7.1c1.8.1 3.2.9 4.5 2.1l16.9 16.9.9.9.8-.8c5.6-5.7 11.3-11.3 17-17C49.1-.1 52-.6 54.6 1c3.8 2.3 4.3 6.9 1.2 10.2-3.9 3.9-7.8 7.8-11.7 11.6-2 2-4.1 4-6.2 6.1.3.3.5.6.8.8l17.1 17.1c2.3 2.3 2.7 5.4 1 7.9-2.3 3.6-6.9 4.1-10 1-5.6-5.4-11.2-11.1-16.9-16.7-.3-.3-.5-.6-.9-1-.4.4-.7.6-.9.9L11.2 55.8c-2.5 2.5-5.5 2.8-8.2 1-3.3-2.2-4-6.5-1.3-9.4 3.5-3.7 7.2-7.3 10.7-10.9 2.5-2.4 5-4.9 7.6-7.5z"/></svg>