<svg width="224" height="32" fill="none" xmlns="http://www.w3.org/2000/svg"><mask id="a" maskUnits="userSpaceOnUse" x="0" y="0" width="224" height="32"><path fill="#DDD" d="M0 0h224v32H0z"/></mask><g mask="url(#a)" fill="#DDD"><path fill-rule="evenodd" clip-rule="evenodd" d="M115.199 9.191c-4.418 0-7.808 3.082-7.808 7.294 0 4.213 3.39 7.295 7.808 7.295 4.418 0 7.808-3.185 7.808-7.295 0-4.109-3.39-7.294-7.808-7.294zm0 2.877a4.385 4.385 0 0 1 4.418 4.417c0 2.569-1.952 4.521-4.418 4.521s-4.521-1.952-4.521-4.52c.103-2.466 2.158-4.418 4.521-4.418zm9.863-2.774v14.383h3.287v-5.445h6.576v-2.671h-6.576v-3.493h7.09V9.397l-10.377-.103zm12.123 0v14.383h3.288v-5.445h6.575v-2.671h-6.575v-3.493h7.089V9.397l-10.377-.103zm12.226 0v14.383h11.301v-2.67h-8.013V17.82h6.986V15.15h-6.986v-3.082h7.808V9.294h-11.096zm26.404 14.486l-3.082-4.726c1.747-.822 2.671-2.466 2.671-4.623 0-3.185-2.157-5.034-5.959-5.034h-6.267V23.78h3.288v-4.11h3.39l2.261 4.11h3.698zm-9.452-11.712h2.98c1.849 0 2.876.822 2.876 2.363 0 1.644-1.027 2.466-2.876 2.466h-2.98v-4.83zm24.041 11.712l-3.082-4.726c1.747-.822 2.671-2.466 2.671-4.623 0-3.185-2.157-5.034-5.959-5.034h-6.267V23.78h3.288v-4.11h3.39l2.261 4.11h3.698zm-9.349-11.712h2.979c1.85 0 2.877.822 2.877 2.363 0 1.644-1.027 2.466-2.877 2.466h-2.979v-4.83zm14.383 5.65V9.294h-3.287v8.424c0 3.802 2.568 6.165 6.575 6.165s6.473-2.363 6.473-6.165V9.294h-3.288v8.424c0 2.055-1.336 3.288-3.185 3.288s-3.288-1.233-3.288-3.288zm12.637-8.424v14.383h2.98V14.02l3.904 8.219h2.157l3.905-8.22v9.761H224V9.397h-3.699l-4.212 8.835-4.212-8.835h-3.802v-.103z"/><path d="M9.788 12.89c.925.822 1.438 2.157 1.438 3.904v6.575H8.043v-1.438c-.617 1.13-1.85 1.644-3.494 1.644-.924 0-1.643-.206-2.363-.411-.616-.309-1.13-.72-1.438-1.336-.308-.514-.514-1.13-.514-1.747 0-1.13.411-1.952 1.233-2.568.822-.617 2.055-.925 3.802-.925h2.67c0-.719-.205-1.233-.718-1.644-.514-.41-1.13-.616-2.055-.616a5.82 5.82 0 0 0-1.85.308c-.616.206-1.027.411-1.438.822L.644 13.095c.617-.41 1.336-.822 2.26-1.027.925-.206 1.85-.309 2.775-.309 1.746-.102 3.185.309 4.11 1.13zm-2.877 8.013a1.69 1.69 0 0 0 .925-1.232v-1.233h-2.26c-1.336 0-2.055.41-2.055 1.335 0 .411.206.72.514 1.028a2.57 2.57 0 0 0 1.335.41c.617.103 1.13-.102 1.541-.308zM26.33 7.444V23.37h-3.186v-1.335c-.821 1.027-2.054 1.54-3.595 1.54-1.13 0-2.055-.205-2.98-.719-.925-.513-1.541-1.233-2.055-2.054-.513-.925-.822-1.952-.822-3.083 0-1.233.309-2.26.822-3.082.514-.924 1.233-1.644 2.055-2.055.925-.513 1.85-.719 2.98-.719 1.438 0 2.67.514 3.493 1.439V7.444h3.287zM22.116 19.98c.514-.617.822-1.336.822-2.363 0-.925-.308-1.747-.822-2.363-.514-.617-1.233-.822-2.158-.822-.821 0-1.54.308-2.157.822-.514.616-.822 1.335-.822 2.363 0 .924.308 1.746.822 2.363.514.616 1.336.822 2.157.822.925 0 1.644-.309 2.158-.822zM34.548 8.37v15h-3.493V11.142h-2.98V8.37h6.473zM37.734 22.958c-.411-.41-.617-.924-.617-1.54 0-.617.206-1.131.617-1.542a2.028 2.028 0 0 1 1.438-.617c.616 0 1.13.206 1.438.617.411.41.617.822.617 1.541 0 .616-.206 1.13-.617 1.541-.41.411-.924.617-1.438.617-.616 0-1.13-.206-1.438-.617zM48.418 12.068c.719-.309 1.438-.411 2.363-.411v3.082h-.822c-.925 0-1.747.205-2.26.822-.514.514-.822 1.335-.822 2.466v5.445h-3.39v-11.61h3.184v1.541c.514-.616 1.028-1.027 1.747-1.335zM64.651 11.862V23.37h-3.185v-1.335c-.41.513-.924.924-1.644 1.13-.616.205-1.335.41-1.952.41-1.54 0-2.773-.41-3.595-1.335-.925-.822-1.336-2.158-1.336-3.904v-6.473h3.39v6.062c0 1.85.822 2.774 2.363 2.774.822 0 1.439-.206 1.952-.822.514-.514.72-1.336.72-2.363v-5.65h3.287zM83.391 10.07l-1.816 1.817L93.2 23.51l1.816-1.816L83.39 10.07z"/><path d="M93.387 10.101L81.764 21.725l1.816 1.816 11.623-11.623-1.816-1.817z"/></g></svg>