<svg width="126" height="16" fill="none" xmlns="http://www.w3.org/2000/svg"><path fill-rule="evenodd" clip-rule="evenodd" d="M8.442 0C3.637 0 0 3.393 0 7.977 0 12.54 3.637 16 8.442 16s8.443-3.483 8.443-8.023C16.885 3.416 13.247 0 8.442 0zm.045 3.102c2.627 0 4.76 2.112 4.76 4.876 0 2.764-2.133 4.921-4.76 4.921s-4.85-2.157-4.85-4.921c0-2.764 2.2-4.876 4.85-4.876zM19.056.112v15.73h3.548V9.889h7.095V6.92h-7.095V3.056h7.724L30.35.113H19.056zm13.225 0v15.73h3.547V9.889h7.095V6.92h-7.095V3.056h7.724l.023-2.943H32.28zm13.224 0v15.73H57.72V12.9h-8.667V9.416h7.567V6.472h-7.567V3.056h8.42V.112H45.505zm28.48 15.73l-3.346-5.19c1.909-.9 2.942-2.652 2.942-5.08 0-3.482-2.335-5.46-6.444-5.46H60.31v15.73h3.547v-4.494h3.615l2.493 4.495h4.019zM63.858 3.057h3.279c1.953 0 3.076.876 3.076 2.629 0 1.798-1.123 2.696-3.076 2.696h-3.279V3.057zm26.02 12.786l-3.346-5.19c1.908-.9 2.941-2.652 2.941-5.08 0-3.482-2.335-5.46-6.444-5.46h-6.826v15.73h3.548V11.35h3.615l2.492 4.494h4.02zM79.75 3.057h3.278c1.954 0 3.076.876 3.076 2.629 0 1.798-1.123 2.697-3.076 2.697h-3.278V3.057zm15.524 6.201V.112h-3.548v9.146c0 4.158 2.785 6.742 7.14 6.742 4.334 0 7.051-2.584 7.051-6.742V.112h-3.548v9.146c0 2.27-1.392 3.64-3.502 3.64-2.111 0-3.593-1.37-3.593-3.64zM108.936.113v15.73h3.21V5.237l4.177 9.01h2.312l4.177-9.01v10.606H126V.113h-3.952l-4.558 9.618-4.58-9.618h-3.974z" fill="#fff"/></svg>