<svg xmlns="http://www.w3.org/2000/svg" viewBox="0 0 128 128"><path d="M0 17.2V1.8C0 .8.8 0 1.8 0h15.4c1 0 1.8.8 1.8 1.8v15.4c0 1-.8 1.8-1.8 1.8H1.8c-1 .1-1.8-.8-1.8-1.8zM73.6 1.8v15.4c0 1-.8 1.8-1.8 1.8H56.3c-1 0-1.8-.8-1.8-1.8V1.8c0-1 .8-1.8 1.8-1.8h15.4c1.1 0 1.9.8 1.9 1.8zm52.6 17.3h-15.4c-1 0-1.8-.8-1.8-1.8V1.8c0-1 .8-1.8 1.8-1.8h15.4c1 0 1.8.8 1.8 1.8v15.4c0 1.1-.8 1.9-1.8 1.9zM1.9 54.5h15.4c1 0 1.8.8 1.8 1.8v15.4c0 1-.8 1.8-1.8 1.8H1.9c-1 0-1.8-.8-1.8-1.8V56.3c-.1-1 .7-1.8 1.8-1.8zm52.6 17.2V56.3c0-1 .8-1.8 1.8-1.8h15.4c1 0 1.8.8 1.8 1.8v15.4c0 1-.8 1.8-1.8 1.8H56.3c-1 0-1.8-.8-1.8-1.8zm73.6-15.4v15.4c0 1-.8 1.8-1.8 1.8h-15.4c-1 0-1.8-.8-1.8-1.8V56.3c0-1 .8-1.8 1.8-1.8h15.4c.9 0 1.8.8 1.8 1.8zM17.2 128H1.8c-1 0-1.8-.8-1.8-1.8v-15.4c0-1 .8-1.8 1.8-1.8h15.4c1 0 1.8.8 1.8 1.8v15.4c.1 1-.8 1.8-1.8 1.8zm54.5.1H56.3c-1 0-1.8-.8-1.8-1.8v-15.4c0-1 .8-1.8 1.8-1.8h15.4c1 0 1.8.8 1.8 1.8v15.4c0 1-.8 1.8-1.8 1.8zm37.3-1.9v-15.4c0-1 .8-1.8 1.8-1.8h15.4c1 0 1.8.8 1.8 1.8v15.4c0 1-.8 1.8-1.8 1.8h-15.4c-1 0-1.8-.8-1.8-1.8z" fill="#475db0"/></svg>