<svg id="Слой_1" xmlns="http://www.w3.org/2000/svg" viewBox="0 0 119.5 131.3"><style>.st0{fill:#475db0}</style><path class="st0" d="M119.5 65.6v59.2c0 2.3-1.5 3.7-3.1 5.1-1.6 1.4-3.5 1.2-5.4 1.2H20.8c-1.6 0-2.7-.8-3.7-1.7-.7-.6-1.4-1.4-1.8-2.2-.6-1.2-1.4-2.4-1.5-3.7-.1-7.7-.1-15.4-.1-23.2 0-1.7 1.8-3.4 3.5-3.4h3.5c3 .1 3.6 2.1 3.6 3.7.1 6.5 0 10.1 0 15.5 0 1.8 1 2.8 2.7 2.8h80.2c1.6 0 2.1-.4 2.1-2V14.2c0-1.7-.6-2.3-2.3-2.3H27.2c-1.7 0-2.8 1.2-2.8 2.9v16.4c0 1.2-1.4 2.7-2.7 2.7h-4.3c-2 0-3.6-1.6-3.6-3.5V8c0-2.4 1.2-4.3 2.9-5.9.8-.8 1.8-1.5 2.8-1.9.8-.2 2.7-.2 3-.2h90.1c1.8 0 3.9 1 5.1 2.2 1.4 1.4 1.9 3.3 1.9 5.4-.1 19.3-.1 38.6-.1 58z"/><path class="st0" d="M53.8 66.8c-.8-1.9-7.8-10.3-2.7-23 1.7-4 6.2-11.1 19.9-11.1 9.1.5 12.8 4.5 14.9 7.1 1.4 1.7 2.6 3.1 3.3 5.3 3.6 10.4-1.8 19.9-3.6 21.4 1 .7 3.4 2.5 4.4 3.4 2.5 2 4.1 4.7 5.5 7.6 1.3 2.6 2.4 5.9 2.3 8.9-.1 2.6 0 4.5 0 7.1 0 .7-.3.9-.9.9H43.3c-1.2 0-2-.2-2-1.5 0-3 0-6 .2-9 .1-1.3.3-2.6.8-3.8.5-1.4 1-2.9 1.9-4.1 1.5-2.1 2.1-3.3 4.9-5.8 1-1.2 3.7-2.6 4.7-3.4zm16.4-22.1c-7.4-.1-10.3 7.7-9.2 11.2.2.5 1.3 5.6 7.8 6.9 3.4.5 10.3-2 10.4-9.2 0-.8.2-8.6-9-8.9zm-13 38.1h25.9c.6 0 1-.6.7-1.1-5.1-12.2-22.7-11.2-27.5-.2-.3.6.2 1.3.9 1.3zm-42.1-30c-3.7 0-7.4.1-11.1-.1-1.1 0-4 .1-3.9-2.6v-7.9c0-2.4 2-2.4 6.4-2.4 6.1-.1 12.2-.1 18.3 0 4.6-.1 6.1.6 6 2.9v6.8c0 2.5-1.4 3.3-4.5 3.2-3.7.2-7.5.1-11.2.1zm.1 25h12.1c1.1 0 2.2.1 2.9 1.1.2.4.5.8.5 1.2.1 2 0 4.1 0 6.1 0 2.6-1.3 4-4 4.1-7.8.1-15.5 0-23.3 0-1.2 0-2.1-.2-2.9-1-.3-.2-.6-1-.6-1.4v-7.3c0-2.1.7-2.8 2.9-2.8h12.4zm-.1-6.3H3.2c-.6 0-1.3-.1-1.9-.3C.6 71 0 70 0 68.9c.1-2.5 0-4.5 0-7 0-1.4.7-2.3 2-2.6.7-.2 1.4-.2 2.1-.2H26c1.7 0 3.2.1 4.2 1.6.1.2.4.8.4 1 0 2.6.1 4.8 0 7.4 0 1.1-1 2.5-3.3 2.5-4-.1-8.1-.1-12.2-.1z"/></svg>