<svg id="Слой_1" xmlns="http://www.w3.org/2000/svg" viewBox="0 0 134 131.3"><style>.st0{fill:#475db0}</style><path class="st0" d="M67.4 131c-17 0-34.1-.1-51.1 0-3 0-5.5-.9-7.9-2.4-3.8-2.3-6.4-5.6-7.6-9.9-.3-1-.5-2-.5-2.9 0-33.2 0-66.4-.1-99.6 0-4 1.5-7.3 4-10.2C6.3 3.5 9 1.7 12.2.8c1-.3 2-.5 2.9-.5C41.9.3 68.7.3 95.5.2c3.1 0 5.6 1 8.1 2.5 3.5 2.2 6 5.3 7.2 9.2.6 1.9.9 4 .9 6 0 10.3-.1 20.6-.1 30.8 0 .9.3 1.2 1.2 1.2 1.5-.1 3-.1 4.6 0 6.4.2 11.1 3.2 14.4 8.5 1.5 2.5 2.2 5.2 2.2 8.2-.1 16.3-.1 32.6 0 48.8 0 3.5-1.2 6.4-3.2 9.1-2.1 2.9-4.9 4.9-8.3 5.9-1.1.3-2.2.5-3.3.5-17.2.2-34.5.1-51.8.1zm33.7-64.1c-.1-16.1-.1-32.3-.1-48.5 0-.7-.1-1.4-.2-2.1-.4-3.1-3.3-5.5-6.6-5.5-25.6.1-51.3.1-76.9 0-3.6 0-6.5 3-6.5 6.5v96.8c0 3.4 3 6.4 6.4 6.4h83.7c1 0 1-.4.8-1.2-.3-1.2-.7-2.4-.7-3.6.1-16.2.1-32.5.1-48.8zm10.7 21.4c.1 0 .1 0 0 0 .1 8.8.1 17.6.1 26.4v1.1c.9 3.1 3.4 4.9 6 4.6 2.9-.3 5.3-2.1 5.4-5.7.2-10.3.1-20.6.1-30.8 0-5.9 0-11.8-.1-17.6-.1-2.4-1.6-4-3.7-5-2.3-1.1-4.8-.6-7.2-.7-.2 0-.7.6-.7.9.1 8.9.1 17.9.1 26.8z"/><path class="st0" d="M55.9 70.3c-10 0-20-.1-30 0-3.9.1-6.2-2.9-6.2-6.2.1-11.5 0-23 0-34.6 0-2.4 1-4.2 3-5.3.7-.4 1.7-.6 2.5-.6h61.2c3.2 0 5.7 2.4 5.6 6v25.6c0 3-.1 6 0 9 .2 3.6-2.2 6.2-6.2 6.1-9-.1-18.1 0-27.1 0h-2.8zm.1-10.5h24c1 0 1.5-.2 1.5-1.4-.1-7.4 0-14.9 0-22.3 0-1.6-.1-1.6-1.6-1.6h-48c-.8 0-1.5 0-1.5 1.2v22.2c0 2 0 2 2 2 7.8-.1 15.7-.1 23.6-.1zm-.2 46H25.6c-3.3 0-5.9-2.4-5.9-5.4 0-3.1 2.5-5.4 5.9-5.4 6.9 0 13.8.1 20.8.1h32c3 0 5.9 0 8.9.1 2.2 0 3.6 1.3 4.4 3.2 1 2.2.4 4.1-1.3 5.8-1.2 1.2-2.8 1.6-4.5 1.6H55.8zm.2-17.2H25.8c-3 0-4.8-1.2-5.8-4-.8-2.4 1.1-5.9 3.6-6.4.8-.2 1.7-.2 2.5-.2 17.4 0 34.9 0 52.3.1 3.1 0 6.2 0 9.2.1 3.1.1 5.8 4.3 3.6 7.8-1.1 1.7-2.7 2.6-4.7 2.6H56z"/></svg>