<svg xmlns="http://www.w3.org/2000/svg" viewBox="0 0 178.1 134.3"><path d="M78.6 126.5c-1.2 1.2-2.6 2.3-4.1 3-1.9 1-4.1 1.5-6.2 1.4-1.8-.1-2.2.2-5.4-.7-4-1.3-6.3-3.5-7.8-7.2-.3-.6-.5-1.3-.8-1.9-.6-1-1.4-1.7-2.6-2-4.4-1.1-7.2-4-8.3-8.4-.4-1.6-1.6-2.8-3.2-3.2-4.5-1.1-7.4-4-8.4-8.6-.3-1.1-.9-1.9-1.8-2.3-.9-.5-1.9-.8-2.8-1.2-4.7-2.1-7.2-5.6-7.2-11-.1-4.4.7-8.3 3.6-11.7.3-.3.4-.8.6-1.2.7-1.3.2-2.6 0-3.9-1-4.8-1.9-9.6-2.9-14.4-1-4.8-3.7-8.6-7.4-11.8-3.8-3.4-7.4-6.9-11.1-10.3C1 29.4 0 27.9 0 25.3c0-.7-.2-6.8 7.2-6 1.2.1 2.9 1.1 3.7 1.9 4.6 4.7 9.3 9.4 14 14 .1.1.2.1.4.3.3-.3.5-.7.8-1C35.9 24.8 45.7 15 55.4 5.2c3-3 6.5-4.4 10.7-4.5 3.7-.1 7.2.6 10.6 2 3.9 1.6 8.1 2.7 12.2 3.9.4.1 1 .1 1.5-.1 4.1-1.6 8.2-3.4 12.4-5 1.3-.5 5-1.6 9.7-1.4 3.4.1 6.4 1.7 8.7 4 10 10.1 20 20.3 30.1 30.4.3.3.5.7.9 1.1l8.3-8.3c2.2-2.2 4.5-4.4 6.7-6.6 1.7-1.6 6.3-3.6 9.7.4 2.7 3.6.5 7.1-1.1 8.7-2.8 2.7-5.6 5.2-8.3 7.9-9.7 9.7-18.1 20.5-25.9 31.8-1.5 2.1-2.9 4.2-4.4 6.4-.1.1-.1.2-.2.4 3.4 4 3.5 8.7 2.8 13.6-.6 4.2-3.3 6.9-7.2 8.4-.5.2-1.1.3-1.6.5-1.6.6-2.8 1.7-3.1 3.3-.9 4.5-3.9 7-8.1 8.1-1.6.4-2.9 1.7-3.3 3.3-1.1 4.4-3.9 7.2-8.2 8.4-1.8.5-2.8 1.6-3.4 3.3-.8 2.3-2 4.4-3.8 6-2 1.7-4.2 2.6-6.9 2.6-1.9 0-3.8.1-5.6-.1-3.6-.5-6.4-2.6-8.6-5.3-.3-.3-.6-.7-.8-1-.1-.1-.2-.4-.6-.9zM74.4 13.6L69 11.8c-1-.4-2.8-.7-3.5 0-1.4 1.4-2.6 2.2-4 3.6C51.7 25.2 42.8 34 33 43.8c-.4.4-1.3 1.7-1.6 2.3-.2.4.1 2.2.2 2.6 1 5.1 2 10.3 3 15.4.3 1.3 1.3 2.2 2.6 2.2h2.7c4 .2 7.2 1.7 9 5.5.5 1.1 1 2.3 1.4 3.5.4 1.4 1.3 2.2 2.7 2.5 4.4 1 7.3 3.7 8.6 8.1l.3 1.2c.4 1.2 1.1 2 2.5 2.2 3.4.7 6.1 2.4 7.7 5.6.6 1.1.9 2.3 1.3 3.5.3 1.1 1.1 2 2.2 2.4 2.1.8 4 1.9 6 2.9.2.1.4.3.7.5.1-1.3 1.1-3.8 3.4-4.6 2-.7 2.8-.2 4.5.1.9.3 1.7.7 2.3 1.3 3.2 3.2 6.2 6.4 9.4 9.6 1.4 1.4 1.7 1.3 3.1-.1 1.2-1.2 1.2-1.4.1-2.7-.3-.4-.9-1-1.3-1.4-2.2-2.1-4.5-4.1-6.7-6.2-3.8-3.5-3.7-4.7-3.4-8 .2-2.2 1.6-3.3 3.5-4 1.7-.5 3.1-.4 4.8 0 .6.2 1.4.5 1.9 1 1.9 1.9 3.7 3.8 5.5 5.7 1.5 1.6 3.1 3.1 4.7 4.7.3.3.9.5 1.2.3 2-.8 2.3-2.1 1-3.8-.2-.3-.4-.6-.7-.8-2.5-2.4-4.8-4.9-7.5-7-2.5-1.9-3.4-4.2-3-7.2V81c.5-2.5 2.4-3.9 4.5-4.4 1-.2 2.2-.1 3.2.1.9.1 1.8.5 2.4 1 1.8 1.7 3.5 3.6 5.2 5.4 1.7 1.7 3.4 3.4 5.1 5 .3.2.9.5 1 .3 1.2-.2 1.9-.8 2.1-2.2.1-.2-.3-.9-.6-1.4-.2-.4-.7-.9-1-1.2-9.5-9.5-19-18.9-28.4-28.4-1.3-1.3-2.5-2.1-4.7-1.9-5.6.5-11.1-.3-16.2-3-.3-.1-.9 0-1.1.2-2.7 2.8-5.6 5.5-8.1 8.5-6.2 6.2-10.1 6.2-16.4 5.4-4.9-.6-10.2-7.3-9.8-12.8.2-3.9 1.6-7.8 4.3-10.6 3.2-3.3 6.4-6.6 9.7-9.8 6.2-5.9 12.1-11.6 18.1-17.6zm69.8 32.2c-.6-.7.2.3-3-3.3-3.1-3.4-20.8-20.2-28.3-28-2-2.1-2.9-2.9-4.1-2.4-7.8 3.1-15.6 6.1-23.4 9.1-3.6 1.4-6.6 4.3-9.7 7.3C70.2 33.8 64 39.7 61 43c-2.6 2.8-4 4.5-6.4 7.4-.4.5-.5 1.4-.1 1.9 1.3 1.7 2 1.8 3.7.3 0 0 .1 0 .1-.1 3.8-3.8 7.7-7.4 11.2-11.3 2.6-2.9 5.5-4.4 9.7-3.6 1.3.2 3.1 1.2 4.1 2 2.2 1.8 4.9 2.7 7.7 3.2.5.1 1.4.1 2 0 3.6-.7 6.5-2.7 9.1-5.2 1.1-1.1 5.7-3.8 9.3-.2 2.9 2.8 1.1 6.6-.2 8l-1 1c-.3.2-1.4 1.1-1.4 1.2 6.7 6.7 13.3 13.2 19.8 19.8 4.9-7 10.6-14.6 15.6-21.6zm-60.1 63.7c1.6 3.9 0 5.1 1 6.9 1.5 2.5 4.1 4.7 6.3 6.4.3.2.9.1 1.2 0 .4-.2.7-.6 1.1-.9.6-.5.7-1.4.2-2-1.6-1.8-3.2-3.5-4.9-5.2-1.2-1.3-3.5-3.8-4.9-5.2zM44.5 97.1c.4.3.9 0 1.1-.2 1.7-1.5 3.5-2.8 5-4.4 1.2-1.3 1.1-1.8-.1-3.1-.2-.2-.4-.4-.7-.6-.6-.6-1.2-.6-1.9-.1-2 1.4-3.6 3.1-4.8 5.1-.3.4-.5 1.2-.4 1.4.6.9 1.1 1.3 1.8 1.9zm28.1 14.4c-.5-.1-.8.1-1 .2-2.3 1.4-4.1 3.2-5.6 5.3-.7 1-.3 2 .3 2.6.6.6 1.4 1 2.5.3 2.2-1.3 3.9-3 5.2-5.1.3-.4.5-.9.3-1.4-.3-.8-.8-1.5-1.7-1.9zM39.7 78.9c-.3-.5-1-1.2-1.7-1.7-.3-.2-1.1-.1-1.5.2-2 1.2-3.4 2.9-4.8 4.7-.6.9-.6 1.6.2 2.3l.7.7c.5.6 1.1.6 1.8.2 2.1-1.3 3.8-3.1 5-5.3.1-.3.4-.7.3-1.1zm22.5 22.9c-.6-.8-.6-.7-1.2-1.1-.3-.2-.9-.2-1.3 0-1.9 1.1-3.5 2.5-4.7 4.4-1.1 1.6-1 1.9.4 3.2.8.7 1.4.7 2.3 0 1.9-1.5 3.3-3.1 4.6-5.5 0-.2.1-.7-.1-1z" fill="#475db0"/></svg>