<svg xmlns="http://www.w3.org/2000/svg" viewBox="0 0 93.9 131.3"><path d="M29.8.1c.8.4 1.6.6 2.3 1.1 2.1 1.5 1.9 4 2.3 6.1.5 3.3.9 6.7 1.2 10 .4 4.8 1.4 9.7 1 14.6-.2 1.9-2.1 3.7-4 3.7h-4v36.5h15.3c1.2 0 1.8.6 1.8 1.6.1 3.3.1 6.5 0 9.8 0 1.1-1.1 1-1.8 1.1-1.4.1-2.8 0-4.3 0 0 .6-.1.9-.1 1.3.1 8.9.2 17.8.2 26.8 0 3 0 6-.4 9-.3 2.1-1.4 4-3.1 5.6-2 1.9-4.3 3.1-7 3.2-4 .2-8 .3-11.9.1-5.7-.3-10.2-4.7-10.5-10.6-.4-6.6-.4-13.3-.5-19.9-.1-4.9 0-9.8 0-15-1.4-.1-2.5.1-3.7 0-2-.1-2.6-.9-2.6-2.9 0-2.2.1-4.5 0-6.7 0-3.1.5-3.2 2.1-3.2h14.4V35.6c-1.5 0-2.8-.1-4.1 0-2.4.2-4.5-2.3-4.4-4.2.1-3.1.3-6.1.6-9.2.1-1.9.4-3.8.6-5.7.3-3.1.5-6.1.8-9.2.1-1.4.2-2.9.6-4.2C11 1.9 11.9 1 13.2.6c.4-.1.9-.3 1.3-.5h15.3zM18.1 85c0 .3-.1.5-.1.7l.3 30.5c0 1.1.8 1.9 2 1.9 1.8 0 3.6.1 5.3 0 .7 0 1.4-.4 2-.9.5-.4.4-1.9.4-2.9 0-9.3-.1-18.6-.2-27.9v-1.3c-3.3-.1-6.5-.1-9.7-.1zM23 11.3c-1.2-.4-1.5.1-1.6 1.1-.1 1.2-.2 2.3-.3 3.5-.3 2.4-.5 4.7-.8 7.2h4c-.4-4-.9-7.9-1.3-11.8zm58.9 84.6c2.1.3 3.4.5 5 1 6 2.3 7 9 7 11.2.1 6.9.1 13.8.1 20.6 0 1.3-.7 1.9-2 1.9h-8.3c-1 0-1.6-.6-1.7-1.5-.2-1.3-.2-2.5-.2-3.8v-13.4c0-1.9-.6-2.7-2.5-2.8-2.4-.1-4.8 0-7.3.1-1.6.1-2.2.8-2.2 2.4v17c0 1.3-.4 1.9-1.7 1.9-2.8 0-5.7.1-8.5 0-1.6-.1-2.1-.9-2.1-2.6.1-5 0-10 .1-15 0-2.5-.1-5 .3-7.4.5-2.8 2.2-5 4.3-6.9 2.1-1.8 4.5-2.7 7.3-3 0-.4.1-.8.1-1.2V32.6c0-.8-.2-1.1-1.1-1.3-1.2-.2-2.3-.6-3.4-1.1-2.2-1-2.8-1.6-3.9-2.7-2.4-2.3-3.5-5.3-3.6-8.6-.1-5.4 0-10.8 0-16.2v-.1c0-2.1 0-2.2 2.2-2.3 2.6-.1 5.2-.1 7.8 0 1.3 0 2 .8 2 2.2.1 4.2.1 8.5.2 12.7 0 2 .9 2.9 2.9 2.9H79c1.6 0 2.8-1.2 2.8-2.9V2.3c0-1.4.5-2 2-2h8.4c1.1 0 1.6.6 1.6 1.6 0 6.2.3 12.5-.1 18.7-.3 3.9-2.3 7.3-6.1 9.1-1.5.7-3.2 1.1-4.9 1.6-.6.2-.8.4-.8 1.1.1 11.5.1 23 .1 34.4 0 8.9 0 17.7.1 26.6-.2 1-.2 1.9-.2 2.5z" fill="#475db0"/></svg>