<svg id="Слой_1" xmlns="http://www.w3.org/2000/svg" viewBox="0 0 141.6 130.7"><style>.st0{fill:#475db0}</style><path class="st0" d="M97.2 96.9c2.8-1.3 5.6-2.3 8.1-3.7 5.5-3 7.5-4.5 13-7.5 2.4-1.3 4.4-2.3 8.3-3.8 3.2-.7 7.6-.2 10.2 2 1 .8 2.1 2.1 2.9 3.2 3.9 5.5.9 13.2-3.2 16-7.3 5-13 9.6-20.4 14.4-4.4 2.8-8.8 6.1-13.4 8.6-2.8 1.5-5.8 2.7-8.8 3.7-1.9.6-4 .8-6 .8-12.5-.2-24.9-.4-37.4-.7-6.3-.2-12.5-.7-18.8-.9-3.1-.1-8.3.1-11.4.4-5.1.5-10.2.8-15.4.7-2.7-.1-4.9-2.4-5-5.1V91.1c0-1.5.3-2.6 1.9-3.2 1.8-.6 3.6-1.4 5.4-2.1l5.4-2.1c4.7-1.8 9.3-3.9 14.5-3.6 4.3.3 8.6 0 12.9.3 2.4.1 4.7.8 7 1.3 2.5.5 5 1.1 7.5 1.8 2.1.6 4.1 1.3 6.1 1.9 1.5.4 3 .9 4.5.9 7.5.2 15-.1 22.5.3 3.8.2 7 2.1 9 5.7.3.5.6 1.6.6 2.1.3 1 .2 1.8 0 2.5zm31.2-3.5c-1.3.2-2.4 1-3.4 1.5-5.1 2.5-11.3 5.4-17.9 9.4-5 3-9.8 5.3-15.1 6.9-.2.1-.5.1-.8.1-10.5 0-20.9.1-31.4 0-1.8 0-3.3-1.5-3.4-3.3v-4c0-1.8 1.4-3.2 3.2-3.3 1.4-.1 2.9-.2 4.3-.2h17.9c1.1 0 3.9-.2 4.1-1.6.2-1.9-3.1-1.7-4.4-1.7-5.4-.1-10.9 0-16.3-.1-3 0-6 .3-9-.7-1.5-.5-2.9-1-4.4-1.4-2.1-.5-4.2-1.3-6.3-1.8-1.6-.4-3.2-.8-4.9-1-2.8-.5-5.6-1-8.4-1.2-4-.3-7.8.9-11.4 2.4-3.4 1.4-6.9 2.7-10.4 4V119c.4 0 .8-.1 1.1-.1 3.5-.3 6.9-.8 10.4-.8 13.2 0 26.3-.1 39.5 1 5.8.5 11.6.5 17.3.2 4.1-.2 8.2.7 12.1-1.1 2.1-.9 4.3-1.7 6.3-2.7 2.6-1.4 5.2-2.9 7.7-4.5 2.9-1.8 5.8-3.7 8.7-5.6.1-.1 1.6-1.1 2.3-1.6 3.7-2.3 7.4-4.6 11.1-7 .9-.6 1.8-1.1 2.4-2.1.4-.6-.1-1.4-.9-1.3zM42.9 27c-1.3-1.3-2.6-2.5-4-3.8-1-1-1.5-2.1-1.5-3.5.1-5.3-.6-4 3.2-7.8 2.3-2.3 4.7-4.6 6.9-7 .9-.9 1.9-1.4 3.2-1.3 5.8.1 4.1-.7 8.4 3.5.6.6 1.2 1.3 1.8 1.9.1-.1.2-.1.3-.2 0-1.4.1-2.9 0-4.3-.3-2.9 2-4.4 4.2-4.5 5-.1 9.9-.1 14.9 0 1.4 0 2.8.5 3.6 1.8.3.5.6 1.1.6 1.7.1 1.7 0 3.3 0 5 .2.1.3.1.5.2 1.1-1.2 2.3-2.4 3.4-3.6 1-1.1 2.2-1.7 3.8-1.6 5.4.2 3.9-.7 7.9 3.3 2.3 2.2 4.4 4.5 6.7 6.7 1 1 1.4 2.1 1.5 3.5.4 3.5-.7 6.1-3.5 8.2-.7.5-1.3 1.1-1.9 1.7.1.1.1.3.2.4h6.2c2.3 0 3.8 1.4 3.8 3.7v16c0 2.3-1.5 3.7-3.8 3.7h-6.1c0 .1-.1.2-.1.3 1.1 1.1 2.2 2.3 3.4 3.4 1.3 1.1 1.9 2.4 1.8 4.2-.2 4.9.7 3.5-3.1 7.4-2.4 2.4-4.8 4.7-7.1 7.1-.9.9-1.9 1.4-3.2 1.3-1-.1-2-.1-3 0-1.3.1-2.3-.4-3.2-1.3-1.3-1.3-2.5-2.6-3.8-3.8-.1 0-.3 0-.4.1v4.4c0 2.5-1.3 3.8-3.8 3.8H64.6c-1.9 0-3.4-1.5-3.4-3.5v-4.7c0-.1-.1-.1-.2-.5-1.3 1.4-2.5 2.6-3.7 3.9-1.1 1.2-2.3 1.8-4 1.7-4.8-.2-3.6.7-7.5-3.2-2.3-2.3-4.7-4.7-7.1-7-.9-.9-1.4-2-1.4-3.3.1-5.4-.6-4.1 3.3-8 .6-.6 1.3-1.2 2-1.8-.1-.1-.1-.3-.2-.4-2 0-4-.1-6 0-1.4.1-2.5-.5-3.2-1.6-.3-.5-.6-1.1-.6-1.6 0-5.6-.1-11.2 0-16.8 0-1.9 1.6-3.2 3.5-3.3h6.3l.5-.5zm32 41.1v-8.8c1.5-.4 3-.5 4.2-1.1 2-.9 3.8-1.9 5.7-3 .8-.5 1.4-.6 2.2.2 1.4 1.6 3 3 4.5 4.5 2.3 2.3 2.3 2.3 4.3-.5-2.2-2.2-4.3-4.4-6.5-6.5-.7-.7-.7-1.2-.2-2 1.8-2.5 3-5.3 3.5-8.3.2-1.1.6-1.6 1.8-1.5 2.9.1 5.8 0 8.7 0V37H94c-.9 0-1.3-.4-1.5-1.2-.6-3.2-1.8-6-3.7-8.6-.5-.7-.4-1.1.2-1.7 2.2-2.1 4.3-4.3 6.5-6.4.2-.2.5-.5.5-.6-.8-.9-1.6-1.7-2.3-2.6-.4.3-.7.6-1 .9-2 2-4.1 4-6 6-.6.6-1.2.7-1.9.3-.5-.3-1-.6-1.4-.9-2.6-1.7-5.4-2.7-8.6-3.1v-8.7h-4.1v8.7c-3.6.3-6.7 1.6-9.5 3.6-1 .7-1.7.6-2.5-.3-2.1-2.2-4.3-4.3-6.5-6.5-.8.9-1.6 1.7-2.4 2.6.3.4.6.7.9 1 1.9 1.9 3.8 3.7 5.6 5.6.3.3.5.9.4 1.3-.4.9-1 1.7-1.4 2.6-.9 2.1-1.8 4.2-2.5 6.3-.4 1.1-.8 1.7-2 1.7-2.7-.1-5.5 0-8.2 0v4.1h8.5c1 0 1.6.5 1.7 1.3.6 3.4 2.3 6.4 3.9 9.3.1.3 0 .9-.2 1.2-1.9 2-3.9 3.9-5.8 5.9-.3.3-.6.6-.9 1 .9 1 1.7 1.9 2.5 2.8 2.2-2.2 4.4-4.4 6.5-6.6.6-.6 1.1-.8 1.9-.4 2.1 1 4.1 2.1 6.3 2.9 1.2.5 2.5.6 3.9.9v8.8c1.3-.1 2.6-.1 4-.1z"/><path class="st0" d="M72.9 22.6C82 22.6 89.3 30 89.3 39c0 9.1-7.4 16.5-16.5 16.4-9 0-16.4-7.4-16.4-16.5 0-9 7.4-16.4 16.5-16.3zm-.1 21.8c3 0 5.4-2.4 5.5-5.4 0-2.9-2.3-5.4-5.3-5.4-3-.1-5.5 2.3-5.5 5.3-.1 3 2.3 5.5 5.3 5.5z"/></svg>