<svg width="26" height="26" fill="none" xmlns="http://www.w3.org/2000/svg"><mask id="a" maskUnits="userSpaceOnUse" x="0" y="0" width="26" height="26"><circle cx="13" cy="13" r="13" fill="#C4C4C4"/></mask><g mask="url(#a)"><path fill="#fff" d="M0 0h26v26H0z"/><path d="M3.34 10.175l3.393-4.687.772.521-3.392 4.687-.772-.521zM2.238 9.43l3.391-4.686.773.521L3.01 9.952l-.772-.521zM1 8.686L4.392 4l.772.521-3.392 4.686L1 8.687z" fill="#000"/><path fill-rule="evenodd" clip-rule="evenodd" d="M4.248 15.304l3.391 4.687-.772.52-3.391-4.686.772-.52zm.304 2.874l-1.542-2.13-.772.521 1.53 2.115.784-.506zm.23.32L4 19.003l1.63 2.253.772-.521-1.62-2.237zm.517 2.981l-3.392-4.686-.772.52L4.526 22l.773-.521zm14.833-3.749l-1.637 2.26.773.522 1.637-2.264-.773-.519zm.231-.32l.774.519 1.522-2.104-.772-.52-1.524 2.105zm.964 1.122l-1.594 2.203.772.52 1.596-2.204-.774-.52zm1.005.2l-.773-.52 1.566-2.164.772.521-1.565 2.163zm.1.542l-1.596 2.205.772.521 1.598-2.207-.202-.135-.572-.384zm1.005.2l-.203-.136-.57-.384 1.564-2.161.772.52-1.563 2.16zm-.025-12.982L25 8.686l-.772.521-1.59-2.196.774-.52zm-.232-.32L21.608 4l-.772.52 1.571 2.171.773-.519zm.582 3.259l-3.391-4.687-.773.521 3.392 4.687.772-.521zM20.88 7.717l-1.613-2.229-.772.521 1.612 2.227.773-.52zm.231.32l-.773.519 1.549 2.14.772-.521-1.548-2.139z" fill="#000"/><mask id="b" maskUnits="userSpaceOnUse" x="7" y="7" width="12" height="12"><ellipse cx="5.787" cy="5.587" rx="5.787" ry="5.587" transform="translate(7.19 7.508)" fill="#0047A0"/></mask></g><g mask="url(#b)"><ellipse cx="5.787" cy="5.587" rx="5.787" ry="5.587" transform="translate(7.19 7.508)" fill="#0047A0"/><path d="M8.133 9.793c5.383-7.406 13.996 2.003 10.026 5.901.538-4.781-4.441-4.158-5.249-2.469-.346.726-2.126 1.676-3.902.585-1.777-1.091-1.391-3.172-.875-4.017z" fill="#CD2E3A"/></g></svg>