<svg width="26" height="26" fill="none" xmlns="http://www.w3.org/2000/svg"><mask id="a" maskUnits="userSpaceOnUse" x="0" y="0" width="26" height="26"><circle cx="13" cy="13" r="13" fill="#C4C4C4"/></mask><g mask="url(#a)"><path fill="#E30A17" d="M0 0h26v26H0z"/><path fill-rule="evenodd" clip-rule="evenodd" d="M15.9 8.683a5.277 5.277 0 0 0-3.485-1.322c-3.013 0-5.456 2.568-5.456 5.736 0 3.168 2.443 5.736 5.456 5.736a5.245 5.245 0 0 0 3.023-.96C14.228 19.185 12.534 20 10.658 20 6.981 20 4 16.866 4 13s2.981-7 6.658-7c2.129 0 4.023 1.05 5.242 2.683z" fill="#fff"/><path d="M18.295 9.57l1.563 2.175 2.45-.891-1.484 2.235 1.563 2.174-2.48-.793-1.484 2.235-.049-2.725-2.48-.794 2.45-.89-.05-2.726z" fill="#fff"/></g></svg>