<svg width="58" height="70" viewBox="0 0 58 70" fill="none" xmlns="http://www.w3.org/2000/svg"><path d="M15.125 14.03c-.605 0-1.096.49-1.096 1.095a2.414 2.414 0 0 1-2.411 2.412 2.414 2.414 0 0 1-2.411-2.412 2.414 2.414 0 0 1 2.41-2.411 1.096 1.096 0 0 0 0-2.192 4.609 4.609 0 0 0-4.602 4.603 4.609 4.609 0 0 0 4.603 4.604 4.609 4.609 0 0 0 4.603-4.604c0-.605-.49-1.096-1.096-1.096zm0 12.86c-.605 0-1.096.49-1.096 1.095a2.414 2.414 0 0 1-2.411 2.412 2.414 2.414 0 0 1-2.411-2.412 2.414 2.414 0 0 1 2.41-2.411 1.096 1.096 0 0 0 0-2.192 4.609 4.609 0 0 0-4.602 4.603 4.609 4.609 0 0 0 4.603 4.603 4.609 4.609 0 0 0 4.603-4.603c0-.605-.49-1.096-1.096-1.096zm12.86 2.338h-8.183a1.096 1.096 0 0 0 0 2.192h8.183a1.096 1.096 0 0 0 0-2.192zm0-4.677h-8.183a1.096 1.096 0 0 0 0 2.192h8.183a1.096 1.096 0 0 0 0-2.192zm-2.338 17.536h-5.845a1.096 1.096 0 0 0 0 2.193h5.845a1.096 1.096 0 0 0 0-2.193zm2.338-4.676h-8.183a1.096 1.096 0 0 0 0 2.192h8.183a1.096 1.096 0 0 0 0-2.192zm10.522-21.044H19.802a1.096 1.096 0 0 0 0 2.192h18.705a1.096 1.096 0 0 0 0-2.192zM33.83 11.69H19.803a1.096 1.096 0 0 0 0 2.193H33.83a1.096 1.096 0 0 0 0-2.192zM15.125 39.75c-.605 0-1.096.49-1.096 1.095a2.414 2.414 0 0 1-2.411 2.412 2.414 2.414 0 0 1-2.411-2.412 2.414 2.414 0 0 1 2.41-2.411 1.096 1.096 0 0 0 0-2.192 4.609 4.609 0 0 0-4.602 4.603 4.609 4.609 0 0 0 4.603 4.604 4.609 4.609 0 0 0 4.603-4.604c0-.605-.49-1.096-1.096-1.096z" fill="#333"/><path d="M43.184 0H3.434A3.438 3.438 0 0 0 0 3.434v49.102a3.438 3.438 0 0 0 3.434 3.434H23.31a1.096 1.096 0 0 0 0-2.192H3.434a1.244 1.244 0 0 1-1.242-1.242V3.434c0-.685.557-1.242 1.242-1.242h39.75c.684 0 1.242.557 1.242 1.242v36.242a1.096 1.096 0 1 0 2.192 0V3.434A3.438 3.438 0 0 0 43.184 0z" fill="#333"/><path d="M53.532 44.446a4.043 4.043 0 0 0-2.843.8c-.642-1.078-1.736-1.842-3.003-1.969a4.045 4.045 0 0 0-2.842.8c-.642-1.078-1.737-1.842-3.003-1.969a4.05 4.05 0 0 0-2.238.42V28.57c0-1.133-.482-2.22-1.323-2.98a4.037 4.037 0 0 0-3.106-1.018c-2.023.202-3.608 2.032-3.608 4.165V42.73l-3.222 3.222a6.898 6.898 0 0 0-1.849 6.498l2.446 10.396A9.244 9.244 0 0 0 37.974 70h9.886c5.117 0 9.28-4.163 9.28-9.28V48.612c0-2.134-1.585-3.963-3.608-4.166zm1.416 16.274a7.096 7.096 0 0 1-7.088 7.088h-9.885a7.06 7.06 0 0 1-6.9-5.465L28.63 51.948a4.72 4.72 0 0 1 1.265-4.447l1.672-1.671v3.784a1.096 1.096 0 1 0 2.192 0V28.737c0-1.021.718-1.893 1.635-1.984a1.831 1.831 0 0 1 2.019 1.817v19.29a1.096 1.096 0 0 0 2.192 0v-1.753a1.83 1.83 0 0 1 2.019-1.818c.916.092 1.634.963 1.634 1.984v2.756a1.096 1.096 0 1 0 2.192 0v-1.754a1.83 1.83 0 0 1 2.02-1.817c.916.092 1.634.963 1.634 1.984v2.756a1.096 1.096 0 0 0 2.192 0v-1.754a1.83 1.83 0 0 1 2.019-1.817c.916.092 1.634.963 1.634 1.984V60.72z" fill="#333"/></svg>