<svg width="70" height="70" viewBox="0 0 70 70" fill="none" xmlns="http://www.w3.org/2000/svg"><path d="M68.904.33H1.096C.491.33 0 .823 0 1.431v66.964c0 .608.49 1.102 1.096 1.102h67.808c.605 0 1.096-.493 1.096-1.102V1.431c0-.608-.49-1.1-1.096-1.1zm-1.096 66.964H2.192V16.63h65.616v50.664zm0-52.866H2.192V2.533h65.616v11.895z" fill="#333"/><path d="M58.382 5.03h-12.86c-.605 0-1.096.492-1.096 1.1 0 .609.49 1.102 1.096 1.102h12.86c.605 0 1.096-.493 1.096-1.101s-.49-1.102-1.096-1.102zm5.846 0H61.89c-.606 0-1.096.492-1.096 1.1 0 .609.49 1.102 1.096 1.102h2.338c.605 0 1.096-.493 1.096-1.101s-.491-1.102-1.096-1.102zM36.17 3.855a4.57 4.57 0 0 0-1.535.264l-.003.002a4.632 4.632 0 0 0-3.066 4.36 4.633 4.633 0 0 0 3.065 4.36l.004.002c.494.175 1.01.264 1.534.264 2.538 0 4.603-2.075 4.603-4.626 0-2.55-2.064-4.626-4.603-4.626zm0 7.049c-.276 0-.546-.047-.805-.139a2.427 2.427 0 0 1 0-4.569c.259-.092.53-.138.804-.138a2.42 2.42 0 0 1 2.412 2.423 2.42 2.42 0 0 1-2.412 2.423zM23.31 3.855c-2.54 0-4.604 2.075-4.604 4.626 0 2.55 2.065 4.626 4.603 4.626s4.603-2.076 4.603-4.626c0-2.55-2.065-4.626-4.603-4.626zm0 7.049a2.42 2.42 0 0 1-2.412-2.423 2.42 2.42 0 0 1 2.411-2.423A2.42 2.42 0 0 1 25.72 8.48a2.42 2.42 0 0 1-2.41 2.423zM10.449 3.855c-2.538 0-4.603 2.075-4.603 4.626 0 2.55 2.065 4.626 4.603 4.626s4.603-2.076 4.603-4.626c0-2.55-2.065-4.626-4.603-4.626zm0 7.049A2.42 2.42 0 0 1 8.038 8.48a2.42 2.42 0 0 1 2.411-2.423A2.42 2.42 0 0 1 12.86 8.48a2.42 2.42 0 0 1-2.411 2.423zm55.238 18.314l-11.573-11.63a1.092 1.092 0 0 0-1.55 0l-7.378 7.414H9.864c-.605 0-1.096.493-1.096 1.101s.491 1.101 1.096 1.101h33.13l-8.769 8.812-7.745 7.783H9.864c-.605 0-1.096.493-1.096 1.101s.491 1.101 1.096 1.101h14.424l-2.362 2.374-.004.004-.002.002-.01.01a1.238 1.238 0 0 0-.062.07l-.021.028c-.015.02-.03.039-.043.06-.01.012-.017.026-.025.04l-.03.051c-.01.018-.018.036-.026.054l-.02.043c-.01.022-.017.045-.025.068l-.011.034c-.01.029-.016.058-.023.088 0 .006-.003.01-.004.017v.003l-.001.004-2.716 13.645H9.864c-.605 0-1.096.493-1.096 1.101S9.26 64.8 9.864 64.8h10.802c.293 0 .558-.116.754-.304l4.79-.963h.007l8.26-1.66.003-.001.004-.001.019-.005a.885.885 0 0 0 .085-.022c.012-.003.023-.008.035-.012.022-.008.045-.015.066-.024l.045-.021.052-.025.051-.03.04-.025.059-.043.027-.021c.024-.02.047-.041.07-.063l.01-.01.003-.002c0-.002.002-.003.003-.004l.726-.73 15.08-15.154 6.565-6.596 8.267-8.307a1.106 1.106 0 0 0 0-1.558zM27.71 45.678l8.066-8.105 9.297-9.342 2.17 2.18L26.415 51.34l-2.17-2.18 3.464-3.482zm21.083-13.71l2.584 2.597-9.51 9.556-7.64 7.678-3.677 3.694-2.584-2.596L48.792 31.97zM21.199 62.294l.516-2.593 2.064 2.074-2.58.519zm5.163-1.038l-4.13-4.15 1.136-5.712 2.272 2.283 4.134 4.154 2.272 2.283-5.684 1.142zm22.944-17.134l-15.037 15.11-2.17-2.18 3.676-3.694 7.64-7.678 9.51-9.556 2.17 2.18-5.789 5.818zm7.34-7.375l-2.945-2.96-4.134-4.153-2.945-2.96 6.717-6.75 10.023 10.073-6.717 6.75z" fill="#333"/><path d="M53.896 22.974a1.092 1.092 0 0 0-1.55 0l-2.63 2.643a1.105 1.105 0 0 0 0 1.557 1.09 1.09 0 0 0 1.55 0l2.63-2.643a1.105 1.105 0 0 0 0-1.557z" fill="#333"/></svg>