<svg width="70" height="71" viewBox="0 0 70 71" fill="none" xmlns="http://www.w3.org/2000/svg"><path d="M62.491 29.59h-2.29V9.992L50.365.33H28.127v11.254H9.8V29.59H7.509v7.218l22.91 22.507v10.788h9.163V59.315l22.91-22.507V29.59zM51.037 7.082v-2.91l5.253 5.161h-5.253v-2.25zM30.418 2.581h18.328v2.25H32.709v2.251h16.037v2.251H32.709v2.25H57.91V29.59H41.873v-4.502h13.746v-2.25H41.873v-1.592l-.671-.66h14.417v-2.25H38.91l-2.291-2.25h18.999v-2.252h-21.29l-2.291-2.25h-1.62V2.58zm7.544 18.006H32.71v-4.501h.671l4.582 4.5zm-25.871-6.753h18.327v2.251H14.382v2.251h16.036v2.25H14.382v2.251h25.2v6.753H12.091V13.834zM60.2 35.216H49.89v2.251h8.69L37.29 58.383v9.469h-4.58v-9.469L11.42 37.467H47.6v-2.25H9.8V31.84h50.4v3.376z" fill="#333"/><path d="M37.29 25.088H14.382v2.25h22.91v-2.25zM17.818 48.72h-2.291v2.251h2.29v-2.25zm0 14.403v-9.9h-2.291v11.4l-4.582 3.002-4.582-3.002V46.47h-2.29v16.653L1.27 61.29 0 63.16l10.945 7.17 10.945-7.17-1.271-1.872-2.801 1.834zM6.363 41.969h-2.29v2.25h2.29v-2.25z" fill="#333"/><path d="M12.09 53.222H9.8v11.253h2.29V53.222zm0-4.502H9.8v2.251h2.29v-2.25zm42.383 2.252h-2.291v2.25h2.29v-2.25zm14.255 10.317l-2.8 1.834V48.721h-2.291v15.902l-4.582 3.002-4.582-3.002v-9.15h-2.29v7.65L49.38 61.29l-1.27 1.87 10.945 7.169L70 63.161l-1.272-1.872zm-2.8-17.069h-2.29v2.25h2.29v-2.25z" fill="#333"/><path d="M60.2 53.222h-2.29v11.253h2.29V53.222zm0-4.502h-2.29v2.251h2.29v-2.25z" fill="#333"/></svg>