<svg width="63" height="63" viewBox="0 0 63 63" fill="none" xmlns="http://www.w3.org/2000/svg"><path d="M16.42 50.286a5.55 5.55 0 0 0-2.389-.884A7.29 7.29 0 0 0 16.8 44.1c0-6.943-3.997-8.4-7.35-8.4-3.353 0-7.35 1.457-7.35 8.4a7.29 7.29 0 0 0 2.769 5.301A5.547 5.547 0 0 0 0 54.916V63h2.1v-8.085a3.465 3.465 0 0 1 3.465-3.465h7.77a3.465 3.465 0 0 1 3.465 3.465V63h2.1v-8.085c0-1.86-.93-3.599-2.48-4.63zM4.256 42.989c.284-3.518 1.94-5.189 5.195-5.189 2.98 0 4.62 1.41 5.09 4.35l-3.5-2.1a1.05 1.05 0 0 0-1.535.567c-.532 1.594-3.4 2.197-5.25 2.372zM9.45 49.35a6.615 6.615 0 0 1-5.104-4.255c1.798-.148 5.04-.693 6.552-2.681l3.754 2.252c-.422 2.57-3.59 4.684-5.202 4.684z" fill="#333"/><path d="M6.3 58.8H4.2V63h2.1v-4.2zm8.4 0h-2.1V63h2.1v-4.2zm23.771-14.815a5.55 5.55 0 0 0-2.39-.884A7.29 7.29 0 0 0 38.85 37.8c0-6.943-3.997-8.4-7.35-8.4-3.353 0-7.35 1.457-7.35 8.4a7.29 7.29 0 0 0 2.769 5.301 5.547 5.547 0 0 0-4.869 5.514V56.7h2.1v-8.085a3.465 3.465 0 0 1 3.465-3.465h5.436H31.5h3.885a3.465 3.465 0 0 1 3.465 3.465V56.7h2.1v-8.085c0-1.861-.93-3.599-2.479-4.63zM26.305 36.69c.284-3.519 1.94-5.19 5.195-5.19 2.98 0 4.62 1.41 5.09 4.35l-3.5-2.1a1.05 1.05 0 0 0-1.535.568c-.532 1.594-3.4 2.197-5.25 2.372zm5.195 6.36a6.615 6.615 0 0 1-5.104-4.254c1.798-.148 5.04-.693 6.552-2.681l3.754 2.252c-.422 2.57-3.59 4.684-5.202 4.684z" fill="#333"/><path d="M28.35 52.5h-2.1v4.2h2.1v-4.2zm8.4 0h-2.1v4.2h2.1v-4.2zm23.771-2.215a5.55 5.55 0 0 0-2.39-.883 7.29 7.29 0 0 0 2.77-5.302c0-6.943-3.998-8.4-7.35-8.4-3.354 0-7.35 1.457-7.35 8.4a7.29 7.29 0 0 0 2.768 5.301 5.547 5.547 0 0 0-4.869 5.514V63h2.1v-8.085a3.465 3.465 0 0 1 3.465-3.465h7.77a3.465 3.465 0 0 1 3.465 3.465V63H63v-8.085c0-1.86-.93-3.599-2.479-4.63zM48.355 42.99c.284-3.518 1.94-5.189 5.195-5.189 2.98 0 4.62 1.41 5.09 4.35l-3.5-2.1a1.05 1.05 0 0 0-1.535.567c-.532 1.594-3.4 2.197-5.25 2.372zm5.195 6.361a6.615 6.615 0 0 1-5.104-4.255c1.798-.148 5.04-.693 6.552-2.681l3.754 2.252c-.422 2.57-3.59 4.684-5.202 4.684z" fill="#333"/><path d="M50.4 58.8h-2.1V63h2.1v-4.2zm8.4 0h-2.1V63h2.1v-4.2zM42 9.45a3.137 3.137 0 0 0-5.25-2.331 3.1 3.1 0 0 0-4.2 0 3.051 3.051 0 0 0-3.15-.63V3.15a3.15 3.15 0 1 0-6.3 0v8.55a4.18 4.18 0 0 0 .71 8.215 9.545 9.545 0 0 0 8.74 5.285c5.21 0 9.45-3.768 9.45-8.4a7.478 7.478 0 0 0-.269-1.89c.176-.397.268-.826.269-1.26v-4.2zm-8.4 0a1.05 1.05 0 0 1 2.1 0v4.2c0 .58-.47 1.05-1.05 1.05a3.131 3.131 0 0 0-1.05-2.331V9.45zm-4.2 0a1.05 1.05 0 0 1 2.1 0v2.1h-2.1v-2.1zm-4.2-6.3a1.05 1.05 0 0 1 2.1 0v8.4h-2.1v-8.4zm-1.759 14.568a2.095 2.095 0 0 1 .709-4.068h7.35c.115.004.228.027.335.068a1.04 1.04 0 0 1-.335 2.032h-4.393c-.444 0-.84.28-.99.698a2.095 2.095 0 0 1-2.676 1.27zM32.55 23.1a7.57 7.57 0 0 1-6.615-3.565 4.214 4.214 0 0 0 1.839-1.685H31.5a3.131 3.131 0 0 0 2.331-1.05h.819a3.127 3.127 0 0 0 2.1-.819 3.045 3.045 0 0 0 3.134.63c0 .063.016.126.016.189 0 3.474-3.297 6.3-7.35 6.3zm7.35-9.45a1.05 1.05 0 1 1-2.1 0v-4.2a1.05 1.05 0 0 1 2.1 0v4.2zM17.93 28.84l-2.085.237c.076.676.196 1.347.359 2.008l2.042-.504a13.738 13.738 0 0 1-.315-1.74zm2.552 6.52L18.79 36.6c.402.55.84 1.073 1.31 1.566l1.52-1.449c-.408-.427-.787-.88-1.137-1.356zm-3.457-14.28c-.269.627-.497 1.27-.683 1.925l2.022.572c.16-.568.358-1.125.59-1.668l-1.93-.828zm1.756 11.188l-1.956.763c.248.635.538 1.254.866 1.851l1.839-1.014a13.561 13.561 0 0 1-.749-1.6zm-2.865-7.264a16.059 16.059 0 0 0-.166 2.034l2.1.034c.01-.59.057-1.18.143-1.765l-2.077-.303zm31.164-.022l-2.077.306c.087.585.136 1.174.147 1.765l2.1-.036a15.91 15.91 0 0 0-.17-2.035zm-2.014 3.841a13.403 13.403 0 0 1-.309 1.74l2.04.503a15.68 15.68 0 0 0 .356-2.012l-2.087-.231zm-2.541 6.525c-.35.477-.728.93-1.135 1.36l1.521 1.446a15.93 15.93 0 0 0 1.309-1.567l-1.695-1.239zm3.441-14.288l-1.928.834c.234.541.432 1.097.593 1.664l2.02-.573a15.672 15.672 0 0 0-.685-1.925zm-1.742 11.193c-.214.55-.464 1.085-.748 1.602l1.841 1.011c.328-.597.617-1.216.864-1.852l-1.957-.761zM47.25 0h-2.1v2.1h2.1V0zm-2.1 2.1h-2.1v2.1h2.1V2.1zm2.1 2.1h-2.1v2.1h2.1V4.2zm2.1-2.1h-2.1v2.1h2.1V2.1zm4.2-2.1h-2.1v2.1h2.1V0zM16.8 6.3h-2.1v2.1h2.1V6.3zm-2.1 2.1h-2.1v2.1h2.1V8.4zm2.1 2.1h-2.1v2.1h2.1v-2.1zm2.1-2.1h-2.1v2.1h2.1V8.4zm-7.35-5.25h-2.1v2.1h2.1v-2.1z" fill="#333"/></svg>