<svg width="427" height="100" viewBox="0 0 427 100" fill="none" xmlns="http://www.w3.org/2000/svg"><path d="M130.312 28.8H139v9.3h10.91v8.1H139v12.2c0 4 1.313 6 4.04 6 1.718 0 3.435-.7 5.254-1.9l2.626 6.6c-2.727 2.2-6.061 3.3-10 3.3-7.476 0-10.608-4.6-10.608-13.5V28.8zm53.844 39.6c-3.334 2.8-7.576 4.2-12.93 4.2-5.556 0-9.9-1.6-13.234-4.9-3.334-3.2-4.95-7.5-4.95-12.8 0-5 1.616-9.2 4.95-12.5 3.233-3.4 7.576-5.1 13.032-5.1 4.444 0 8.283 1.5 11.415 4.4 3.131 2.9 4.647 6.6 4.647 11.2 0 1.9-.101 3.4-.506 4.6h-24.547c.707 5 4.748 7.8 10.203 7.8 3.839 0 6.97-1 9.597-3.1l2.323 6.2zM161.63 51.8h16.668c.1-4.2-2.93-7.3-7.779-7.3-4.95 0-7.98 2.5-8.89 7.3zm30.406-32.3h8.688V59c0 3.7 1.01 5.5 2.93 5.5 1.11 0 2.222-.4 3.535-1.3l1.818 6.6c-2.323 1.9-5.354 2.8-8.99 2.8-5.354 0-7.981-3.4-7.981-10V19.5zm49.802 48.9c-3.334 2.8-7.576 4.2-12.93 4.2-5.556 0-9.9-1.6-13.234-4.9-3.334-3.2-4.95-7.5-4.95-12.8 0-5 1.616-9.2 4.95-12.5 3.233-3.4 7.576-5.1 13.031-5.1 4.445 0 8.284 1.5 11.416 4.4 3.131 2.9 4.647 6.6 4.647 11.2 0 1.9-.101 3.4-.506 4.6h-24.547c.707 5 4.748 7.8 10.203 7.8 3.838 0 6.97-1 9.597-3.1l2.323 6.2zm-22.527-16.6h16.668c.1-4.2-2.93-7.3-7.779-7.3-4.95 0-7.88 2.5-8.89 7.3zm30.508 34.9V38.2h8.688v3.2c2.222-2.3 6.263-4 10.506-4 4.647 0 8.384 1.6 11.213 4.8 2.829 3.2 4.243 7.3 4.243 12.3 0 5.2-1.617 9.6-4.95 13-3.334 3.4-7.577 5.2-12.93 5.2-3.435 0-6.062-.5-7.88-1.6v15.8h-8.89v-.2zm8.587-37.6v13.6c2.02 1.3 4.343 1.9 7.172 1.9 5.86 0 9.496-4.2 9.496-9.9 0-5.5-3.233-9.3-8.89-9.3-2.93 0-5.556 1.2-7.778 3.7zm32.023-8.5c3.737-2.2 7.677-3.2 12.02-3.2 9.699 0 13.538 4.7 13.538 14v20.5h-7.577V68c-2.02 2.9-5.455 4.3-10 4.3-6.365 0-10.608-4-10.608-10.3 0-7.1 5.152-10.9 12.324-10.9 3.132 0 5.658.7 7.678 2.2.202-5.9-1.515-8.7-6.364-8.7-2.526 0-5.556.7-8.89 2.3l-2.121-6.3zm17.476 21.3v-3.4c-1.414-1.1-3.435-1.6-5.96-1.6-3.132 0-5.455 1.5-5.455 4.2 0 2.5 2.02 4 4.849 4 2.93-.1 5.05-1.2 6.566-3.2zm47.883-23.7l-13.334 33.6c-2.425 5.8-4.647 9.8-6.466 11.8-1.919 2.1-4.04 3.1-6.667 3.1-2.525 0-4.95-.9-7.273-2.6l2.828-6.5c1.313.8 2.526 1.2 3.536 1.2 2.02 0 3.738-1.7 5.253-5.2l.707-1.8-15.658-33.6h10.405l7.88 18.4c.303.7.808 2.4 1.616 4.9.404-2.2.808-3.8 1.212-4.9l6.061-18.3h9.9v-.1zm5.253 22.4c3.132 0 5.556 2.8 5.556 5.5 0 3.2-2.424 6-5.556 6-3.637 0-6.061-2.8-6.061-6 0-2.7 2.424-5.5 6.061-5.5zm17.679-39.5c2.627 0 4.95 2 4.95 5 0 3.3-2.323 5.4-4.95 5.4-3.132 0-5.455-2.1-5.455-5.4 0-3 2.424-5 5.455-5zm-4.546 50.7V38.2h8.688v33.6h-8.688zM389.832 55c0-5.2 1.616-9.3 5.051-12.6 3.435-3.4 7.88-5 13.436-5s10 1.6 13.334 5c3.435 3.3 5.152 7.5 5.152 12.6 0 5.2-1.717 9.3-5.152 12.7-3.434 3.3-7.88 4.9-13.334 4.9-5.456 0-10.001-1.6-13.436-4.9-3.435-3.4-5.051-7.6-5.051-12.7zm18.487 9.6c5.455 0 9.293-3.9 9.293-9.6 0-5.6-3.94-9.6-9.293-9.6-5.253 0-9.193 3.9-9.193 9.6-.101 5.6 3.839 9.6 9.193 9.6z" fill="#F2F2F2"/><path d="M51.315 100c27.896 0 50.51-22.386 50.51-50S79.212 0 51.316 0 .805 22.386.805 50s22.615 50 50.51 50z" fill="#FFDD05"/><path d="M51.316 90c22.316 0 40.407-17.908 40.407-40 0-22.091-18.09-40-40.407-40-22.317 0-40.408 17.909-40.408 40 0 22.092 18.09 40 40.408 40z" fill="#FFC000"/><path d="M51.316 12c22.022 0 39.801 17.4 40.407 39v-1c0-22.1-18.082-40-40.407-40-22.326 0-40.408 17.9-40.408 40v1c.606-21.6 18.385-39 40.408-39z" fill="#EBA700"/><path d="M68.893 33.1L24.949 50.2s-2.121.7-1.92 2c.203 1.3 1.819 1.9 1.819 1.9l11.112 3.7s3.334 10.9 4.041 12.9c.707 2.1 1.212 2.1 1.212 2.1.606.3 1.212-.2 1.212-.2l7.173-6.5 11.112 8.5c3.03 1.3 4.142-1.4 4.142-1.4l7.677-39.1c0-2.6-3.636-1-3.636-1z" fill="#EBA700"/><path d="M72.53 32.1l-7.88 39.1s-1.111 2.7-4.142 1.4L42.526 58.9l-6.566-3.1-11.112-3.7s-1.717-.6-1.818-1.9c-.202-1.3 1.919-2 1.919-2l44.045-17.1c-.101 0 3.535-1.6 3.535 1z" fill="#FEDC00"/><path d="M41.112 70.8s-.505 0-1.212-2.1-4.04-12.9-4.04-12.9l26.568-16.7s1.515-.9 1.515 0c0 0 .303.2-.505.9-.808.8-20.911 18.6-20.911 18.6" fill="#EBA700"/><path d="M49.396 64.2l-7.172 6.5s-.606.4-1.212.2l1.414-12" fill="#FFC000"/></svg>