<svg width="69" height="70" viewBox="0 0 69 70" fill="none" xmlns="http://www.w3.org/2000/svg"><path d="M29.217 2.533l1.24 1.932a13.961 13.961 0 0 1 14.822 0l1.24-1.932a16.041 16.041 0 0 0-17.302 0zm-5.118 13.532h-2.295a15.953 15.953 0 0 0 1.237 6.184l2.118-.886a13.653 13.653 0 0 1-1.06-5.298zm19.063 12.711a13.622 13.622 0 0 1-5.292 1.06v2.294a15.921 15.921 0 0 0 6.18-1.236l-.888-2.118zm8.478-12.711a13.647 13.647 0 0 1-1.059 5.295l2.118.885a15.927 15.927 0 0 0 1.236-6.18H51.64zM37.87 4.59c-6.338 0-11.476 5.137-11.476 11.475S31.532 27.54 37.87 27.54c6.335-.007 11.468-5.14 11.475-11.475 0-6.338-5.138-11.476-11.475-11.476zm0 20.655a9.18 9.18 0 1 1 9.18-9.18 9.19 9.19 0 0 1-9.18 9.18z" fill="#333"/><path d="M40.394 15.699l-1.377-.46v-2.944c.64.223 1.088.8 1.148 1.475h2.295a4.154 4.154 0 0 0-3.443-3.875V9.18h-2.295v.716a4.154 4.154 0 0 0-3.443 3.875 2.884 2.884 0 0 0 2.066 2.66l1.377.46v2.942a1.721 1.721 0 0 1-1.148-1.472H33.28a4.154 4.154 0 0 0 3.443 3.874v.716h2.295v-.716a4.154 4.154 0 0 0 3.443-3.874 2.884 2.884 0 0 0-2.066-2.661zm-3.672-1.224l-.654-.22c-.29-.098-.494-.297-.494-.485a1.721 1.721 0 0 1 1.148-1.475v2.18zm2.295 5.36v-2.18l.654.22c.29.097.494.297.494.485a1.721 1.721 0 0 1-1.148 1.474z" fill="#333"/><path d="M68.517 47.385l-3.778-3.779 3.778-3.779a1.148 1.148 0 0 0 0-1.623L53.6 23.286a1.148 1.148 0 0 0-1.623 0l-14.68 14.68-15.83-15.826a1.148 1.148 0 0 0-1.622 0L4.926 37.057a1.148 1.148 0 0 0 0 1.622l8.37 8.37H0v2.295h14.918c.156 0 .31-.032.452-.093l7.816-3.35h16.979v4.59H27.54a1.147 1.147 0 0 0-.48 2.19l14.918 6.885c.375.171.813.127 1.148-.115L63 45.11l3.022 3.022-22.84 19.574h-6.256l-21.612-7.962a1.152 1.152 0 0 0-.397-.071H0v2.295h14.713l21.612 7.962c.127.047.261.07.397.07h6.885c.274.001.539-.097.746-.276l24.099-20.656a1.148 1.148 0 0 0 .065-1.682zm-45.566-3.779c-.155 0-.31.031-.452.093l-.279.115a5.706 5.706 0 0 1 10.563-.208h-9.832zm12.285 0a7.998 7.998 0 0 0-7.695-5.738 8.085 8.085 0 0 0-7.974 7.087l-3.584 1.536-8.623-8.623 13.296-13.295L39.69 43.606h-4.454zm7.096 13.595l-9.566-4.415h8.546c.634 0 1.148-.513 1.148-1.147v-5.263l6.231 6.232-6.359 4.593zm.236-13.962a5.117 5.117 0 0 1 5.056-4.223 5.153 5.153 0 0 1 .94 10.22l-5.996-5.997zm7.86 7.857c.46-.187.9-.42 1.314-.694l-1.167.842-.148-.148zm11.943-8.368l-10.112 7.304a7.459 7.459 0 1 0-11.554-8.655l-1.787-1.788 13.87-13.869 13.295 13.296-3.712 3.712z" fill="#333"/></svg>