<svg width="26" height="46" viewBox="0 0 26 46" fill="none" xmlns="http://www.w3.org/2000/svg"><path d="M13.306 0C6.413 0 .806 5.858.806 13.058v13.078c0 7.2 5.607 13.057 12.5 13.057 6.892 0 12.5-5.857 12.5-13.057V13.058c0-7.2-5.608-13.058-12.5-13.058zm11.11 26.136c0 6.4-4.984 11.606-11.11 11.606-6.127 0-11.111-5.206-11.111-11.606V13.058c0-6.4 4.984-11.606 11.11-11.606 6.127 0 11.112 5.206 11.112 11.606v13.078z" fill="#F2F2F2"/><path d="M13.306 4.355c-.384 0-.695.324-.695.725v6.573c0 .401.311.726.695.726.383 0 .694-.325.694-.726V5.08c0-.4-.31-.725-.694-.725zm-.246 40.89a.347.347 0 0 0 .49 0l2.207-2.206a.347.347 0 0 0-.49-.49l-1.961 1.96-1.961-1.96a.347.347 0 0 0-.49.49l2.206 2.206zm-.101-16.213V45h.693V29.032h-.693z" fill="#F2F2F2"/></svg>