<svg width="72" height="70" viewBox="0 0 72 70" fill="none" xmlns="http://www.w3.org/2000/svg"><path d="M58.942 37.04a1.04 1.04 0 0 0-1.04 1.039c0 .727-.592 1.32-1.32 1.32-.727 0-1.32-.593-1.32-1.32a1.04 1.04 0 1 0-2.078 0 3.403 3.403 0 0 0 3.398 3.398 3.403 3.403 0 0 0 3.4-3.398 1.04 1.04 0 0 0-1.04-1.04z" fill="#333"/><path d="M68.7 37.209l-2.927-.938a1.225 1.225 0 0 1-.79-.8 18.864 18.864 0 0 0-2.765-5.47 20.082 20.082 0 0 0-1.848-2.18c.432-1.894.666-4.037.636-5.888-.044-2.648-.573-4.202-1.618-4.75-.563-.294-2.276-1.191-11.549 3.053-.22.1-.424.225-.614.366a40.277 40.277 0 0 0-1.907-.463c-.078-.017-.157-.031-.235-.048a14.161 14.161 0 0 0 1.272-5.264 1.04 1.04 0 1 0-2.077-.093 12.078 12.078 0 0 1-3.534 8.017 12.035 12.035 0 0 1-4.379 2.797 30.14 30.14 0 0 0-8.367 0 12.034 12.034 0 0 1-4.379-2.797 12.03 12.03 0 0 1-3.546-8.563 12.03 12.03 0 0 1 3.546-8.562 12.03 12.03 0 0 1 8.563-3.547 12.03 12.03 0 0 1 8.562 3.547 12.11 12.11 0 0 1 2.257 3.117 1.04 1.04 0 0 0 1.857-.935 14.174 14.174 0 0 0-2.644-3.652A14.095 14.095 0 0 0 32.182 0c-3.79 0-7.353 1.476-10.033 4.156a14.095 14.095 0 0 0-4.155 10.032c0 3.79 1.476 7.353 4.155 10.033a14.175 14.175 0 0 0 2.504 1.994 29.24 29.24 0 0 0-1.921.569 1.04 1.04 0 0 0 .659 1.972 27.897 27.897 0 0 1 17.582 0 1.037 1.037 0 0 0 1.315-.657 1.04 1.04 0 0 0-.656-1.315 29.2 29.2 0 0 0-1.922-.569 14.171 14.171 0 0 0 4.316-4.219 38.97 38.97 0 0 1 1.964.434c-.011.046-.023.09-.033.137-.507 2.405-.474 4.533.098 6.323.514 1.61 1.442 2.913 2.757 3.876 1.55 1.134 3.421 1.623 5.116 1.623 1.276 0 2.452-.277 3.316-.767.977-.553 1.796-1.72 2.444-3.47.3.35.583.708.85 1.074a16.782 16.782 0 0 1 2.463 4.869 3.306 3.306 0 0 0 2.139 2.156l2.925.938a1.84 1.84 0 0 1 1.284 1.758V45.8a1.84 1.84 0 0 1-1.284 1.758l-4.714 1.51a3.211 3.211 0 0 0-1.797 1.46c-1.852 3.2-4.763 5.849-8.654 7.872a1.63 1.63 0 0 0-.855 1.148l-1.51 7.994a.467.467 0 0 1-.458.38h-4.91a.467.467 0 0 1-.458-.38l-.836-4.418a1.633 1.633 0 0 0-1.858-1.314 43.46 43.46 0 0 1-6.475.482c-1.624 0-3.227-.09-4.764-.27a1.647 1.647 0 0 0-1.802 1.322l-.794 4.198a.467.467 0 0 1-.46.38h-4.908a.468.468 0 0 1-.46-.383l-1.453-7.55c-.094-.487-.4-.9-.839-1.136-6.632-3.54-10.138-9.456-10.138-17.107 0-3.865.845-7.283 2.513-10.16 1.556-2.683 3.83-4.902 6.756-6.595a1.04 1.04 0 0 0-1.04-1.8c-5.676 3.283-9.098 8.348-10.04 14.78l-.3-.028a5.176 5.176 0 0 0-.382-2.074c-.603-1.5-1.841-2.581-3.156-2.757-1.035-.138-2.021.302-2.705 1.205-.992 1.31-.83 2.348-.52 2.987.524 1.079 1.87 1.842 4.103 2.322a4.098 4.098 0 0 1-.203.277c-1.32 1.655-2.874 2.02-3.884 2.055-.59.02-1.064.495-1.064 1.086v.005c0 .583.46 1.059 1.043 1.086.075.003.153.005.234.005 1.277 0 3.327-.471 5.297-2.94a5.93 5.93 0 0 0 .759-1.227c.196.022.384.041.565.058v-.001a27.305 27.305 0 0 0-.055 1.716c0 4.329 1.032 8.188 3.067 11.472 1.876 3.027 4.563 5.506 7.987 7.37l1.414 7.34A2.548 2.548 0 0 0 22.812 70h4.909a2.548 2.548 0 0 0 2.501-2.073l.719-3.795c1.492.158 3.037.238 4.598.238 2.143 0 4.284-.15 6.37-.444l.757 4.002A2.548 2.548 0 0 0 45.167 70h4.91a2.548 2.548 0 0 0 2.5-2.073l1.47-7.783c4.154-2.196 7.284-5.08 9.306-8.576a1.13 1.13 0 0 1 .633-.52l4.713-1.51a3.914 3.914 0 0 0 2.728-3.74v-4.851a3.913 3.913 0 0 0-2.728-3.739zm-9.93-12.355c-.4 3.422-1.473 6.349-2.552 6.96-1.225.694-4.055.828-6.18-.727-2.127-1.556-2.835-4.354-2.048-8.092.08-.375.346-.7.714-.868 5.204-2.383 8.204-3.162 9.319-3.162.168 0 .294.018.377.05.335.358.774 2.386.37 5.84zM2.919 36.395c-.108-.222.146-.612.307-.824.255-.337.49-.406.668-.406.037 0 .072.003.104.007.478.064 1.148.59 1.503 1.472.083.207.192.551.217.98-1.439-.298-2.557-.728-2.8-1.229z" fill="#333"/><path d="M33.5 7a1 1 0 1 0-2 0h2zm-1 7h-1l.293.707.708-.707zm3.293 4.707a1 1 0 0 0 1.415-1.414l-1.415 1.414zM31.501 7v7h2V7h-2zm.292 7.707l4 4 1.415-1.414-4-4-1.415 1.414z" fill="#333"/></svg>