<svg width="200" height="200" viewBox="0 0 200 200" fill="none" xmlns="http://www.w3.org/2000/svg"><path d="M177.691 168.125l-3.286-1.317C190.93 148.426 200 124.815 200 100a99.841 99.841 0 0 0-17.32-56.255 3.092 3.092 0 0 0-.499-.717 100.288 100.288 0 0 0-17.422-19.23 3.158 3.158 0 0 0-4.093 4.812 94.01 94.01 0 0 1 14.293 15.196c-6.684 2.612-14.708 4.825-23.665 6.573-2.473-7.367-5.512-14.236-9.084-20.433-4.815-8.354-10.354-15.08-16.39-20.028a93.144 93.144 0 0 1 26.557 12.396 3.158 3.158 0 0 0 3.535-5.233C139.373 5.905 120.039 0 100 0 73.289 0 48.177 10.402 29.29 29.29 10.402 48.177 0 73.29 0 100c0 24.847 9.083 48.461 25.634 66.85l-3.244 1.27c-1.195.432-11.356 4.485-11.356 17.404v11.315A3.16 3.16 0 0 0 14.192 200h46.482c.153 0 .301-.014.448-.036.147.022.295.036.447.036h12.85a3.157 3.157 0 1 0 0-6.316h-9.692v-10.998c0-11.603 9.114-14.94 9.482-15.07.05-.016.098-.034.146-.053l15.378-6.023c.033.036.065.074.1.108l8.172 7.96c.59.574 1.382.896 2.204.896h.05a3.15 3.15 0 0 0 2.223-.967l7.848-8.142 15.357 6.159c.056.022.093.036.15.055.388.136 9.503 3.475 9.503 15.077v10.998H84.288a3.158 3.158 0 1 0 0 6.316h101.587c1.744 0 3.157-1.436 3.157-3.18v-11.296c.001-12.87-10.083-16.941-11.341-17.399zm-9.555-3.831l-3.113-1.249v-1.797a16.516 16.516 0 0 0 7.341-9.103c4.594-.363 8.223-4.21 8.223-8.895a8.92 8.92 0 0 0-3.291-6.918v-5.612c0-10.821-8.12-19.775-18.585-21.104.119-2.141.201-4.298.241-6.458h34.674c-.759 22.858-9.738 44.449-25.49 61.136zm-11.401-7.109h-2.88c-5.58 0-10.119-4.54-10.119-10.119v-8.355c4.113-.447 11.4-1.885 17.013-6.573 1.258 2.157 3.203 4.489 6.106 5.851v9.077c-.001 5.579-4.54 10.119-10.12 10.119zm1.973 6.193v1.751l-3.519 3.65-3.306-3.22v-2.182c.647.078 1.305.123 1.972.123h2.881c.668 0 1.324-.045 1.972-.122zm-18.12-30.778h-.011c-.108 0-.216.006-.322.016-.034.004-.067.011-.101.016a3.01 3.01 0 0 0-.212.032c-.047.009-.093.024-.14.036-.054.014-.109.025-.162.042-.034.01-.067.025-.101.037v-2.059c0-8.252 6.714-14.965 14.966-14.965h1.511c8.252 0 14.964 6.713 14.964 14.965v2.033a2.646 2.646 0 0 0-.18-.049 1.27 1.27 0 0 0-.088-.025c-4.402-1.002-5.842-6.877-5.852-6.922a3.158 3.158 0 0 0-5.639-1.153c-5.718 7.905-18.466 7.996-18.633 7.996zm32.582 12.778v-4.256a2.613 2.613 0 0 1 1.101 2.128c0 .878-.436 1.653-1.101 2.128zm5.495-96.258a93.526 93.526 0 0 1 14.96 47.722H158.95c-.256-14.215-2.242-27.924-5.784-40.41 9.709-1.928 18.366-4.393 25.499-7.312zm-26.031 47.723h-32.33c-4.309-4.763-10.365-7.91-17.146-8.433V61.254c15.496-.154 30.451-1.443 43.774-3.682 3.486 12.075 5.443 25.408 5.702 39.27zm-27.857 32.975a4.063 4.063 0 0 1-2.96 3.905v-7.811a4.067 4.067 0 0 1 2.96 3.906zM103.158 6.491c12.567 1.342 24.39 10.666 33.58 26.609 3.225 5.594 5.994 11.774 8.277 18.404-12.732 2.085-27.021 3.285-41.858 3.434V6.49h.001zm-2.003 88.15c10.757 0 19.507 8.751 19.507 19.508v3.859c-.021-.017-.043-.031-.064-.048a3.682 3.682 0 0 0-.141-.105 4.364 4.364 0 0 0-.113-.073c-.048-.03-.094-.06-.144-.087-.045-.026-.091-.048-.137-.071l-.133-.065a3.51 3.51 0 0 0-.17-.066c-.039-.015-.078-.03-.118-.043a3.116 3.116 0 0 0-.195-.055c-.029-.008-.057-.018-.087-.025-5.999-1.364-7.899-9.186-7.915-9.254a3.158 3.158 0 0 0-5.639-1.153c-7.395 10.224-23.73 10.328-23.946 10.328h-.012a3.43 3.43 0 0 0-.322.016c-.033.004-.066.011-.099.016-.071.009-.144.018-.214.032-.045.009-.089.024-.134.034-.056.015-.113.027-.168.044-.051.016-.1.037-.15.055-.046.017-.094.032-.14.05-.057.025-.112.054-.167.081-.036.017-.072.033-.107.052-.057.03-.11.065-.165.099-.032.02-.064.037-.096.058-.05.035-.099.073-.148.11-.031.024-.064.046-.095.071-.029.024-.056.051-.084.076v-3.936c0-10.757 8.75-19.508 19.507-19.508h1.889zm-53.789 2.201c.259-13.865 2.216-27.201 5.703-39.277 13.343 2.242 28.313 3.534 43.773 3.69v27.188c-6.62.62-12.52 3.745-16.742 8.42a3.233 3.233 0 0 0-.35-.02H47.366zM78.69 125.88v7.877a4.065 4.065 0 0 1-3.088-3.939c0-1.903 1.317-3.5 3.088-3.938zM96.842 6.491v48.447c-14.801-.15-29.101-1.355-41.854-3.444 2.283-6.626 5.05-12.802 8.274-18.394 9.19-15.943 21.013-25.267 33.58-26.609zM74.146 9.946c-6.023 4.945-11.55 11.661-16.356 20-3.572 6.195-6.61 13.06-9.082 20.426-8.945-1.746-16.956-3.953-23.628-6.556 12.095-16.088 29.243-28.17 49.066-33.87zm-52.783 39.19c7.116 2.907 15.774 5.362 25.474 7.289-3.544 12.487-5.53 26.2-5.788 40.417H6.375a93.096 93.096 0 0 1 14.988-47.707zm20.35 114.242a16.47 16.47 0 0 0 1.972.122h2.88c.667 0 1.325-.044 1.972-.122v1.75l-3.518 3.651-3.307-3.22v-2.181zm4.852-6.193h-2.88c-5.58 0-10.12-4.54-10.12-10.119v-8.352c4.113-.445 11.397-1.885 17.014-6.576 1.258 2.157 3.203 4.49 6.105 5.852v9.076c0 5.579-4.54 10.119-10.119 10.119zm8.126-31.428a3.156 3.156 0 0 0-5.639-1.153c-5.722 7.91-18.48 7.996-18.634 7.996h-.01c-.11 0-.217.006-.323.016-.033.004-.065.011-.098.016a3.094 3.094 0 0 0-.215.032c-.045.009-.088.024-.133.034-.057.015-.114.027-.169.044-.034.01-.066.025-.1.037v-2.059c0-8.252 6.714-14.966 14.966-14.966h1.51c8.253 0 14.965 6.714 14.965 14.966v2.033c-.061-.02-.124-.035-.186-.051l-.082-.023c-4.402-1.001-5.842-6.878-5.852-6.922zM6.375 103.158h34.673c.04 2.175.124 4.347.244 6.502-10.298 1.481-18.238 10.359-18.238 21.06v5.588a8.913 8.913 0 0 0-3.324 6.942c0 4.72 3.684 8.587 8.328 8.9a16.508 16.508 0 0 0 7.338 9.098v1.779l-3.45 1.351c-15.805-16.7-24.812-38.313-25.571-61.22zm20.874 37.894v4.395a2.612 2.612 0 0 1-1.204-2.197c0-.921.481-1.732 1.204-2.198zm31.162 41.635v10.997H17.35v-8.16c0-8.804 6.883-11.356 7.15-11.451a2.62 2.62 0 0 0 .146-.053l11.911-4.665 6.329 6.165a3.16 3.16 0 0 0 2.203.895h.05a3.152 3.152 0 0 0 2.223-.967l5.979-6.203 7.39 2.962c-1.402 2.868-2.32 6.341-2.32 10.48zm30.468-27.595l-16.761 6.564c-2.134.734-5.088 2.428-7.709 5.222l-9.557-3.833v-1.796a16.51 16.51 0 0 0 7.341-9.104c4.594-.363 8.224-4.21 8.224-8.895a8.92 8.92 0 0 0-3.29-6.918v-5.612c0-11.14-8.606-20.302-19.518-21.203-.12-2.106-.203-4.231-.243-6.36h28.539a25.665 25.665 0 0 0-2.463 10.991v7.369a10.367 10.367 0 0 0-4.157 8.301c0 5.668 4.57 10.287 10.218 10.374a19.851 19.851 0 0 0 9.375 11.679v3.221zm-25.88-9.714v-4.257a2.613 2.613 0 0 1 1.102 2.129A2.61 2.61 0 0 1 63 145.378zm42.314 11.918v.203l-5.174 5.369-4.944-4.815v-3.974c1.06.177 2.148.274 3.258.274h3.602c1.11 0 2.197-.097 3.258-.273v3.216zm-3.258-9.258h-3.602c-7.415 0-13.447-6.033-13.447-13.447v-11.15c5.04-.464 15.005-2.216 22.285-8.75 1.536 2.907 4.111 6.282 8.211 8.033v11.866c-.001 7.415-6.032 13.448-13.447 13.448zm33.622 18.862c-2.62-2.801-5.577-4.501-7.716-5.239l-16.333-6.551v-3.239a19.847 19.847 0 0 0 9.376-11.682c5.588-.155 10.088-4.746 10.088-10.37 0-3.372-1.617-6.372-4.115-8.269v-7.401c0-3.929-.885-7.654-2.462-10.991h28.118c-.041 2.137-.124 4.27-.246 6.387-10.745 1.066-19.164 10.155-19.164 21.175v5.589a8.912 8.912 0 0 0-3.324 6.941c0 4.721 3.685 8.588 8.328 8.9a16.511 16.511 0 0 0 7.339 9.099v1.778l-9.889 3.873zm1.743-25.848v4.395a2.612 2.612 0 0 1-1.204-2.197c0-.921.481-1.732 1.204-2.198zm45.298 52.632h-41.061v-10.998c0-4.122-.91-7.583-2.302-10.443l7.373-2.888 6.328 6.164c.59.575 1.381.896 2.204.896h.049a3.153 3.153 0 0 0 2.224-.967l5.979-6.203 11.885 4.765c.055.023.086.035.144.054.293.104 7.177 2.656 7.177 11.46v8.16z" fill="#333"/></svg>