<svg width="64" height="70" viewBox="0 0 64 70" fill="none" xmlns="http://www.w3.org/2000/svg"><path d="M62.502 11.53l-.094-.016A84.95 84.95 0 0 1 32.531.202c-.44-.27-.993-.27-1.432.001a83.964 83.964 0 0 1-29.69 11.278l-.278.05A1.367 1.367 0 0 0 0 12.876v17.896a40.265 40.265 0 0 0 8.859 25.15 40.265 40.265 0 0 0 22.664 14.045 1.383 1.383 0 0 0 .588 0A40.288 40.288 0 0 0 54.775 55.91a40.289 40.289 0 0 0 8.858-25.156V12.877c0-.665-.477-1.232-1.131-1.347zm-1.603 19.225c0 17.328-12.212 32.62-29.083 36.477-16.87-3.849-29.082-19.133-29.082-36.46v-16.75A86.658 86.658 0 0 0 31.818 2.967a87.629 87.629 0 0 0 29.08 11.052v16.736z" fill="#333"/><path d="M31.786 9.934c.229 0 .46-.057.674-.179l.014-.007.012-.007c.658-.37.887-1.2.518-1.858a1.373 1.373 0 0 0-1.865-.521l-.03.016a1.367 1.367 0 0 0 .677 2.556zm-6.02.214A90.185 90.185 0 0 1 7.25 16.61c-.62.143-1.06.695-1.06 1.332v12.813c0 1.48.1 2.976.297 4.444a1.367 1.367 0 1 0 2.71-.363 30.821 30.821 0 0 1-.273-4.081V19.023a92.919 92.919 0 0 0 18.02-6.407 1.367 1.367 0 0 0-1.177-2.468zm30.311 6.427c-.755 0-1.367.612-1.367 1.367v12.813c0 12.155-7.182 23.307-18.297 28.412a1.367 1.367 0 0 0 1.142 2.485c5.86-2.692 10.835-7 14.386-12.46 3.6-5.536 5.503-11.911 5.503-18.437V17.942c0-.755-.612-1.367-1.367-1.367zM31.518 60.931l-.052.014a1.367 1.367 0 1 0 .701 2.643l.052-.014a1.367 1.367 0 1 0-.701-2.643z" fill="#333"/><path d="M50.152 35.254a3.606 3.606 0 0 0-.544-4.48l-1.42-1.399a.887.887 0 0 1-.263-.696l.142-2a3.604 3.604 0 0 0-2.568-3.725l-1.88-.567a.887.887 0 0 1-.56-.498l-.787-1.816a3.646 3.646 0 0 0-4.022-2.114l-1.909.374a.887.887 0 0 1-.73-.18l-1.518-1.227a3.643 3.643 0 0 0-4.552 0l-1.52 1.227a.887.887 0 0 1-.729.18l-1.909-.374a3.644 3.644 0 0 0-4.022 2.113l-.788 1.818a.887.887 0 0 1-.558.497l-1.881.567a3.603 3.603 0 0 0-2.568 3.726l.142 1.999a.888.888 0 0 1-.263.696l-1.42 1.4a3.606 3.606 0 0 0-.543 4.48l1.05 1.706c.136.222.169.49.09.738l-.616 1.911a3.605 3.605 0 0 0 1.6 4.225l1.703 1.01a.888.888 0 0 1 .422.616l.335 1.965a3.601 3.601 0 0 0 3.392 3.01l1.95.097c.262.013.504.14.663.35l1.19 1.564a3.641 3.641 0 0 0 4.417 1.09l1.763-.823a.887.887 0 0 1 .751 0l1.763.823a3.643 3.643 0 0 0 4.418-1.09l1.188-1.565a.887.887 0 0 1 .664-.35l1.95-.096a3.601 3.601 0 0 0 3.392-3.01l.335-1.965a.887.887 0 0 1 .423-.615l1.702-1.011a3.605 3.605 0 0 0 1.6-4.225l-.615-1.91a.888.888 0 0 1 .09-.739l1.05-1.707zm-2.33-1.432l-1.05 1.707a3.62 3.62 0 0 0-.363 3.007l.614 1.911a.884.884 0 0 1-.392 1.037l-1.702 1.01a3.617 3.617 0 0 0-1.722 2.507l-.335 1.966a.884.884 0 0 1-.832.738l-1.95.097a3.616 3.616 0 0 0-2.706 1.426l-1.188 1.564a.893.893 0 0 1-1.084.268l-1.762-.823a3.614 3.614 0 0 0-3.066 0l-1.763.823a.894.894 0 0 1-1.084-.268l-1.189-1.564a3.615 3.615 0 0 0-2.704-1.426l-1.95-.097a.884.884 0 0 1-.832-.738L20.427 45a3.618 3.618 0 0 0-1.722-2.506l-1.703-1.011a.884.884 0 0 1-.392-1.037l.615-1.911a3.62 3.62 0 0 0-.364-3.008l-1.05-1.707a.885.885 0 0 1 .133-1.099l1.42-1.399a3.618 3.618 0 0 0 1.072-2.838l-.143-2a.884.884 0 0 1 .63-.913l1.881-.567a3.616 3.616 0 0 0 2.278-2.028l.788-1.817a.895.895 0 0 1 .987-.518l1.908.374a3.612 3.612 0 0 0 2.974-.736l1.52-1.227a.894.894 0 0 1 1.116 0l1.52 1.227a3.611 3.611 0 0 0 2.973.736l1.909-.374a.894.894 0 0 1 .986.518l.788 1.817a3.616 3.616 0 0 0 2.278 2.028l1.881.567c.4.12.66.497.63.914l-.142 1.999a3.618 3.618 0 0 0 1.071 2.838l1.42 1.4a.885.885 0 0 1 .134 1.098z" fill="#333"/><path d="M35.376 28.009a1.367 1.367 0 0 0-1.862.518L26.162 41.55a1.367 1.367 0 1 0 2.381 1.344l7.352-13.021a1.367 1.367 0 0 0-.519-1.863zm1.218 8.158a4.106 4.106 0 0 0-4.102 4.102 4.106 4.106 0 0 0 4.102 4.101 4.106 4.106 0 0 0 4.101-4.101 4.106 4.106 0 0 0-4.101-4.102zm0 5.469a1.369 1.369 0 0 1-1.367-1.367c0-.754.613-1.368 1.367-1.368s1.367.614 1.367 1.368c0 .753-.613 1.367-1.367 1.367zM27.04 25.63a4.106 4.106 0 0 0-4.102 4.101 4.106 4.106 0 0 0 4.101 4.102 4.106 4.106 0 0 0 4.102-4.102 4.106 4.106 0 0 0-4.102-4.101zm0 5.469a1.369 1.369 0 0 1-1.368-1.368 1.368 1.368 0 0 1 2.734 0 1.37 1.37 0 0 1-1.367 1.368z" fill="#333"/></svg>