<svg width="56" height="56" viewBox="0 0 56 56" fill="none" xmlns="http://www.w3.org/2000/svg"><path d="M55.65 54.338l-4.666-3.734a.933.933 0 0 0-.584-.204h-8.895l-3.11-3.733h12.939A4.672 4.672 0 0 0 56 42V4.667A4.672 4.672 0 0 0 51.335 0H4.667A4.672 4.672 0 0 0 0 4.667V42a4.672 4.672 0 0 0 4.667 4.667h12.94l-3.11 3.733H5.6a.933.933 0 0 0-.583.204L.35 54.338A.933.933 0 0 0 .934 56h54.133a.933.933 0 0 0 .584-1.662zM4.668 44.8a2.8 2.8 0 0 1-2.8-2.8V4.667a2.8 2.8 0 0 1 2.8-2.8h46.667a2.8 2.8 0 0 1 2.8 2.8V42a2.8 2.8 0 0 1-2.8 2.8H4.667zm15.371 1.867h15.925l3.111 3.733H16.928l3.111-3.733zM3.595 54.133l2.333-1.866h44.147l2.331 1.866H3.595z" fill="#333"/><path d="M51.334 3.733H4.667a.933.933 0 0 0-.933.934v33.6c0 .515.418.933.933.933h46.667a.933.933 0 0 0 .933-.933v-33.6a.933.933 0 0 0-.933-.934zm-.933 33.6H5.6V5.6h44.8v31.733zm-17.734 3.734h-9.333v1.867h9.333v-1.867z" fill="#333"/><path d="M19.6 15.867h1.867a3.733 3.733 0 0 1 3.734-3.734v-1.866a5.607 5.607 0 0 0-5.6 5.6z" fill="#333"/><path d="M47.6 7.467H8.4a.933.933 0 0 0-.933.933v3.733c0 .516.418.934.934.934h8.89a8.306 8.306 0 0 0 .6 6.923l-1.09 1.09-.274-.273a.933.933 0 0 0-1.32 0l-7.466 7.466a3.573 3.573 0 0 0 5.053 5.053l7.467-7.466a.933.933 0 0 0 0-1.32l-.274-.273 1.09-1.09a8.381 8.381 0 0 0 12.034-10.11H47.6a.933.933 0 0 0 .933-.934V8.4a.933.933 0 0 0-.933-.933zM9.335 11.2V9.333h10.599A8.466 8.466 0 0 0 18.22 11.2H9.334zm2.14 20.807a1.707 1.707 0 0 1-2.413-2.414l6.806-6.807.274.274 1.867 1.866.273.274-6.807 6.807zm7.193-9.06l-.547-.547.883-.883c.175.19.357.373.547.547l-.883.883zm6.534-.547a6.533 6.533 0 1 1 0-13.067 6.54 6.54 0 0 1 6.533 6.534 6.533 6.533 0 0 1-6.533 6.533zm21.466-11.2H32.18a8.464 8.464 0 0 0-1.712-1.867h16.2V11.2z" fill="#333"/><path d="M47.6 16.8H42v1.867h3.347l-5.4 5.397-3.131-1.566a.933.933 0 0 0-1.037.137l-7.86 6.989-2.2-1.467a.933.933 0 0 0-1.125.068l-6.533 5.6 1.213 1.418 5.996-5.14 2.212 1.475a.933.933 0 0 0 1.138-.079l7.928-7.047 3.169 1.587c.359.18.793.11 1.077-.174l5.873-5.879v3.347h1.867v-5.6a.933.933 0 0 0-.933-.933z" fill="#333"/></svg>