<svg id="Слой_1" xmlns="http://www.w3.org/2000/svg" viewBox="0 0 140.8 144.5"><style>.st0{fill:#475db0}</style><path class="st0" d="M138.3 120c.1-3.6-1.1-6.7-3.5-9.7-2.5-3.1-5.9-5.2-9.8-6.1-2-.5-3.9-1.3-5.7-2-2.6-1.1-5.1-2.2-7.6-3.3-3-1.4-6-2.7-8.9-4.2-2.5-1.3-4.5-3.2-4.1-6.3.1-.8.8-3.8 1.7-5 2.3-3.3 4.3-6.7 5.6-10.6 1-3 2.1-5.9 2.6-9 .7-4.4 1.1-8.9 1.4-13.4.5-8.3-.2-16.4-3.3-24.2-2.1-5.2-5-9.8-8.7-13.8-2.5-2.7-5.2-5-8.6-6.4-2.2-1-4.2-2-6.4-2.6-2.5-.7-4.4-1.3-7.4-1.7-4.5-.6-10-.9-15.8.6-2.6.7-5.3 1.5-7.8 2.5-4 1.6-7.7 3.7-11 6.6-5.1 4.6-8 10.5-9.8 17-.9 3.2-1.6 6.5-1.9 9.8-.4 3.8-.3 7.6-.3 11.4 0 2.5 0 2.5 2.4 3.1.1 0 .1.1.2.2v.8c-.2 6.5.9 12.9 3.3 19 1.2 3.1 2.8 6.1 4.7 8.9 1.7 2.6 2.8 5.2 2.4 8.4-.1 1.2-.4 2-1.3 2.8-2.7 2.5-6.1 4-9.4 5.4-2 .9-3.9 1.7-5.9 2.5-2.5 1-5 2.1-7.6 3-1.4.5-3 .8-4.4 1.4-3.4 1.5-6.2 3.7-8 7-1.3 2.3-2.2 4.7-2.2 7.6.2 7.1.1 14.2.1 21.4l-.1 3.2h10.1c.1-1.2 0-2.4 0-8.3 0-3.2 0-3.7.1-9.9 0-.7-.1-3.8 0-4.4.2-1 .1-1.3.5-2.3 1.5-3.3 4.4-4.5 7.6-5.4 1.7-.5 3.5-1.1 5.1-1.8 1.8-.7 3.6-1.6 5.4-2.4 2.4-1 4.8-1.9 7.2-3.1 8.3-4.2 10.1-5.9 11.2-9 .2-.6.9-.6 1.5-.4 1.2.4 1.4.7 2.1 2.1 1.7 3.2 2.7 8.4 3 9.8.5 2.4.8 4.8.4 7.2-.4 2.4-.7 4.8-1.1 7.2-.6 3.7-1.3 7.5-1.8 11.2-.4 2.4-1 6.9-1.3 9.4h10.4c1.2-8.3 2.7-18.6 3.9-26.8h6.6c1.2 8.3 2.7 18.6 3.9 26.8h10.3c0-.5-.5-3-.5-3.4-.5-3.1-.9-6.1-1.4-9.2-.7-4.9-1.4-9.8-2-14.7-.3-2.3-.8-4.5-.1-6.9.5-1.8 1.1-10.3 3.7-13.4.4-.5.8-.5 1-.7.9-.6 2.1-.2 2.5.8 1.2 3.1 3.1 4.9 3.2 5 2.8 2.9 6.4 4.4 10 6 2.4 1 4.7 2.1 7.2 3.1 3.3 1.3 6.5 2.7 9.9 3.6 3.6 1 6.3 4.1 6.4 7.9.1 6.2.2 10.1.3 16.3v5.5h9.8v-3.4c-.1-6.7-.1-13.7 0-20.7zM97 28.1c.6-.3 2.3 4.6 3.3 9.2.3 1.6.8 4.7.4 3.3-1.9-6.6-5.9-7.9-5.9-7.9.4-.7 1.7-4.4 2.2-4.6zM39.1 42.7c0-.4-.1-.8 0-1.3.9-5.8 2.2-11.5 5.2-16.6 2.3-3.8 5.4-6.6 9.4-8.5 4.7-2.5 8.6-3.6 14-4.1.6-.1 1.3-.1 1.9-.1 5.4.2 10.7 1.2 14 2.8 3.2 1.6 6 3.5 7.8 5.9.1.1-2.7 5.7-4 7.7-.2.3-1 1.1-1.4 1.1-2.4.2-2.3-.4-6.9 1-2.8.9-5.5 2.1-8.1 3.5-3.1 1.7-6.5 3.1-9.7 4.5-1.7.7-3.6 1.3-5.4 1.9-.8.3-1.6.5-2.5.6-4.6 1-9.3 2-14.3 1.6zm35.4 64.1h-7.3c-.3-1.3-.5-2.5-.7-3.7h8.8c-.3 1.2-.6 2.4-.8 3.7zm18.6-31.3c-2.8 5-5 6.9-9.5 10.7-2.8 2.4-6.5 4.1-9.8 5.6-2.3 1.1-4.6.9-6.9-.2-8.3-3.8-13.7-7.8-18.4-15.3-2.3-3.6-4.5-9.7-5.6-13.9-.8-3-1.4-5.9-1.1-9 2.8-.3 5.5-.5 8.2-.8 1.9-.2 4.9-.8 6.7-1.2 2.2-.5 4.5-1 6.6-1.8 2.6-.9 5.3-1.8 7.8-3 3.3-1.5 6.5-3.4 9.8-5 1.4-.7 3.1-1.2 4.6-1.4 3.6-.4 6.3 1.4 8.1 4.2 1.5 2.3 2.4 5 3.7 7.4.3.6.6 1.3 1 1.9 1.1 1.4 1 2.9.6 4.5-.6 3.1-1 5-1.6 7-1.2 4.9-2.7 7.8-4.2 10.3z"/><path class="st0" d="M101.7 139.4v4.9h-9c0-.1-.1-.3-.1-.4V132c0-2.1.2-2.3 2.4-2.3h6.3c.7-1.9 1.1-2.8 4.1-2.9 2.3 0 4.5.1 6.8.2 1.1.1 1.8.8 2.1 1.8.2.7.5.9 1.2.8h5.9c1.1 0 1.8.3 1.8 1.6v13h-8.8v-4.9c-4.2.1-8.3.1-12.7.1z"/></svg>