<svg id="Слой_1" xmlns="http://www.w3.org/2000/svg" viewBox="0 0 78.4 78.2"><style>.st0{fill:#475db0}</style><path class="st0" d="M73.3 32.9c-.4 13.7-7 23.4-13.2 29.5-4.5 5-11 9.4-17.8 14.7-2.2 1.6-4.4 1.3-6.2 0-10.5-7.7-10.3-8-18.3-15C9.7 54.4 5.1 44 5.3 33.4c.3-12.5 5.9-22.2 16.6-28.5 18-10.6 40.3-3.1 48.8 15.9.5 1.2 1.6 3.9 1.8 5.2.8 2.8.8 4.7.8 6.9zm-34 37.2c2.3-1.5 11.2-8.5 12.2-9.7 4.1-3.8 9.3-9 12.7-17.6 1.1-5.3 1.7-10.7.2-15.8-2.7-9.1-8.8-15.3-18.4-17.8-11.9-3.1-24.3 2.3-29.8 13-4.3 8.4-2.7 18.7.3 25.2 2.2 4.7 6.2 9.2 10.5 13 4.3 4.3 10.3 8.2 12.3 9.7z"/><path class="st0" d="M39.4 50.5c-9.3.6-18-7.9-18-17.7.1-9.9 7.8-18 17.9-18s18.1 8.1 18 17.9c-.1 10.1-7.8 17.8-17.9 17.8zm10.7-17.8c.1-5.6-4.8-10.3-10.6-10.4-6 0-10.9 4.7-10.8 10.4.1 5.5 5.1 10.5 10.6 10.6 5.5.2 10.7-5 10.8-10.6z"/></svg>