<svg xmlns="http://www.w3.org/2000/svg" viewBox="0 0 1671.8 299.6"><path d="M623 299.6c-.5-.5-1.1-1-1.4-1.6-2.6-4.5-5.1-9.1-7.7-13.8 7.2-12.6 14.5-25.2 22-38.2-1.2-.1-2-.1-2.9-.1-10.8 0-21.6-.1-32.4 0-1.8 0-2.9-.6-3.9-2.1-2.2-3.4-4.5-6.8-6.8-10.2 2.9-5 5.7-9.8 8.4-14.7.4-.8 1-1.2 1.9-1.1h1.4c16 .1 32 .1 48 .2 1.8 0 2.8-.5 3.8-2.1 8.9-15.7 18-31.3 27-47 .4-.7.7-1.4 1.3-2.3-.8-.1-1.4-.2-2-.2-19.8 0-39.7 0-59.5-.1-1.7 0-2.4.7-3.1 2-8 13.3-16 26.6-23.9 39.9-1 1.6-2 2.3-3.9 2.3-4.8-.2-9.6-.1-14.4-.1-1.3-2.7-2.6-5.2-3.8-7.7-1-2.1-2-4.2-3.1-6.2-.7-1.2-.5-2.1.2-3.3 5.1-8 10.2-16.1 15.3-24.1.5-.7.9-1.5 1.6-2.6-3-.3-5.7-.1-8.3-.2h-33.2c-3-5.2-5.9-10.3-8.9-15.5 3-5 6-9.9 9-14.9h44.1c-6.4-11.1-12.6-21.9-18.8-32.7 2-4.1 4-8.2 5.9-12.2.3-.7.8-1.1 1.7-1.1h17.1c8.8 15.3 17.5 30.6 26.3 46h62.6c-.4-.9-.8-1.6-1.2-2.2-9.7-16.8-19.3-33.5-28.9-50.3-.9-1.5-1.8-2.1-3.5-2.1-14.2-.3-28.3-.7-42.5-1.1-3-.1-6.1-.3-9.1-.3-1.3 0-2-.5-2.6-1.6-1.8-3.3-3.7-6.5-5.6-9.8-.5-.9-.8-1.6-.2-2.7 2.6-4.9 5-9.8 7.6-14.8h37.1c-.5-1-.9-1.8-1.3-2.5-5.9-10.3-11.8-20.7-17.9-31-.9-1.5-.9-2.7-.2-4.2 1.8-3.7 3.5-7.5 5.2-11.3.3-.6.6-1.3 1-2h2.6c4.6.1 9.1.3 13.7.1 2.2-.1 3.3.8 4.3 2.6 5.6 10 11.4 20 17.2 30 .4.7.9 1.5 1.5 2.5 5.9-9.9 11.7-19.5 17.6-29.4 2.2.1 4.4.3 6.6.4 2.7.1 5.4.2 8.2.3 1.1 0 2 .2 2.6 1.3 2.4 4.2 4.8 8.3 7.3 12.5-.3.6-.7 1.3-1 1.9-7.8 13.5-15.6 27-23.5 40.4-.8 1.4-.8 2.3 0 3.7 10 17.3 20 34.6 29.9 52 .3.5.7 1 1.1 1.8.4-.7.8-1.2 1.1-1.7 9.3-16.1 18.5-32.2 27.8-48.2.9-1.5.7-2.5-.1-3.9-7.9-14.5-15.8-29.1-23.7-43.6-.6-1-1.1-2.1-1.7-3.2 2.3-4 4.6-7.9 6.9-11.8.3-.5 1.1-.8 1.8-.9 5.5-.4 11-.7 16.7-1C743.5 16.4 749.7 27 756 38c.7-1.1 1.1-1.8 1.5-2.5 6-10.3 11.9-20.6 17.8-31 .7-1.3 1.5-2 3.1-2.1 4.4-.3 8.8-.8 13.1-1.3 1.4-.2 2.2.2 2.9 1.5 2.4 4.4 4.8 8.9 7.3 13.2.8 1.4.8 2.5 0 3.9-5.9 10-11.7 20.2-17.5 30.3-.4.7-.8 1.5-1.4 2.5 1.1.1 1.8.2 2.6.2 8.4.1 16.8.2 25.2.4 1.6 0 3.2.1 4.8 0 1 0 1.6.3 2.1 1.2 2.3 4.6 4.7 9.1 7.1 13.7l-7.8 13.8h-51c-10.3 17.9-20.7 35.8-31.2 54 .8.1 1.4.2 2 .2h54.2c1.5 0 2.3-.6 3-1.8 8.6-14.1 17.3-28.2 25.8-42.4 1.5-2.5 3-3.6 6-3.4 3.1.3 6.2.1 9.4 0 1 0 1.6.3 2.1 1.2 3 4.6 6 9.3 9.1 14.1-6.1 10.6-12.2 21.2-18.6 32.2h3c11.8 0 23.7 0 35.5-.1 1.7 0 2.8.4 3.7 1.9 2.7 4 5.6 8 8.5 12.1-.7 1.1-1.3 2.2-2 3.3-2.3 3.8-4.6 7.5-6.7 11.3-.8 1.5-1.8 1.9-3.4 1.9-11.7-.1-23.4 0-35 0h-2.3c-.1.2-.2.3-.2.3 0 .1-.1.2-.1.2 5.4 9.8 10.8 19.6 16.2 29.5-2.8 4.4-5.6 8.8-8.4 13.1-.3.5-1.2.9-1.8.9-4.5.1-9 0-13.4.1-1.3 0-1.8-.8-2.3-1.7L801.8 179c-2.2-3.7-4.3-7.5-6.4-11.2-.6-1.1-1.4-1.5-2.7-1.5h-56.2c-.4 0-.8.1-1.2.1.4 1.9 24.9 45.1 28.9 50.9 8.5.2 17 .4 25.6.6 8.6.2 17.1.3 25.7.4 2.8 5 5.5 9.9 8.3 14.8-.3.5-.5 1-.8 1.4-2.6 3.9-5.2 7.7-7.7 11.6-.7 1.1-1.4 1.4-2.7 1.4-6.5-.4-12.9-.6-19.4-.8-3.2-.1-6.4-.3-9.6-.4h-2.8c7 12.1 13.8 24 20.6 35.9-3 5.1-5.9 10.2-9 15.4h-3.3c-4-.1-8-.2-12-.2-1.6 0-2.4-.6-3.2-1.9-6.4-11.3-13-22.6-19.5-33.9-.4-.7-.9-1.5-1.5-2.4-.6.9-1.1 1.6-1.5 2.4-5.4 9.3-10.8 18.5-16.1 27.8-1 1.7-2 2.5-4.1 2.6-3.9.1-7.8.5-12 .8-3-5.2-6-10.4-9.1-15.9 8.9-15.2 17.8-30.4 26.9-45.9-9.5-16.5-19-33-28.6-49.6-1.5 1.4-27 45.2-31.1 53.2 8.2 14.8 16.5 29.8 24.9 44.9-2.9 4.9-5.8 9.7-8.7 14.7-3.4-.2-6.7-.4-10.1-.6-1.6-.1-3.2-.4-4.8-.3-1.6 0-2.5-.5-3.3-2.1-3.2-6.4-6.6-12.8-10-19.1-1.5-2.8-3-5.6-4.6-8.6-.5.7-.9 1.2-1.2 1.8-6.4 11.1-12.9 22.3-19.3 33.4l-.3.9H623zm768.7-42.2c-16.3 0-31.7-3.1-46.3-10.1-13.7-6.6-25.3-15.9-35.2-27.2-13.7-15.5-22.2-33.5-25-54-2.7-19.7-1-38.9 6.6-57.5 5.9-14.5 15-26.9 26.4-37.5 14.4-13.4 31-22.5 50.3-26.4 23.6-4.8 46.8-3.4 68.9 6.9 12.8 6 23.7 14.5 33.3 24.8 12.6 13.6 21.5 29.1 25.8 47.2 3.1 13 3.7 26.1 2.3 39.3-1.8 16.3-6.8 31.6-16 45.2-15.2 22.6-35.5 38.6-62.1 45.8-9.6 2.4-19.3 3.4-29 3.5zm-45.1-107.2c.1 1.3.2 3.1.3 5 .1 1.2.3 2.4.5 3.6 3.3 16.4 12.5 28.4 27.9 34.7 18.7 7.7 41.9 2.6 55-19.1 4.7-7.7 6.5-16.2 6.4-25.2-.1-11.9-3.9-22.3-11.8-31.4-16.3-18.7-42.7-18.6-58.2-7.2-13.2 9.5-20 22.6-20.1 39.6zm-203.4 19.9v81.8h-60.4c-.5-1.7-.8-200.1-.2-205 .6-.1 1.3-.2 2-.2 33.6 0 67.2-.1 100.8 0 9.7 0 19.3.5 28.9 2.2 7.9 1.4 15.6 3.6 22.3 8.2 9.2 6.3 15.6 14.9 19 25.5 4.3 13.4 4.5 27.1.5 40.6-3.9 13-11.9 23.1-23.4 30.2-2.9 1.8-6.4 2.9-9.8 3.9-5.1 1.5-10.2 2.6-15.3 3.9-.4.1-.9.3-1.6.5 22.9 30 45.6 59.9 68.5 90-.8.1-1.3.2-1.8.2h-64.6c-1.3 0-2.2-.4-3-1.5-16.6-21.9-33.3-43.8-50-65.7-3.8-5-7.7-10-11.5-15 0 .3-.2.4-.4.4zm.2-40c.7 0 1.1.1 1.5.1h23.7c1.2 0 2.4-.1 3.6-.3 4.4-.8 8.8-1.7 13.1-2.6 2.8-.6 5.2-2 7.2-4.1 8-8 6.4-21 2-26.8-2.8-3.7-6.6-5.4-10.9-6.5-4.5-1.1-9-1.3-13.6-1.4-8.1-.1-16.1 0-24.2 0-.8 0-1.6.1-2.5.1.1 13.9.1 27.6.1 41.5zm-635.2 54.3c-1.6 5.2-3.6 9.8-5.9 14.3-13.6 26.3-35.1 42.5-63.5 50.1-9.5 2.5-19.3 3.8-29.2 3.7-12.4-.2-24.5-2.4-36-7.4-34.6-14.9-55.6-40.9-63-77.8-5.1-34.7 4.1-64.9 28.7-90.1 15.3-15.7 34.1-25.3 55.7-28.8 26.5-4.2 51.3 1 73.6 16 22 14.9 36.2 35.3 42.6 61.1 2.4 9.8 3.3 19.7 2.6 29.7-.2 2.9-.7 5.8-1 9H371.7c0 .4-.1.6-.1.7 3.2 8.8 7.8 16.6 15.5 22.3 5 3.7 10.7 5.7 16.8 6.6 6.2.9 12.4.9 18.7 0 6.3-.8 11.5-3.8 15.9-8.2.9-.9 1.8-1.4 3.1-1.4h64.5c.8.2 1.2.2 2.1.2zM451 134.3c-3.2-14.3-18.4-31.1-42.1-29.2-9.9.8-18.7 4-25.9 11.1-5.1 5.1-8.6 11.2-11 18.2 26.6-.1 52.7-.1 79-.1zm-167.3-5.6h-61c-1.8 0-2.7-.5-3.5-2.1-1.7-3.3-3.5-6.5-5.5-9.5-4.1-6-9.8-9.8-17-11-8-1.3-16.1-1.7-24 .3-15 3.9-24.6 13.8-29.4 28.3-3.3 10.1-3.5 20.6-.1 30.7 5.4 16.4 16.7 26.4 34.1 28.7 9 1.2 17.8.3 25.9-4 9.3-4.9 16.2-12.1 19.1-22.6.7-2.5 1.3-4.9 2-7.5h60.6c-.3 2.4-.6 4.7-1 6.9-1.7 10.3-4.2 20.3-8.5 29.9-6.1 13.6-15.4 24.8-26.8 34.3-12.7 10.6-27.4 16.8-43.7 19.5-10.3 1.7-20.7 2.2-31.1 1.3-26.8-2.3-49.2-13.4-67.2-33.4-12.5-13.9-20.5-30.1-23.5-48.5-3.6-22-1.8-43.3 7.6-63.8 5.3-11.7 13-21.8 22.2-30.7 11.6-11.1 25-19.3 40.5-23.9 7.6-2.3 15.4-3.6 23.3-4.2 11.6-.8 23.2-.1 34.5 2.5 18.3 4.3 33.8 13.5 47.1 26.8 12.1 12.2 19.4 27 23.8 43.5.6 2.2 1.1 4.3 1.7 6.5-.3.6-.2 1.2-.1 2zM1671.8 252h-60.9V122.2c0-3.3-.2-6.5-1-9.8-2.3-8.9-9.4-10.8-16.3-9.1-3.2.8-5.3 2.8-6.7 5.7-1.3 2.6-1.9 5.4-2.1 8.3-.1 2.2-.2 4.5-.2 6.7v128h-61c0-.8-.1-1.7-.1-2.5v-31.9c0-33.2-.1-66.4 0-99.6 0-12.1 1.9-23.9 7.1-35 9.2-19.4 24.2-32.2 44.9-37.8 17-4.6 34.2-4.6 51.1.5 18.4 5.5 31 17.6 38.3 35.3 3.6 8.6 5.5 17.7 6.3 27 .3 3.8.5 7.7.5 11.5v130.1c.1.7.1 1.5.1 2.4zM904.4 106.1V46.9h153.9V106H1012v145.9h-61c-.1-6.9 0-13.8 0-20.8V106c-7.9-.1-15.6 0-23.3 0-7.8.1-15.4.1-23.3.1zM0 47.2h60.6c.5 1.8.6 202 .1 204.9H0V47.2z" fill="#475db0"/></svg>