<svg xmlns="http://www.w3.org/2000/svg" viewBox="0 0 75 58"><path d="M37.5 0h32c4 0 5.5 2.5 5.5 6.5V53c0 4-1 5-5 5H5c-4 0-5-1-5-5V6.5C0 2.5.9 0 4.9 0h32.6zM7.7 22.8c-.4-.3-.4 1.6-.4 2.1v24.2c0 2 1.3 2 2.7 2h55c2.1 0 2.8-.7 2.7-2.8-.1-7.6 0-15.2 0-22.7 0-.9.1-2.9-.3-2.8-.1-.1-1.3.4-1.7.6-8.6 4.6-17.2 9-25.7 13.4-1.5.8-2.8 1.1-4.4.3-4.5-2.4-9-4.7-13.5-7-4.8-2.4-9.5-4.7-14.4-7.3zM37.8 8.3H11.1c-1.9 0-3.7-.3-3.8 1.4-.2 5.8-.1 5.4 1.9 6.4 8.9 4.6 17.7 9.2 26.7 13.6 1 .5 2.6.3 3.7-.2C48 25.4 56.2 21 64.5 16.9c2.8-1.3 3.4-1.2 3.4-5.4 0-3.6-.5-3.3-3.4-3.2-8.9.1-17.8 0-26.7 0z" fill="#475db0"/></svg>