<svg xmlns="http://www.w3.org/2000/svg" viewBox="0 0 189.5 142.1"><path d="M98.7 142.1c-5.5.2-9.3-2.3-12.3-6.1-1.8-2.3-1.8-2.2-4.3-.8-1.4.8-2.8 1.6-4.3 2.3-3.1 1.5-6.4 1.9-9.7 1.1-4.4-1-6.8-4.2-8.4-8.1-.3-.8-.6-1.6-1-2.3-.6-1-1.4-1.7-2.7-2-4.7-1.2-7.8-4.2-9-8.9-.6-2.1-1.6-3.2-3.8-3.7-4.8-1.2-7.8-4.3-8.9-9.2-.3-1.2-.9-2-2-2.5-.6-.3-1.2-.5-1.8-.7-9.4-3.3-10.8-11.7-7.7-18.9.4-.8 1.2-2.1 1.8-2.8 1.8-2.2 2.2-4.6 1.6-7.4-1.2-6.1-2.3-11.9-3.5-17.6-1.1-5.2-4.1-9.1-7.9-12.5-4.1-3.7-8.1-7.6-12.2-11.4C.7 28.8-.2 26.7 0 24c.2-1.5.8-2.5 2.2-3 2.3-.9 5-.2 6.7 1.5 5.2 5.3 10.5 10.5 15.7 15.8.9.9 1.5.6 2.2-.1l16.5-16.5L60.1 4.9C63.7 1.3 68 0 73 .4c2.4.2 4.5.9 6.6 1.8 5 2.3 10.4 3.7 15.7 5 .3.1.8 0 1.1-.2 4.9-2 9.8-3.9 14.7-5.9 5.4-2.2 13.2-1.4 18 3.5C140 15.9 151 26.9 162 38c1.5 1.5 1.5 1.4 3-.1 5.2-5.2 10.5-10.4 15.8-15.6 2.3-2.2 6.4-2 8 .2 1.3 1.8.9 5-.8 6.7-1.5 1.5-3 2.8-4.6 4.2-9 8.4-17 17.7-24.4 27.5-4.6 6.1-8.9 12.5-13.4 18.7-.6.8-.5 1.9.1 2.7 3 3.6 3.8 7.9 2.9 12.4-.9 4.4-3.6 7.3-7.8 8.8-.6.2-1.1.4-1.7.6-1.7.6-2.9 1.8-3.3 3.5-1 5-4.3 7.7-9 8.9-1.9.5-2.9 1.6-3.4 3.6-.9 4.4-4.1 8-8.5 8.9-2.2.4-3.4 1.7-4 3.5-.2.7-.5 1.3-.8 2-2.4 5.2-6.1 7.6-11.4 7.6zM59.3 67c-7 .5-11.7-5-12.6-9.5-1-5 .2-9.5 3.7-13.3 2.2-2.4 4.4-4.6 6.7-6.9l23.4-22.8c1.5-1.4 1-2-.5-2.9-.1-.1-.3-.1-.4-.2-2-.6-4-1.2-5.9-2-1.7-.6-3-.2-4.2 1-1.5 1.4-3 2.9-4.5 4.3l-32 32c-.5.5-1.1 1-1.4 1.7-.3.7-.7 1.6-.5 2.3 1.1 6.1 2.3 12.1 3.6 18.2.3 1.5 1.4 2.4 3 2.4.9 0 1.8-.1 2.8 0 3.7.3 7 1.3 8.9 4.7.9 1.5 1.7 3.2 2.2 4.9.6 1.7 1.5 2.6 3.2 3 3 .7 5.6 2.1 7.2 4.7.9 1.5 1.6 3.2 2.2 4.9.5 1.5 1.2 2.5 3 2.9 2.6.5 4.8 1.7 6.6 3.7 1.5 1.7 2.5 3.7 2.9 6 .3 1.6 1.2 2.5 2.8 2.9 1.2.3 2.4.8 3.5 1.3 4.9 2.3 7.1 6.2 6.4 11.3-.3 2.1.1 3.9 1.4 5.4 1.6 1.9 3.3 3.8 5.3 5.4 2 1.6 2.4 1.5 4.6-.1.3-.2.6-.5.8-.7 1.3-1.4 1.5-2.4.5-4.1-.5-.8-1-1.6-1.6-2.2-3.3-3.3-6.7-6.5-10-9.8-1.4-1.3-1.5-4.8-.4-6.2 1.9-2.4 5.7-2.5 7.8-.3 3.3 3.4 6.5 6.9 9.9 10.1 2.8 2.7 4 2.6 6.9-.8.1-.1.1-.1.1-.2.7-.9.8-1.9.1-2.9-.7-.9-1.4-1.9-2.2-2.7-3.3-3.1-6.6-6.1-9.9-9.2-1.5-1.4-1.6-4.9-.3-6.5 2-2.5 6.3-2.4 8.3 0 2.9 3.4 6 6.6 9.3 9.7 2.9 2.8 3.9 2.7 6.8-.2 1-1 1.3-2.2.4-3.5-.6-.9-1.1-1.8-1.8-2.5-3.1-3.1-6.3-6.1-9.6-9-1.4-1.3-1.8-2.7-1.7-4.5.1-2 1.2-3.5 3-4.1 2-.6 4-.7 5.6 1.1 3.2 3.4 6.4 6.9 9.8 10.2 2.7 2.6 4.1 2.8 7-.7.2-.2.3-.4.4-.6.1-.7.3-1.5.1-2-.6-1.1-1.3-2.1-2.2-3-7.8-7.9-15.7-15.7-23.6-23.6-2.9-2.9-5.9-5.8-8.8-8.7-.8-.8-1.7-1-2.8-.8-1.3.2-2.7.4-4 .4-5.2.1-10.1-1.2-14.7-3.6-1.8-.9-1.8-.9-3.2.6-3.2 3.4-6.5 6.8-9.8 10.1-3.3 3-7 5.1-11.6 4.9zm54.8-28.3c2.7 0 4.1.9 4.4 2.8.4 2.1.2 4.1-1.7 5.5-.4.3-.8.7-1.1 1.1-1.3 1.3-1.3 1.4 0 2.7l21.1 21.1.4.4c.7.7 1.3.6 1.9-.1.2-.3.5-.6.7-.8 5.4-7.4 10.8-14.8 16.1-22.2 1.1-1.5 1.1-1.5-.2-2.8-8.9-8.9-17.8-17.7-26.7-26.6-3.1-3.1-6.3-6.2-9.4-9.2-1.2-1.1-2.4-1.4-4.2-.6-8.1 4.1-16.7 7.3-25.4 9.9-2.4.7-4.4 2-6.2 3.8L61 46.5c-1.6 1.6-3.2 3.1-4.6 4.7-1.5 1.7-1.3 4.3.4 5.8l.2.2c1.8 1.6 2.7 1.6 4.8.1.5-.4 1.2-1 1.7-1.4 4.4-4.4 8.8-8.9 13.2-13.3 1-.9 2.2-1.8 3.5-2.2 2.6-.8 4.8.1 7 1.8 4 3.1 8.5 4.6 13.5 3.7 3.8-.7 6.9-3 9.7-5.7 1.2-1.1 2.4-1.6 3.7-1.5zM56 97.3c-.4-2.1-1.4-3.4-3.1-4.4-1.1-.6-2.1-.7-3.1 0-3 1.9-5.3 4.5-6.9 7.6-.1.2-.2.5-.2.7-.2 2.3 2.4 4.3 4.1 4.3.3.1.7-.1 1-.2 3-1.4 5.5-3.4 7.3-6.2.4-.6.7-1.3.9-1.8zm16.3 33c.4-.2.9-.3 1.4-.5 2.8-1.4 4.8-3.5 6.5-6.1 1.3-2 1.2-2.9-.5-4.7-.3-.3-.6-.6-1-.9-1.2-.9-2.3-1-3.6-.2-2.6 1.6-4.8 3.6-6.5 6.1-.8 1.2-1 2.5-.1 3.8.8 1.5 2.1 2.2 3.8 2.5zM43.2 84.4c-.2-1.7-.9-2.9-2.3-3.8-1.2-.8-2.4-.8-3.7-.1-2.3 1.4-4.1 3.2-5.6 5.3-1.7 2.5-1.5 3.7.7 5.7.3.3.6.5 1 .7.7.5 1.6.6 2.4.2 2.9-1.3 5.1-3.5 6.7-6.3.3-.5.6-1.2.8-1.7zM68 109.3c-.1-1.8-2.7-4.1-4.3-4-.2 0-.5.1-.7.2-3.2 1.6-5.8 3.9-7.3 7.3-.4 1-.4 2.1.3 2.9 2.7 3.3 4.3 3 7.3.2 1.8-1.6 1.8-1.7 3.7-4.2.8-1.1.8-2.1 1-2.4z" fill="#fff"/></svg>