<svg xmlns="http://www.w3.org/2000/svg" viewBox="0 0 189.9 135.1"><path d="M150.8 90c-4 15.2-12.3 27.4-25.5 35.9-9.8 6.4-20.7 9.6-32.5 9.1-13-.6-24.5-5.2-34.4-13.6-9.8-8.4-16.2-18.9-19.4-31.5h-4.4c-2.5 0-4.2-1.7-4.2-4.2v-8.5c-.4 0-.7-.1-1-.1-8.2 0-16.3-.1-24.5.1-3.9.1-6.2-4.1-4.5-7.3.6-1.1 1.5-2.2 2.4-3.1 3.1-3.5 6.3-7 9.2-10.6 2.3-2.9 2.6-1.8 0-4.9-3.4-4-6.9-7.9-10.3-11.8-2-2.4-2.4-4.8-1-7 .9-1.4 2.2-2.1 3.9-2.1h38.6c1.1 0 1.6-.3 2.2-1.2C54.8 13.7 68.2 3.9 86.1.8c16.1-2.8 30.6 1.5 43.5 11.3 6.2 4.7 11.1 10.6 15 17.3.4.7.9 1.1 1.8 1.1 12.9 0 25.8.1 38.6-.1 3.9 0 6.2 4.2 4.4 7.3-.7 1.3-1.8 2.4-2.8 3.6l-9.9 11.4c-.7.8-.7 1.4 0 2.2 3.8 4.3 7.6 8.8 11.4 13.1 2 2.3 2.5 4.7 1 7.1-.9 1.5-2.2 2.1-3.9 2.1h-25.8v8.4c.1 2.7-2 4.6-4.4 4.4-1.4-.1-2.8 0-4.2 0zm-1.3-31.6h-109v21.7h109V58.4zm-8.2-10c-2.8-19-21.9-41.2-51.3-38.3-13.1 1.3-23.8 7.3-32 17.5-4.9 6.1-8.1 13-9.5 20.8h7.6l.6-2.4c2.9-10.3 9.1-18 18.4-23.3 7.9-4.4 16.4-5.5 25.3-4.6 10.8 1.2 19.6 6.2 26.4 14.7 3.6 4.6 5.8 9.8 7.1 15.5 2.4.1 4.9.1 7.4.1zm-17.7 0c.1-1.7-.6-3.3-2.1-5.8-7.4-12.7-19.5-16.5-32-14.6-10.7 1.6-18.1 7.8-22.6 17.6-.4.9-.5 1.9-.8 2.9 19.3-.1 38.4-.1 57.5-.1zM140.7 90c-2.2 0-4.3.1-6.5 0-1 0-1.4.3-1.7 1.2-2.9 8.7-8.4 15.4-16.2 20.3-8.2 5.1-17.1 6.4-26.5 5.5-8.5-.8-15.9-4.2-22.2-10-4.8-4.4-8.2-9.7-10.3-15.9-.1-.4-.5-1-.8-1-2.4-.1-4.8 0-7.3 0 4.7 18.8 22.6 36 47.3 35.3 22.7-.8 39.7-17.1 44.2-35.4zm-73.4.1c3.5 10.6 16 17.9 29.8 17.4 11.1-.4 23.4-8.7 25.6-17.4H67.3zM15.9 40.4c.3.4.5.7.7.9 2.2 2.6 4.5 5.3 6.8 7.9 2.3 2.6 2.6 6.6 0 9.3-2 2.1-3.7 4.4-5.6 6.6-.6.7-1.2 1.4-1.9 2.2h14.7V52.8c0-2.7 2-4.5 4.3-4.3 1.2.1 2.4 0 3.6 0 .7-2.8 1.3-5.4 2-8.1H15.9zm135.7 8.1c1.2 0 2.3.1 3.3 0 2.6-.3 4.6 1.8 4.5 4.6-.1 4.4 0 8.7 0 13.1v1.2h14.7c-2.6-3.1-5.1-6.1-7.7-9-2.4-2.7-2.2-6.4 0-9 1.3-1.6 2.7-3.2 4-4.7 1.2-1.4 2.3-2.8 3.6-4.3h-24.5c.7 2.7 1.4 5.3 2.1 8.1z" fill="#fff"/></svg>