<svg xmlns="http://www.w3.org/2000/svg" viewBox="0 0 78.4 78.2"><path d="M29.8 32l16.7 16.7c1.1-1.5 1.8-2.5 2.5-3.4 2.8-3.8 6.6-4.9 11-4.1 1.5.3 3.2 1.1 4.3 2.2 3.9 3.6 7.6 7.4 11.3 11.3 3.6 3.7 3.6 9-.1 12.7-3.3 3.3-6.3 7-10.8 9-4.5 1.9-9.1 2.4-13.6 1.1-21-6-36.1-19.2-46.4-38.2C1.7 33.6-.1 27.5 0 21c.1-5.3 1.6-10.1 5.7-13.8C7.2 5.8 8.5 4.4 9.9 3c3.9-3.8 10-4 13.9-.2s7.7 7.6 11.5 11.5c3.3 3.4 3.2 9 0 12.4-1.6 1.6-3.2 3.1-5.5 5.3zm27.8 16.5c-1.3 1.4-2.6 2.9-3.9 4.2-3.1 3.1-9.3 3.5-12.8 1-6.4-4.7-12-10.3-16.8-16.7-2.8-3.8-2.4-8.6.9-12 1.5-1.5 3.2-2.8 4.6-4-4.6-4.6-8.6-8.7-13-13.2-1.4 1.6-2.8 3.2-4.3 4.7-2.6 2.6-4 5.7-3.7 9.4.3 5 2 9.7 4.3 14.1C19.1 47.8 28 57.2 39.4 64c4.9 3 10.2 5.1 15.8 6 5 .8 11.7-3.4 14.8-9.1-4.1-4-8.1-8-12.4-12.4z" fill="#475db0"/></svg>