<svg width="20" height="20" viewBox="0 0 20 20" fill="none" xmlns="http://www.w3.org/2000/svg">
<path d="M12.2015 7.7954C11.9646 7.55708 11.7019 7.34583 11.4183 7.16551C10.6672 6.68454 9.79399 6.42896 8.90208 6.42896C7.66414 6.42666 6.4765 6.91852 5.60267 7.7954L1.36343 12.038C0.491085 12.912 0.000782077 14.0962 9.66008e-07 15.331C-0.00163937 17.9079 2.08596 19.9982 4.66284 19.9999C5.89887 20.0042 7.08542 19.5146 7.95893 18.6401L11.4583 15.1407C11.5219 15.0777 11.5574 14.9917 11.5569 14.9022C11.5558 14.7181 11.4057 14.5698 11.2217 14.5708H11.0884C10.3573 14.5734 9.63266 14.433 8.95543 14.1576C8.83065 14.1062 8.68724 14.1352 8.59218 14.2309L6.07595 16.7504C5.2946 17.5318 4.0278 17.5318 3.24645 16.7504C2.46511 15.9691 2.46511 14.7023 3.24645 13.9209L7.50237 9.66838C8.28309 8.88864 9.54783 8.88864 10.3285 9.66838C10.8547 10.1636 11.6754 10.1636 12.2015 9.66838C12.4279 9.44182 12.5651 9.14133 12.5881 8.82186C12.6125 8.44009 12.4717 8.06621 12.2015 7.7954Z" fill="#E37264"/>
<path d="M18.6312 1.36666C16.809 -0.455553 13.8546 -0.455553 12.0324 1.36666L8.5363 4.85936C8.4403 4.95582 8.41261 5.10092 8.46631 5.22597C8.51939 5.35138 8.64343 5.43187 8.77958 5.42926H8.90287C9.63313 5.42793 10.3566 5.56943 11.0325 5.84586C11.1573 5.89722 11.3007 5.86824 11.3957 5.77255L13.9053 3.26632C14.6866 2.48498 15.9535 2.48498 16.7348 3.26632C17.5161 4.04767 17.5161 5.31447 16.7348 6.09582L13.6087 9.21858L13.582 9.24857L12.4889 10.3351C11.7082 11.1148 10.4434 11.1148 9.6627 10.3351C9.13654 9.83987 8.31583 9.83987 7.78971 10.3351C7.5619 10.5633 7.42454 10.8664 7.4031 11.1882C7.37873 11.57 7.51953 11.9439 7.78971 12.2147C8.17546 12.6021 8.62679 12.918 9.12279 13.1479C9.19278 13.1812 9.26277 13.2079 9.33276 13.2379C9.40275 13.2679 9.47605 13.2912 9.54604 13.3178C9.61603 13.3445 9.68933 13.3678 9.75932 13.3878L9.95597 13.4411C10.0893 13.4745 10.2226 13.5011 10.3592 13.5245C10.5238 13.5489 10.6895 13.5645 10.8558 13.5711H11.0891H11.1091L11.309 13.5478C11.3824 13.5445 11.459 13.5278 11.5457 13.5278H11.659L11.8889 13.4945L11.9956 13.4745L12.1889 13.4345H12.2256C13.0442 13.2289 13.7917 12.805 14.3885 12.208L18.6311 7.96548C20.4534 6.14327 20.4534 3.18887 18.6312 1.36666Z" fill="#E37264"/>
</svg>
