<svg width="20" height="20" viewBox="0 0 20 20" fill="none" xmlns="http://www.w3.org/2000/svg">
<path d="M19.1647 11.4478C19.2394 10.9756 19.2787 10.4926 19.2787 9.99949C19.2787 4.87466 15.1244 0.720493 9.99944 0.720493C9.50767 0.720493 9.02321 0.760993 8.55143 0.834786C7.69684 0.306006 6.6882 0 5.60725 0C2.5105 0 0 2.51017 0 5.60725C0 6.68796 0.306192 7.69577 0.83474 8.55208C0.761598 9.02507 0.72133 9.5066 0.72133 9.99967C0.72133 15.1249 4.8755 19.2778 9.99926 19.2778C10.4914 19.2778 10.976 19.2398 11.4478 19.1654C12.3033 19.6932 13.3111 20 14.3918 20C17.4894 20 19.9996 17.4892 19.9996 14.3922C19.9998 13.3111 19.6938 12.3035 19.1647 11.4478ZM14.405 14.2197C14.0125 14.7848 13.4359 15.2264 12.6824 15.5439C11.9274 15.8623 11.0351 16.0207 10.0046 16.0207C8.76947 16.0207 7.74687 15.8046 6.93971 15.3682C6.36754 15.0556 5.90219 14.6364 5.54443 14.1136C5.18592 13.5904 5.00416 13.0781 5.00416 12.5785C5.00416 12.2838 5.11655 12.0275 5.33532 11.8185C5.55638 11.608 5.84109 11.5025 6.17713 11.5025C6.4524 11.5025 6.68885 11.5854 6.88135 11.7497C7.07241 11.9139 7.23269 12.1527 7.36377 12.4678C7.52089 12.8328 7.69154 13.1379 7.87312 13.3814C8.05358 13.6218 8.30755 13.8225 8.63648 13.9797C8.96178 14.1372 9.39473 14.216 9.93648 14.216C10.6779 14.216 11.2771 14.0556 11.7356 13.7392C12.1965 13.42 12.4179 13.0315 12.4179 12.5622C12.4179 12.1878 12.2986 11.8905 12.0538 11.6587C11.8068 11.4239 11.4878 11.245 11.092 11.1203C10.6946 10.9942 10.1611 10.8605 9.49247 10.7197C8.59468 10.5238 7.84382 10.2957 7.23576 10.0338C6.62691 9.77085 6.14202 9.41147 5.78264 8.95751C5.42251 8.49908 5.24293 7.92929 5.24293 7.25441C5.24293 6.61087 5.43251 6.03536 5.81203 5.53448C6.19136 5.0322 6.74018 4.64775 7.45579 4.37997C8.16889 4.11227 9.00842 3.97836 9.97019 3.97836C10.7393 3.97836 11.4046 4.06736 11.9678 4.24442C12.5294 4.42279 12.9975 4.65817 13.3718 4.95352C13.7438 5.24823 14.0175 5.55907 14.1908 5.88526C14.364 6.21242 14.4512 6.53196 14.4512 6.84378C14.4512 7.1337 14.3389 7.39665 14.1199 7.62709C13.9009 7.85786 13.6208 7.9755 13.2937 7.97443C12.9988 7.97443 12.7674 7.90641 12.607 7.7624C12.4508 7.62309 12.2867 7.40129 12.1092 7.09217C11.8849 6.66085 11.6161 6.32481 11.3037 6.08446C10.9994 5.84857 10.4975 5.72577 9.79903 5.72726C9.1528 5.72726 8.63574 5.85931 8.24547 6.11757C7.8528 6.37996 7.66508 6.68438 7.6642 7.04107C7.66485 7.26459 7.72911 7.45305 7.85842 7.61421C7.98973 7.77686 8.17243 7.9178 8.40724 8.0366C8.64215 8.15727 8.88111 8.25059 9.12123 8.31773C9.36418 8.3866 9.76727 8.48615 10.3276 8.61797C11.0303 8.76942 11.6676 8.93863 12.2403 9.12304C12.8119 9.30838 13.2998 9.5319 13.7028 9.7982C14.109 10.0637 14.4265 10.4022 14.6531 10.8111C14.8814 11.2206 14.995 11.7208 14.995 12.3093C14.9959 13.0181 14.7985 13.6555 14.405 14.2197Z" fill="#E37264"/>
</svg>
