<svg width="20" height="20" viewBox="0 0 20 20" fill="none" xmlns="http://www.w3.org/2000/svg">
<path d="M3.18006 12.5114C3.90286 11.7978 4.8052 11.7978 5.5234 12.5114C6.07125 13.0547 6.61911 13.5979 7.15775 14.1504C7.30507 14.3023 7.42938 14.3345 7.60892 14.2333C7.96342 14.0399 8.34093 13.8834 8.68161 13.6716C10.2699 12.6726 11.6004 11.3881 12.779 9.9425C13.3637 9.22431 13.8839 8.45547 14.2476 7.58996C14.3213 7.41501 14.3075 7.29992 14.1648 7.1572C13.6169 6.62776 13.0829 6.08451 12.5442 5.54126C11.7938 4.78624 11.7938 3.90231 12.5488 3.14268C12.977 2.70992 13.4051 2.28637 13.8333 1.85361C14.2752 1.41164 14.7126 0.965075 15.1592 0.527713C15.882 -0.17667 16.7843 -0.17667 17.5025 0.532317C18.055 1.07557 18.5844 1.63263 19.1461 2.16667C19.6663 2.65928 19.9287 3.26238 19.984 3.96676C20.0714 5.11311 19.7906 6.195 19.3947 7.24928C18.5844 9.43148 17.3506 11.3697 15.8543 13.1468C13.8333 15.5499 11.4209 17.4513 8.59874 18.8233C7.32809 19.4402 6.0114 19.9144 4.57962 19.9926C3.5944 20.0479 2.73809 19.7993 2.05213 19.0304C1.58254 18.5056 1.0531 18.0268 0.555887 17.525C-0.180723 16.7792 -0.185326 15.8768 0.54668 15.1402C1.4214 14.2609 2.30073 13.3862 3.18006 12.5114Z" fill="#E37264"/>
</svg>
