<svg width="19" height="16" viewBox="0 0 19 16" fill="none" xmlns="http://www.w3.org/2000/svg">
<path d="M0.324587 7.67194L4.55895 9.25234L6.19791 14.5232C6.30278 14.8608 6.71558 14.9856 6.98958 14.7616L9.34988 12.8374C9.5973 12.6358 9.9497 12.6258 10.2083 12.8134L14.4654 15.9042C14.7585 16.1173 15.1738 15.9567 15.2473 15.6025L18.3659 0.601498C18.4461 0.214607 18.066 -0.108149 17.6976 0.0343316L0.319625 6.73822C-0.109226 6.90361 -0.105489 7.51078 0.324587 7.67194ZM5.93378 8.41105L14.2093 3.31415C14.358 3.22282 14.511 3.42392 14.3833 3.54239L7.55362 9.89093C7.31356 10.1144 7.15871 10.4134 7.11485 10.738L6.8822 12.4621C6.85139 12.6923 6.52802 12.7152 6.46449 12.4924L5.56973 9.34845C5.46725 8.98986 5.61659 8.60683 5.93378 8.41105Z" fill="#E37264"/>
</svg>
