<svg width="32" height="32" fill="none" xmlns="http://www.w3.org/2000/svg"><path fill-rule="evenodd" clip-rule="evenodd" d="M16 0C7.163 0 0 7.163 0 16s7.163 16 16 16 16-7.163 16-16S24.837 0 16 0zm-4.063 6h7.126A5.938 5.938 0 0 1 25 11.938v7.124A5.938 5.938 0 0 1 19.062 25h-7.125A5.938 5.938 0 0 1 6 19.062v-7.125A5.938 5.938 0 0 1 11.938 6zm7.126 17.219a4.16 4.16 0 0 0 4.156-4.157v-7.125a4.16 4.16 0 0 0-4.157-4.156h-7.125a4.16 4.16 0 0 0-4.156 4.157v7.124a4.16 4.16 0 0 0 4.157 4.157h7.124zM15.5 10.75a4.75 4.75 0 1 0 0 9.5 4.75 4.75 0 0 0 0-9.5zm0 7.719a2.973 2.973 0 0 1-2.969-2.969 2.972 2.972 0 0 1 2.969-2.969 2.972 2.972 0 0 1 2.969 2.969 2.973 2.973 0 0 1-2.969 2.969zm5.74-8.075a.633.633 0 1 1-1.267 0 .633.633 0 0 1 1.266 0z" fill="#FE0"/></svg>