<svg width="32" height="32" fill="none" xmlns="http://www.w3.org/2000/svg"><path fill-rule="evenodd" clip-rule="evenodd" d="M0 16C0 7.163 7.163 0 16 0s16 7.163 16 16-7.163 16-16 16S0 24.837 0 16zm21.64-6.615l-14.633 5.64a.526.526 0 0 0 .042.999l3.719 1.086.046.144a.369.369 0 0 0-.13.407l1.187 3.62c.025.077.142.066.151-.013l.02-.16.114.357a.641.641 0 0 0 1.065.253l1.922-1.942 3.773 2.739a.79.79 0 0 0 1.236-.468L22.65 10.23c.123-.578-.453-1.06-1.01-.846zM12.04 21.108l.27-2.267a.375.375 0 0 1 .133-.243l7.488-6.272c.18-.15-.029-.415-.232-.296l-8.843 5.195a.402.402 0 0 0-.043.029l1.227 3.854z" fill="#FE0"/></svg>