<svg viewBox="0 0 32 32" fill="none" xmlns="http://www.w3.org/2000/svg"><path fill-rule="evenodd" clip-rule="evenodd" d="M16 0C7.163 0 0 7.163 0 16s7.163 16 16 16 16-7.163 16-16S24.837 0 16 0zm7.229 17.929a44.895 44.895 0 0 1-.497-.48c-.558-.55-.594-.869-.145-1.502.26-.369.532-.73.803-1.091.239-.317.477-.634.707-.957l.053-.073c.444-.621.89-1.244 1.123-1.986.154-.492.018-.708-.48-.794a1.543 1.543 0 0 0-.262-.016l-2.958-.002c-.364-.008-.566.153-.695.48-.173.44-.352.88-.56 1.305-.47.965-.995 1.897-1.73 2.686l-.032.034c-.155.167-.328.354-.582.27-.34-.126-.44-.691-.434-.881l-.003-3.447c-.066-.492-.173-.712-.657-.808h-3.073c-.41 0-.616.16-.835.42-.125.149-.164.247.096.296.51.098.797.432.872.947.124.826.114 1.653.044 2.482-.021.241-.062.483-.156.708-.149.355-.389.427-.704.21-.285-.198-.486-.478-.682-.757a16.717 16.717 0 0 1-1.804-3.377c-.14-.344-.378-.553-.739-.558a72.929 72.929 0 0 0-2.662.001c-.534.01-.694.272-.476.761.966 2.17 2.042 4.281 3.446 6.202.721.987 1.55 1.858 2.618 2.476 1.212.7 2.517.91 3.892.844.643-.03.836-.2.865-.846.022-.443.07-.883.287-1.281.212-.391.534-.465.905-.222.186.122.341.276.49.44.117.129.232.26.348.39.242.273.484.547.739.809.47.484 1.03.77 1.731.71l2.72.002c.437-.03.665-.572.413-1.065a5.4 5.4 0 0 0-.655-.953c-.408-.494-.87-.935-1.331-1.377z" fill="#FE0"/></svg>
