<svg viewBox="0 0 32 32" fill="none" xmlns="http://www.w3.org/2000/svg"><path fill-rule="evenodd" clip-rule="evenodd" d="M16 0C7.163 0 0 7.163 0 16s7.163 16 16 16 16-7.163 16-16S24.837 0 16 0zm4.158 10.111c2.291 0 3.49.315 4.14 1.088.653.776.702 1.964.702 3.688v3.116c0 1.976-.312 3.117-1.042 3.816-.712.682-1.813.96-3.8.96h-8.316C7.749 22.779 7 21.171 7 18.003v-3.116c0-1.635 0-2.816.631-3.618.647-.822 1.867-1.158 4.21-1.158h8.317zM14.78 18.85l3.776-1.974a.58.58 0 0 0-.001-1.03l-3.777-1.96a.58.58 0 0 0-.848.515v3.934a.58.58 0 0 0 .85.515z" fill="#FE0"/></svg>
