<svg width="539" height="512" viewBox="0 0 539 512" fill="none" xmlns="http://www.w3.org/2000/svg"><path d="M529.067 176.013H457.33c-4.952 0-8.967 3.946-8.967 8.813v8.813H233.148c-2.378 0-4.659.93-6.34 2.582l-11.594 11.395-11.595-11.395a9.046 9.046 0 0 0-6.34-2.582H89.672v-8.813c0-4.867-4.015-8.813-8.967-8.813H8.967c-4.952 0-8.967 3.946-8.967 8.813V431.59c0 4.867 4.015 8.813 8.967 8.813h71.738c4.952 0 8.967-3.946 8.967-8.813v-8.813h6.851c5.065 11.79 17.992 18.322 30.695 15.51 3.29 14.24 17.704 23.16 32.193 19.927 3.155 12.078 14.213 20.536 26.902 20.579a29.02 29.02 0 0 0 5.281-.583c3.911 14.662 19.174 23.432 34.092 19.588 6.866-1.768 12.789-6.04 16.564-11.947l5.963-9.315 27.87 27.382c10.875 10.74 28.551 10.781 39.477.093 5.054-4.942 7.99-11.597 8.21-18.6 14.686-.402 26.495-12.007 26.902-26.439 14.685-.4 26.494-12.007 26.902-26.44 11.631-.255 21.831-7.698 25.44-18.568l45.348 7.465v10.16c0 4.868 4.015 8.814 8.967 8.814h71.738c4.952 0 8.967-3.946 8.967-8.813V184.826c0-4.867-4.015-8.813-8.967-8.813zm-457.33 26.439v220.325H17.936V193.64h53.803v8.813zm58.799 214.244c-2.972 4.623-9.195 6.005-13.899 3.085-4.704-2.921-6.11-9.038-3.139-13.66l27.028-42.188c1.842-2.881 5.065-4.627 8.528-4.619a10.065 10.065 0 0 1 5.38 1.516c4.692 2.912 6.103 9.005 3.156 13.625l-27.054 42.24zm32.192 19.917c-2.956 4.624-9.168 6.018-13.872 3.111-4.705-2.906-6.122-9.01-3.165-13.634l27.027-42.188c2.957-4.623 9.168-6.016 13.872-3.11 4.705 2.906 6.123 9.01 3.166 13.633l-27.028 42.188zm32.184 19.927c-2.957 4.623-9.168 6.016-13.872 3.11-4.705-2.906-6.122-9.01-3.166-13.633l27.028-42.188c2.956-4.624 9.167-6.018 13.871-3.111 4.705 2.906 6.123 9.01 3.166 13.634l-27.027 42.188zm59.228-22.306l-27.027 42.188c-2.971 4.623-9.194 6.004-13.899 3.084-4.704-2.92-6.11-9.036-3.139-13.66l27.028-42.18a10.034 10.034 0 0 1 6.277-4.405 10.813 10.813 0 0 1 2.241-.239c5.547 0 10.044 4.419 10.044 9.871a9.748 9.748 0 0 1-1.551 5.27l.026.07zm48.854 57.222l.019-.018a.37.37 0 0 0-.02.018zm.027-.027c-3.931 3.843-10.285 3.841-14.213-.007l-30.749-30.22 10.958-17.115 33.977 33.392a9.75 9.75 0 0 1 .027 13.95zm80.733-79.308l-.02.019v-.036c-3.929 3.852-10.291 3.852-14.22 0l-49.321-48.472-12.68 12.462 49.32 48.472a9.763 9.763 0 0 1 0 13.977c-3.928 3.86-10.294 3.86-14.222 0l-49.32-48.471-12.68 12.461 49.32 48.472a9.763 9.763 0 0 1 0 13.977c-3.927 3.86-10.294 3.86-14.221 0l-40.353-39.658-2.421-2.37v-.072c-3.307-14.455-17.72-23.698-32.515-20.851-3.651-13.98-17.78-22.72-32.184-19.908-3.647-13.995-17.795-22.744-32.21-19.918-3.859-14.655-19.074-23.461-33.983-19.67-6.92 1.759-12.888 6.062-16.673 12.02l-27.027 42.188a27.337 27.337 0 0 0-3.47 8.407h-5.202V211.265h103.894l8.968 8.813-20.562 20.208a33.33 33.33 0 0 0 0 47.714c13.406 13.175 35.143 13.175 48.549 0l20.561-20.209 132.653 130.371a9.75 9.75 0 0 1 .019 13.959zm64.608-8.566l-40.532-6.636-11.415-11.218-138.993-136.602c-3.501-3.44-9.177-3.44-12.679 0l-26.902 26.439c-6.488 6.09-16.701 6.09-23.189 0a15.93 15.93 0 0 1 0-22.79l42.209-41.483h211.501v192.29zm71.737 19.222h-53.803V193.64h53.803v229.138z" fill="#333"/><path d="M269.018 35.006c-39.62 0-71.738 31.566-71.738 70.504.045 38.92 32.136 70.46 71.738 70.504 39.62 0 71.737-31.565 71.737-70.504 0-38.938-32.118-70.504-71.737-70.504zm0 96.944c-4.952 0-8.967-3.947-8.967-8.814h-17.935c.047 11.165 7.224 21.097 17.935 24.818v9.64c-29.27-4.837-49.006-32.078-44.083-60.844 3.798-22.199 21.495-39.591 44.083-43.324v9.641c-13.981 4.84-21.323 19.902-16.398 33.642 3.789 10.572 13.96 17.636 25.365 17.614 4.952 0 8.967 3.946 8.967 8.813 0 4.867-4.015 8.814-8.967 8.814zm8.967 25.645v-9.641c13.981-4.84 21.323-19.902 16.398-33.643-3.789-10.571-13.961-17.636-25.365-17.614-4.952 0-8.967-3.946-8.967-8.813 0-4.867 4.015-8.813 8.967-8.813 4.952 0 8.967 3.946 8.967 8.813h17.935c-.048-11.163-7.225-21.096-17.935-24.817v-9.641c29.27 4.838 49.006 32.079 44.083 60.844-3.799 22.198-21.496 39.592-44.083 43.325zm74.517-134.989l-9.29 15.044a145.456 145.456 0 0 1 14.267 9.694l11.074-13.845a163.552 163.552 0 0 0-16.051-10.893zM316.983 6.881l-5.335 16.833a146.604 146.604 0 0 1 16.23 6.037l7.345-16.075a163.027 163.027 0 0 0-18.24-6.795zm90.174 69.422l-15.343 9.121a138.869 138.869 0 0 1 8.062 15.07l16.356-7.235a156.966 156.966 0 0 0-9.075-16.956zm-24.015-30.062l-12.68 12.436c4.1 4.023 7.953 8.282 11.54 12.752l14.061-10.866a164.638 164.638 0 0 0-12.921-14.322zm40.01 64.952l-17.118 5.226a139.808 139.808 0 0 1 4.134 16.533l17.638-3.146a153.652 153.652 0 0 0-4.654-18.613zM278.655.034l-1.058 17.626c5.773.34 11.518 1.02 17.208 2.036l3.21-17.388a166.525 166.525 0 0 0-19.36-2.274zM154.782 46.303a160.529 160.529 0 0 0-12.922 14.356l14.168 10.867A143.333 143.333 0 0 1 167.47 58.8l-12.688-12.497zm-24.005 30.123a159.434 159.434 0 0 0-9.057 16.982l16.356 7.227a140.376 140.376 0 0 1 8.089-15.07l-15.388-9.14zm-15.959 34.943a156.086 156.086 0 0 0-4.627 18.64l17.639 3.137a139.716 139.716 0 0 1 4.116-16.56l-17.128-5.217zm70.562-88.702a162.889 162.889 0 0 0-16.024 10.91l11.092 13.855a146.109 146.109 0 0 1 14.24-9.694l-9.308-15.07zM259.17 0a164.65 164.65 0 0 0-19.361 2.309l3.201 17.37a146.869 146.869 0 0 1 17.244-2.053L259.17 0zm-38.335 6.936a162.954 162.954 0 0 0-18.221 6.822l7.371 16.057a145.144 145.144 0 0 1 16.23-6.055l-5.38-16.824z" fill="#333"/></svg>