<svg width="200" height="200" viewBox="0 0 200 200" fill="none" xmlns="http://www.w3.org/2000/svg"><path d="M33.229 177.707a3.933 3.933 0 0 0-2.762-1.145 3.934 3.934 0 0 0-2.761 1.145 3.936 3.936 0 0 0-1.145 2.761c0 1.028.418 2.035 1.145 2.762a3.936 3.936 0 0 0 2.761 1.144 3.933 3.933 0 0 0 2.762-1.144 3.935 3.935 0 0 0 1.144-2.762 3.934 3.934 0 0 0-1.144-2.761zM183.405 71.46a3.927 3.927 0 0 0-2.762-1.145 3.934 3.934 0 0 0-2.761 1.145 3.937 3.937 0 0 0-1.145 2.762c0 1.027.418 2.035 1.145 2.761a3.936 3.936 0 0 0 2.761 1.145 3.928 3.928 0 0 0 2.762-1.145 3.923 3.923 0 0 0 1.148-2.761 3.924 3.924 0 0 0-1.148-2.762z" fill="#333"/><path d="M198.85 1.144A3.906 3.906 0 0 0 196.088 0L99.996.005a3.906 3.906 0 0 0-3.906 3.906v11.171l-37.026 9.921a3.906 3.906 0 0 0-2.763 4.784l19.19 71.618-16.6 16.601c-2.113-3.085-5.661-5.114-9.674-5.114H11.718C5.257 112.892 0 118.149 0 124.611v63.67C0 194.743 5.257 200 11.718 200h37.5c5.489 0 10.107-3.796 11.372-8.899l4.645 4.051A19.683 19.683 0 0 0 78.172 200h117.916a3.907 3.907 0 0 0 3.907-3.906V3.906a3.91 3.91 0 0 0-1.145-2.762zM53.123 188.281a3.911 3.911 0 0 1-3.906 3.907h-37.5a3.911 3.911 0 0 1-3.905-3.907v-63.67a3.91 3.91 0 0 1 3.906-3.906H26.56v44.998a3.906 3.906 0 0 0 7.813 0v-44.998h14.843a3.91 3.91 0 0 1 3.906 3.906v63.67zM64.859 31.539l31.231-8.37v14.476l-2.618.701a3.906 3.906 0 0 0-2.762 4.784c1.502 5.602-1.835 11.38-7.437 12.882a3.905 3.905 0 0 0-2.76 4.791l15.226 56.382H87.9l-4.04-15.806a3.9 3.9 0 0 0-.654-1.37L64.86 31.539zm31.231 24.02v32.96l-7.124-26.38a18.3 18.3 0 0 0 7.124-6.58zm56.119 136.628H78.171c-2.87 0-5.64-1.038-7.802-2.924l-9.434-8.227V127.01l17.054-17.054 3.093 12.102a3.906 3.906 0 0 0 3.785 2.939l76.798.004a5.475 5.475 0 0 1 5.469 5.469 5.475 5.475 0 0 1-5.469 5.469h-39.352a3.906 3.906 0 0 0 0 7.812h51.578a5.475 5.475 0 0 1 5.469 5.469 5.475 5.475 0 0 1-5.469 5.469h-51.578a3.906 3.906 0 0 0 0 7.812h43.22a5.475 5.475 0 0 1 5.469 5.469 5.475 5.475 0 0 1-5.469 5.469h-43.22a3.906 3.906 0 0 0 0 7.812h29.896a5.475 5.475 0 0 1 5.469 5.469 5.476 5.476 0 0 1-5.469 5.467zm39.973 0h-27.875a13.188 13.188 0 0 0 1.183-5.469c0-1.949-.425-3.799-1.183-5.468h1.226c7.323 0 13.281-5.958 13.281-13.281 0-2.136-.51-4.154-1.41-5.944 5.624-1.545 9.768-6.699 9.768-12.806 0-2.962-.976-5.701-2.622-7.912V91.799a3.906 3.906 0 0 0-7.812 0v44.45c-.918-.201-1.87-.31-2.847-.31h-.128a13.207 13.207 0 0 0 1.182-5.469c0-7.323-5.957-13.281-13.28-13.281h-6.28c6.668-2.859 11.351-9.486 11.351-17.19 0-10.307-8.386-18.694-18.694-18.694S129.347 89.692 129.347 100c0 7.703 4.684 14.33 11.351 17.189h-21.353V42.915c6.978-1.52 12.484-7.026 14.005-14.005h29.383c1.52 6.979 7.026 12.485 14.005 14.005V55.06a3.906 3.906 0 0 0 7.812 0V39.428a3.906 3.906 0 0 0-3.906-3.907c-5.8 0-10.517-4.718-10.517-10.517a3.907 3.907 0 0 0-3.907-3.906h-36.357a3.907 3.907 0 0 0-3.907 3.906c0 5.8-4.718 10.517-10.517 10.517a3.906 3.906 0 0 0-3.906 3.907v77.761h-7.63V7.817l88.279-.005v184.375zm-44.14-81.305c-6 0-10.881-4.882-10.881-10.882s4.881-10.882 10.881-10.882S158.924 94 158.924 100s-4.881 10.882-10.882 10.882z" fill="#333"/></svg>